<svg width="183" height="160" viewBox="0 0 183 160" fill="none" xmlns="http://www.w3.org/2000/svg">
<g id="hand-coffee-COLOR_NOT_UPDATED">
<path id="Vector" d="M122.894 150.431L92.942 120.044L86.7334 83.0135C86.7334 83.0135 101.001 76.8049 111.349 87.5886C121.696 98.3701 122.894 150.431 122.894 150.431Z" fill="#CCCCCC"/>
<path id="Vector_2" d="M122.894 150.431C122.894 150.431 115.488 149.125 110.55 148.47C105.611 147.817 89.7835 145.42 92.6144 133.222C92.6144 133.222 86.6249 131.697 84.717 125.272C84.717 125.272 76.7665 126.85 75.7859 118.899C74.8054 110.949 95.2727 101.898 98.2763 107.463C100.864 112.255 100.554 112.886 100.129 115.086C100.1 115.238 99.9629 115.882 99.9385 116.04C99.5755 118.437 119.844 107.009 123.91 114.924C127.281 121.485 116.284 126.323 116.284 126.323C116.284 126.323 121.366 132.277 115.269 136.996L122.891 150.429L122.894 150.431Z" fill="#CCCCCC"/>
<path id="Vector_3" d="M86.5165 124.727C86.3572 124.727 86.2022 124.639 86.127 124.486C86.0207 124.271 86.107 124.01 86.3217 123.902C86.4125 123.857 95.4586 119.329 97.5082 117.773C97.7008 117.627 97.9731 117.664 98.1191 117.857C98.2652 118.047 98.2276 118.322 98.035 118.468C95.9212 120.072 87.0876 124.495 86.7113 124.683C86.6493 124.714 86.5829 124.729 86.5165 124.729V124.727Z" fill="black"/>
<path id="Vector_4" d="M94.3586 133.585C94.1262 133.585 93.9314 133.401 93.9247 133.167C93.9159 132.928 94.104 132.724 94.3431 132.715C101.933 132.432 113.657 126.788 113.774 126.732C113.991 126.628 114.253 126.717 114.357 126.934C114.461 127.151 114.372 127.412 114.155 127.516C113.668 127.753 102.148 133.295 94.3763 133.585H94.3608H94.3586Z" fill="black"/>
<path id="Vector_5" d="M103.398 143.514C103.206 143.514 103.031 143.386 102.978 143.194C102.916 142.961 103.053 142.722 103.285 142.66C109.392 141.013 115.632 136.197 115.694 136.148C115.882 135.998 116.156 136.035 116.304 136.224C116.453 136.414 116.417 136.686 116.229 136.834C115.97 137.038 109.788 141.808 103.513 143.501C103.476 143.512 103.438 143.517 103.4 143.517L103.398 143.514Z" fill="black"/>
<g id="Group">
<path id="Vector_6" d="M2.21698 68.0909H65.8234C65.8234 68.0909 69.1989 67.9824 68.8735 72.2299C68.5459 76.4774 63.5724 144.984 56.0225 148.327C48.4704 151.667 17.8303 149.489 17.8303 149.489C17.8303 149.489 14.0542 150.505 11.5863 143.388C9.11836 136.272 -5.47679 67.1479 2.2192 68.0909H2.21698Z" fill="#DA002F"/>
<path id="Vector_7" d="M60.8853 133.731L58.7804 124.074C84.582 109.82 88.7941 98.629 89.1239 93.7418C89.3895 89.802 87.9973 86.3934 85.3058 84.3924C78.3933 79.2485 65.9407 95.3244 65.8234 95.4661L62.9195 86.535C63.5171 85.8134 77.5323 72.6349 88.1655 80.5456C92.1917 83.5403 94.2833 88.4673 93.9048 94.0628C93.4289 101.108 87.7516 118.89 60.8853 133.729V133.731Z" fill="#DA002F"/>
<path id="Vector_8" d="M67.0585 93.3966C67.0452 93.3966 67.0297 93.3966 67.0165 93.3944C66.7774 93.3723 66.6026 93.1598 66.6247 92.9185L67.5676 83.1884C67.5919 82.9494 67.8044 82.7723 68.0435 82.7967C68.2825 82.8188 68.4574 83.0335 68.4353 83.2726L67.4923 93.0027C67.4702 93.2284 67.2799 93.3966 67.0585 93.3966Z" fill="black"/>
<path id="Vector_9" d="M61.6844 132.824C61.6601 132.824 61.6335 132.822 61.6092 132.817C61.3723 132.775 61.213 132.549 61.255 132.313L63.1076 121.783C63.1497 121.547 63.3755 121.389 63.6123 121.429C63.8491 121.471 64.0085 121.697 63.9664 121.934L62.1138 132.463C62.0762 132.676 61.8925 132.824 61.6844 132.824Z" fill="black"/>
</g>
<path id="Vector_10" d="M179.094 92.2699C179.094 92.2699 170.816 85.6629 156.586 79.7819C141.285 73.4582 128.777 72.3383 118.429 71.1408C108.082 69.9434 97.1364 67.2939 92.3444 68.5268C87.5524 69.7619 74.2034 66.7207 74.6107 73.0288C74.8099 76.1232 79.4846 83.7926 92.9177 83.0666C106.351 82.3406 115.707 106.321 115.707 106.321L122.896 150.431C122.896 150.431 153.609 157.837 161.017 159.945C168.266 162.005 191.44 105.96 179.096 92.2721L179.094 92.2699Z" fill="#CCCCCC"/>
<path id="Vector_11" d="M126.924 111.765C126.884 111.765 126.845 111.761 126.805 111.75C116.968 108.963 111.262 99.0517 107.854 93.1309C106.65 91.0392 105.698 89.3858 104.947 88.6642C102.026 85.8466 92.9863 84.0759 92.8955 84.0582C92.6587 84.0139 92.506 83.7837 92.5502 83.5491C92.5967 83.3123 92.8247 83.1573 93.0615 83.2038C93.4422 83.2768 102.446 85.0409 105.552 88.0379C106.391 88.8457 107.369 90.5456 108.608 92.6971C111.953 98.5028 117.548 108.222 127.042 110.913C127.274 110.98 127.409 111.219 127.343 111.451C127.29 111.644 127.115 111.768 126.924 111.768V111.765Z" fill="black"/>
<path id="Vector_12" d="M124.299 114.727C123.252 112.688 121.121 111.655 117.962 111.655C113.823 111.655 108.657 113.397 104.885 114.667C102.86 115.351 101.109 115.94 100.401 115.944C100.43 115.801 100.47 115.606 100.503 115.444L100.62 114.858C101.027 112.801 101.196 111.951 98.6636 107.257C98.367 106.706 97.9066 106.276 97.3156 105.955C97.0345 106.199 96.6804 106.371 96.251 106.444C96.9371 106.659 97.5502 107.033 97.8955 107.671C100.279 112.089 100.14 112.797 99.7659 114.687L99.6508 115.265C99.5976 115.522 99.5268 115.865 99.5113 115.975C99.4693 116.252 99.5689 116.436 99.6596 116.542C99.8168 116.724 100.058 116.812 100.397 116.812C101.244 116.812 102.889 116.256 105.164 115.491C108.878 114.238 113.965 112.522 117.962 112.522C120.806 112.522 122.626 113.372 123.524 115.121C124.193 116.425 124.295 117.753 123.828 119.074C122.396 123.116 116.174 125.896 116.112 125.922L115.576 126.159L115.957 126.604C115.979 126.631 118.113 129.169 117.807 132.133C117.657 133.59 116.935 134.915 115.667 136.089C115.835 136.328 115.994 136.571 116.149 136.821C117.643 135.48 118.498 133.939 118.673 132.224C118.941 129.639 117.612 127.41 116.96 126.489C118.535 125.717 123.323 123.105 124.647 119.369C125.198 117.812 125.08 116.25 124.297 114.725L124.299 114.727Z" fill="black"/>
<g id="Group_2">
<path id="Vector_13" d="M90.5803 107.662C90.1531 107.706 89.7259 107.728 89.2988 107.728C87.0942 107.724 84.3585 107.651 82.3752 106.575C78.4243 104.444 75.06 100.477 73.8802 95.3929C72.7049 90.3397 78.7453 85.7359 82.9286 83.4229C83.7697 83.5357 84.5665 83.8412 85.3036 84.3901C87.5989 86.0966 88.9446 88.8258 89.1239 92.0352C89.1018 92.1436 89.0885 92.2012 89.0885 92.2012C89.1018 92.2012 89.1195 92.2056 89.1328 92.2056C91.0805 92.3716 92.6521 92.6948 93.9425 93.1773C97.3046 94.4456 98.7345 96.8029 99.7283 100.256C101.109 105.048 97.6234 106.938 90.5803 107.662Z" fill="#CCCCCC"/>
<path id="Vector_14" d="M100.149 100.136C99.2967 97.1726 97.9753 94.2309 94.0974 92.7701C94.0554 92.7546 94.0089 92.7413 93.9646 92.7258C93.9624 93.0246 93.9314 93.3234 93.8739 93.62C97.132 94.8795 98.4069 97.2323 99.31 100.378C99.7659 101.956 99.6685 103.193 99.0156 104.158C97.9266 105.772 95.2307 106.746 90.5361 107.228C90.162 107.266 89.7857 107.283 89.4161 107.288C89.3674 107.445 89.3032 107.598 89.2191 107.746C89.1438 107.881 89.073 108.02 89.0044 108.16C89.1018 108.16 89.2014 108.162 89.2988 108.162C89.7348 108.162 90.1819 108.14 90.6246 108.096C95.6667 107.578 98.4777 106.513 99.7394 104.645C100.545 103.452 100.68 101.976 100.149 100.134V100.136Z" fill="black"/>
</g>
<path id="Vector_15" d="M37.4808 61.4816C37.4808 61.4816 10.2848 48.6638 22.9299 30.4741C35.5751 12.2866 40.0793 -11.4455 66.2351 6.22187C92.393 23.8914 117.336 -9.36932 136.911 17.8267C156.484 45.0227 115.085 60.6139 97.0699 48.8342C79.0551 37.0545 66.2351 30.2992 58.9596 36.1891C51.6842 42.0789 56.3611 71.1807 37.4808 61.4794V61.4816Z" fill="#E6E6E6"/>
</g>
</svg>
