<svg width="260" height="160" viewBox="0 0 260 160" fill="none" xmlns="http://www.w3.org/2000/svg">
<g id="people-search-COLOR_NOT_UPDATED" clip-path="url(#clip0_2284_1864)">
<g id="Group">
<path id="Vector" d="M199.771 38.5735C199.771 38.5735 199.777 38.5735 199.785 38.5726L199.743 32.071L210.243 32.0749L210.279 37.8169L217.195 39.8526C217.195 39.8526 213.069 45.0053 204.464 45.0597C195.859 45.1132 193.442 40.7314 193.442 40.7314L199.771 38.5735Z" fill="#999999"/>
<path id="Vector_2" d="M199.744 32.071L199.77 36.0115C207.352 40.8069 210.019 33.3033 210.247 32.6079L210.244 32.0749L199.744 32.071Z" fill="#020000"/>
<path id="Vector_3" d="M224.511 86.6393L186.038 86.9059L188.14 41.6599C188.172 41.6522 199.771 38.5734 199.771 38.5734C202.184 40.7839 204.26 40.7954 205.865 40.5709C208.756 40.1649 210.28 37.8159 210.28 37.8159L221.776 40.0369L224.511 86.6403V86.6393Z" fill="#999999"/>
<g id="Group_2">
<path id="Vector_4" d="M202.698 22.3072C202.698 22.3072 198.264 23.5424 198.864 28.5499C199.462 33.5583 201.829 38.1321 206.679 36.8817C211.888 35.5405 211.868 31.216 210.251 25.6956C208.633 20.1751 203.711 21.9442 202.698 22.3063V22.3072Z" fill="#999999"/>
<path id="Vector_5" d="M199.095 28.5287C199.095 28.5287 197.25 27.2859 196.723 29.0512C196.194 30.8165 198.909 33.134 199.484 31.362L199.095 28.5287Z" fill="#999999"/>
<path id="Vector_6" d="M203.232 29.0016C203.311 29.4267 203.206 29.803 202.998 29.8422C202.789 29.8804 202.556 29.568 202.476 29.142C202.398 28.7169 202.502 28.3396 202.709 28.3004C202.917 28.2613 203.15 28.5755 203.231 29.0016H203.232Z" fill="#020000"/>
<path id="Vector_7" d="M208.543 28.0082C208.622 28.4342 208.518 28.8106 208.312 28.8498C208.103 28.888 207.87 28.5737 207.789 28.1496C207.71 27.7235 207.815 27.3462 208.023 27.308C208.231 27.2688 208.464 27.5821 208.544 28.0072L208.543 28.0082Z" fill="#020000"/>
<path id="Vector_8" d="M198.591 30.3895C198.675 30.3656 198.723 30.2787 198.699 30.1965C198.535 29.6072 198.279 29.2461 197.939 29.1219C197.559 28.9834 197.231 29.2012 197.217 29.2117C197.145 29.2604 197.127 29.3597 197.176 29.4314C197.225 29.503 197.324 29.5221 197.395 29.4725C197.406 29.4667 197.608 29.3359 197.833 29.419C198.066 29.5078 198.261 29.8039 198.393 30.2797C198.417 30.3647 198.504 30.4124 198.589 30.3895H198.591Z" fill="#020000"/>
<path id="Vector_9" d="M206.28 30.6687C206.285 30.6677 206.29 30.6639 206.295 30.662C206.627 30.5254 207.155 30.17 207.023 29.7096C206.99 29.5911 206.911 29.5013 206.8 29.4488C206.435 29.2778 205.758 29.5682 205.682 29.6007C205.602 29.637 205.565 29.7306 205.601 29.8099C205.637 29.8901 205.731 29.9283 205.81 29.8911C206.064 29.7784 206.497 29.658 206.665 29.7363C206.697 29.7507 206.709 29.7679 206.718 29.7975C206.791 30.0487 206.338 30.3009 206.175 30.3678C206.094 30.4012 206.055 30.4948 206.088 30.5741C206.12 30.6505 206.204 30.6887 206.281 30.6668L206.28 30.6687Z" fill="#020000"/>
<path id="Vector_10" d="M202.85 27.3099C202.859 27.3042 202.867 27.2965 202.875 27.2889C202.937 27.2268 202.939 27.1265 202.877 27.0644C202.622 26.8055 202.391 26.7109 202.189 26.7864C201.843 26.9135 201.793 27.4637 201.786 27.5716C201.781 27.6595 201.847 27.735 201.933 27.7417C202.021 27.7474 202.095 27.6815 202.103 27.5936C202.115 27.4064 202.191 27.1265 202.3 27.0854C202.37 27.0596 202.501 27.136 202.651 27.2879C202.705 27.3424 202.789 27.3491 202.851 27.3109L202.85 27.3099Z" fill="#020000"/>
<path id="Vector_11" d="M208.324 26.5275C208.347 26.5266 208.37 26.5209 208.391 26.5103C208.469 26.4712 208.502 26.3766 208.464 26.2992C208.415 26.2018 208.157 25.7165 207.794 25.728H207.79C207.574 25.7356 207.397 25.9114 207.261 26.2505C207.226 26.3308 207.267 26.4234 207.348 26.4559C207.429 26.4865 207.521 26.4483 207.554 26.368C207.634 26.1674 207.728 26.048 207.801 26.0451C207.916 26.0432 208.095 26.2753 208.177 26.4387C208.204 26.496 208.263 26.5294 208.322 26.5275H208.324Z" fill="#020000"/>
<path id="Vector_12" d="M199.619 28.7265C200.296 28.3482 200.455 27.1771 200.71 24.9953C200.71 24.9953 204.752 27.1475 206.208 24.8271C206.208 24.8271 207.854 25.7365 209.285 25.9601C210.967 26.2256 212.38 25.6181 210.904 22.6061C209.15 19.0287 204.836 16.3683 199.919 20.431C199.919 20.431 193.107 22.1257 196.725 27.1016C197.393 28.0225 199.262 28.9252 199.62 28.7256L199.619 28.7265Z" fill="#999999"/>
<path id="Vector_13" d="M207.691 33.0988C208.596 32.7263 209.222 32.2114 209.557 31.5627C210.011 30.6801 209.746 29.8824 209.734 29.85C209.706 29.7669 209.615 29.722 209.533 29.7516C209.45 29.7793 209.406 29.87 209.434 29.9531C209.437 29.9598 209.666 30.6629 209.271 31.4233C208.899 32.1397 208.111 32.6794 206.93 33.03C203.726 33.9796 203.036 31.8436 203.028 31.8226C203.002 31.7385 202.915 31.6907 202.83 31.7156C202.747 31.7395 202.699 31.8302 202.724 31.9143C202.732 31.9382 203.515 34.3712 207.019 33.3328C207.257 33.2622 207.482 33.1838 207.69 33.0979L207.691 33.0988Z" fill="#020000"/>
<path id="Vector_14" d="M209.089 25.2359C206.047 25.1337 204.777 23.6387 204.765 23.6234C204.708 23.5556 204.61 23.547 204.542 23.6024C204.474 23.6578 204.464 23.7581 204.52 23.825C204.546 23.8575 204.878 24.2482 205.583 24.6513C205.303 24.956 204.954 25.1289 204.543 25.1633C203.192 25.2789 201.563 23.9329 201.276 23.6846C201.344 23.462 201.378 23.313 201.383 23.2891C201.401 23.2041 201.347 23.1191 201.262 23.1009C201.176 23.0828 201.091 23.1372 201.073 23.2222C201.069 23.2451 200.569 25.4814 199.062 26.3545C198.986 26.3985 198.961 26.4959 199.005 26.5704C199.036 26.6239 199.092 26.6526 199.15 26.6497C199.175 26.6487 199.199 26.6411 199.221 26.6287C200.3 26.0039 200.887 24.7879 201.167 24.0084C201.641 24.4029 203.144 25.5531 204.496 25.4843C204.521 25.4843 204.545 25.4814 204.569 25.4795C205.09 25.4356 205.525 25.2073 205.868 24.8032C206.599 25.1681 207.649 25.5062 209.079 25.5531C209.083 25.5531 209.087 25.5531 209.092 25.5531C209.174 25.5502 209.239 25.4824 209.243 25.4002C209.246 25.3123 209.176 25.2388 209.089 25.2369V25.2359Z" fill="#020000"/>
</g>
<path id="Vector_15" d="M205.37 43.9115C203.547 43.9181 201.615 42.1528 199.623 38.6575C199.577 38.5763 199.605 38.4722 199.686 38.4254C199.768 38.3795 199.871 38.4082 199.917 38.4894C201.955 42.0659 203.886 43.771 205.655 43.5542C208.539 43.2046 210.099 37.8255 210.114 37.771C210.14 37.6803 210.234 37.6277 210.324 37.6535C210.413 37.6803 210.466 37.7729 210.44 37.8637C210.375 38.0939 208.801 43.515 205.695 43.8914C205.586 43.9048 205.477 43.9115 205.368 43.9124L205.37 43.9115Z" fill="black"/>
<g id="Group_3">
<g id="Group_4">
<path id="Vector_16" d="M234.642 157.907C234.664 158.027 234.688 158.143 234.708 158.255C234.91 159.27 235.091 159.998 235.091 159.998H258.456C258.487 159.369 258.451 158.789 258.363 158.255C258.343 158.136 258.32 158.021 258.296 157.907C257.331 153.42 252.583 152.396 252.583 152.396C246.896 151.303 234.667 152.252 234.667 152.252C233.854 152.834 234.25 155.816 234.642 157.907H234.642Z" fill="#999999"/>
<path id="Vector_17" d="M234.642 157.907C234.665 158.027 234.688 158.143 234.708 158.255H258.362C258.342 158.136 258.319 158.021 258.295 157.907H234.642Z" fill="#020000"/>
</g>
<g id="Group_5">
<path id="Vector_18" d="M195.998 157.908C195.976 158.027 195.951 158.143 195.932 158.255C195.73 159.27 195.548 159.999 195.548 159.999H172.184C172.154 159.369 172.189 158.789 172.278 158.255C172.298 158.136 172.32 158.021 172.346 157.908C173.311 153.421 177.55 152.484 177.55 152.484C183.238 151.39 196.017 152.257 196.017 152.257C196.829 152.84 196.393 155.816 196 157.908H195.998Z" fill="#999999"/>
<path id="Vector_19" d="M195.998 157.907C195.976 158.027 195.951 158.143 195.932 158.255H172.278C172.298 158.136 172.32 158.021 172.346 157.907H195.999H195.998Z" fill="#020000"/>
</g>
<path id="Vector_20" d="M252.584 152.397L234.668 152.252C234.668 152.252 233.343 150.014 231.259 146.528C231.112 146.281 230.96 146.03 230.806 145.774C227.929 140.962 223.8 134.11 219.702 127.461C219.555 127.217 219.404 126.972 219.254 126.732C212.721 116.14 206.721 106.041 205.798 106.041C204.876 106.041 196.016 152.258 196.016 152.258L177.551 152.485L186.039 86.9068C198.473 84.7928 224.512 86.6403 224.512 86.6403L252.585 152.398L252.584 152.397Z" fill="#999999"/>
<path id="Vector_21" d="M205.651 105.328C205.635 105.328 205.618 105.326 205.603 105.321C205.518 105.293 205.47 105.202 205.498 105.117L207.404 99.1486C207.431 99.0636 207.522 99.0158 207.607 99.0435C207.692 99.0703 207.74 99.161 207.712 99.247L205.805 105.215C205.783 105.283 205.72 105.327 205.651 105.327V105.328Z" fill="black"/>
<path id="Vector_22" d="M186.037 87.0798C185.941 87.0798 185.864 87.0024 185.863 86.9069C185.863 86.8104 185.94 86.7321 186.036 86.7311L224.511 86.4656H224.512C224.608 86.4656 224.686 86.5429 224.686 86.6394C224.686 86.735 224.609 86.8133 224.513 86.8142L186.038 87.0808L186.037 87.0798Z" fill="#020000"/>
<path id="Vector_23" d="M177.549 152.659C177.453 152.659 177.376 152.582 177.374 152.486C177.374 152.39 177.449 152.311 177.546 152.31L196.012 152.083C196.115 152.075 196.187 152.158 196.188 152.255C196.189 152.351 196.112 152.43 196.016 152.431L177.551 152.659H177.549Z" fill="#020000"/>
<path id="Vector_24" d="M252.583 152.572H252.583L234.668 152.428C234.571 152.428 234.494 152.348 234.495 152.252C234.495 152.156 234.578 152.089 234.67 152.08L252.585 152.224C252.681 152.224 252.759 152.303 252.758 152.399C252.757 152.494 252.679 152.572 252.584 152.572H252.583Z" fill="#020000"/>
<path id="Vector_25" d="M234.37 136.832C233.877 136.396 233.138 136.832 232.626 137.195C231.333 138.112 230.455 139.067 229.873 139.701C229.758 139.825 229.637 139.959 229.53 140.07C229.525 139.545 229.6 138.527 229.696 137.247C229.794 135.952 229.928 134.175 230.062 131.885C230.316 127.578 229.906 125.054 228.843 124.383C228.691 124.286 228.525 124.229 228.356 124.208C228.457 122.624 228.346 121.082 227.884 119.876C227.556 119.02 227.058 118.567 226.402 118.533C226.377 118.53 226.355 118.53 226.33 118.53C224.109 118.53 220.819 123.927 219.254 126.732C219.404 126.973 219.555 127.217 219.702 127.461C221.679 123.852 224.771 119.191 226.363 119.275C226.487 119.283 226.868 119.303 227.189 120.141C227.649 121.34 227.733 122.837 227.609 124.354C227.584 124.367 227.559 124.382 227.535 124.394C226.107 125.18 224.759 128.287 224.759 130.786C224.759 131.74 224.912 132.214 225.272 132.365C225.408 132.422 225.684 132.475 226.002 132.164C226.815 131.383 227.952 128.172 228.293 124.951C228.358 124.964 228.408 124.989 228.448 125.013C228.736 125.195 229.651 126.225 229.321 131.84C229.186 134.125 229.053 135.896 228.955 137.189C228.719 140.32 228.684 140.8 229.149 141.004C229.537 141.17 229.836 140.848 230.424 140.206C230.983 139.596 231.829 138.673 233.058 137.803C233.672 137.368 233.877 137.396 233.877 137.389C234.269 137.876 232.926 141.465 230.807 145.775C230.961 146.031 231.113 146.282 231.26 146.529C231.71 145.621 232.239 144.522 232.742 143.41C235.022 138.356 234.846 137.247 234.371 136.833L234.37 136.832ZM225.563 131.552C225.533 131.417 225.503 131.181 225.503 130.786C225.503 128.689 226.52 126.299 227.497 125.351C227.102 128.216 226.085 130.927 225.563 131.552Z" fill="white"/>
</g>
<g id="Group_6">
<g id="Group_7">
<path id="Vector_26" d="M159.962 76.2653C164.084 81.5555 178.658 93.1543 178.658 93.1543C183.591 98.6853 189.013 98.4063 190.719 97.9497C192.419 97.4979 191.656 95.552 191.656 95.552C191.656 95.552 193.22 95.6905 193.775 94.6149C194.317 93.5631 193.437 92.7091 193.394 92.6719C193.484 92.7072 194.94 93.2861 195.583 91.9039C195.795 91.4472 195.754 91.0355 195.602 90.6859C195.283 89.9551 194.47 89.5109 194.47 89.5109C195.928 89.2635 195.942 88.3379 195.942 88.3379C196.577 86.4273 187.132 82.1439 185.553 81.437C185.407 81.373 185.331 81.3396 185.331 81.3396C185.331 81.3396 175.762 73.3469 175.669 72.512C175.634 72.1892 177.48 70.5165 179.739 68.6041C179.748 68.5945 179.76 68.5878 179.769 68.5783C179.974 68.4092 180.176 68.2334 180.387 68.0624C180.442 68.0175 180.497 67.9717 180.552 67.9249C183.339 65.594 186.477 63.1008 187.467 62.3156C187.671 62.156 187.785 62.0653 187.785 62.0653C187.785 62.0653 188.511 50.7435 188.494 44.9651C188.494 44.711 188.491 44.4655 188.486 44.2325C188.462 42.62 188.36 41.6017 188.141 41.6609C188.141 41.6609 182.133 42.6983 173.236 52.2891C172.633 52.9387 172.026 53.5807 171.419 54.2111C171.229 54.4156 171.035 54.6181 170.842 54.8196C169.69 56.0156 168.551 57.182 167.457 58.3188C167.184 58.6015 166.914 58.8824 166.648 59.1613C160.452 65.6714 156.042 71.2358 159.962 76.2662V76.2653Z" fill="#999999"/>
<path id="Vector_27" d="M184.967 97.451C184.965 97.4061 184.966 97.3612 184.965 97.3172C186.5 97.855 187.835 97.9888 188.766 97.9888C189.697 97.9888 190.37 97.856 190.669 97.7767C191.069 97.6707 191.349 97.4653 191.501 97.1653C191.829 96.5196 191.489 95.6283 191.485 95.6197L191.379 95.3494L191.668 95.3733C191.668 95.3733 191.731 95.379 191.828 95.379C192.233 95.379 193.218 95.2959 193.612 94.5317C194.096 93.5927 193.302 92.8332 193.267 92.8007L192.518 92.0996L193.462 92.5017C193.462 92.5017 193.791 92.6393 194.185 92.6393C194.753 92.6393 195.166 92.3661 195.417 91.8273C195.997 90.574 194.448 89.7009 194.382 89.6637L193.927 89.4134L194.439 89.3264C195.718 89.1144 195.759 88.3635 195.76 88.3311L195.769 88.2776C196.189 87.0166 190.857 84.0696 186.643 82.1247C186.663 82.0531 186.683 81.9834 186.69 81.9633C186.716 81.9002 186.731 81.8372 186.742 81.7732C189.81 83.186 196.65 86.5619 196.12 88.3674C196.106 88.5279 195.987 89.2586 194.92 89.5844C195.545 90.062 196.226 90.9408 195.745 91.9783C195.354 92.8217 194.682 93.0004 194.186 93.0004C194.071 93.0004 193.961 92.9908 193.861 92.9756C194.113 93.4092 194.276 94.0359 193.935 94.696C193.474 95.592 192.41 95.7258 191.902 95.7372C191.998 96.0945 192.109 96.7632 191.826 97.3249C191.625 97.7213 191.267 97.9897 190.763 98.1235C190.446 98.2075 189.767 98.3489 188.767 98.3489C187.832 98.3489 186.503 98.2161 184.976 97.6993C184.974 97.6162 184.971 97.5341 184.968 97.45L184.967 97.451Z" fill="#020000"/>
<path id="Vector_28" d="M193.253 89.3513C193.224 89.3513 193.196 89.3447 193.169 89.3303L186.496 85.8092C186.408 85.7624 186.375 85.6526 186.422 85.5647C186.468 85.4758 186.578 85.4434 186.665 85.4892L193.338 89.0103C193.427 89.0571 193.46 89.167 193.413 89.2549C193.381 89.316 193.319 89.3513 193.254 89.3513H193.253Z" fill="#020000"/>
<path id="Vector_29" d="M191.678 92.2706C191.649 92.2706 191.62 92.2639 191.595 92.2496L185.896 89.2835C185.808 89.2386 185.772 89.1287 185.818 89.0408C185.864 88.953 185.974 88.9176 186.062 88.9635L191.761 91.9296C191.85 91.9764 191.884 92.0843 191.838 92.1732C191.806 92.2352 191.743 92.2706 191.678 92.2706Z" fill="#020000"/>
<path id="Vector_30" d="M190.519 95.5605C190.493 95.5605 190.467 95.5557 190.444 95.5443L184.744 92.903C184.654 92.8619 184.614 92.7539 184.657 92.6622C184.699 92.5724 184.806 92.5323 184.896 92.5743L190.595 95.2147C190.686 95.2567 190.725 95.3637 190.683 95.4554C190.654 95.5223 190.588 95.5605 190.52 95.5605H190.519Z" fill="#020000"/>
<path id="Vector_31" d="M173.654 89.3055C173.622 89.3055 173.591 89.2969 173.561 89.2797C173.475 89.2281 173.448 89.1173 173.498 89.0323L180.448 77.3561C180.499 77.2692 180.609 77.2424 180.695 77.2931C180.781 77.3446 180.809 77.4545 180.758 77.5405L173.809 89.2166C173.774 89.274 173.714 89.3055 173.653 89.3055H173.654Z" fill="#020000"/>
</g>
<path id="Vector_32" d="M187.509 60.8826C187.601 60.8826 187.675 60.8081 187.675 60.7174L187.734 49.6564C187.734 49.5637 187.661 49.4892 187.569 49.4883C187.477 49.4883 187.403 49.5628 187.403 49.6545L187.344 60.7155C187.344 60.8072 187.417 60.8826 187.509 60.8826Z" fill="#020000"/>
<path id="Vector_33" d="M174.882 72.2999C174.93 72.2999 174.977 72.2799 175.01 72.2397C175.069 72.1691 175.06 72.0649 174.989 72.0057C174.83 71.872 171.054 68.7244 169.29 68.3241C169.2 68.3041 169.111 68.3604 169.09 68.4493C169.07 68.5391 169.127 68.6279 169.217 68.6489C170.903 69.032 174.737 72.2292 174.776 72.2617C174.808 72.2875 174.845 72.3009 174.883 72.3009L174.882 72.2999Z" fill="#020000"/>
</g>
<g id="Group_8">
<path id="Vector_34" d="M231.2 38.4138C231.2 38.4138 227.252 36.4765 226.406 38.6545C225.56 40.8325 231.296 42.0428 231.296 42.0428C231.296 42.0428 232.297 41.5098 231.201 38.4147L231.2 38.4138Z" fill="#999999"/>
<path id="Vector_35" d="M251.683 40.9282C251.683 40.9282 262.963 48.4576 258.788 55.0193C254.612 61.58 245.138 54.9715 242.866 52.8709C242.866 52.8709 248.378 43.388 251.682 40.9282H251.683Z" fill="#999999"/>
<path id="Vector_36" d="M221.176 51.7818C221.226 52.1334 221.276 52.4782 221.326 52.8145C221.756 55.6755 222.185 57.8831 222.185 57.8831C227.024 58.418 232.494 58.9109 237.678 59.1316C237.984 59.144 238.289 59.1555 238.591 59.1679C247.649 59.4984 255.648 58.9491 257.58 56.2754C260.672 51.9939 252.268 47.4745 242.992 44.6202C233.715 41.7659 221.776 40.0369 221.776 40.0369C219.824 39.6423 220.423 46.462 221.177 51.7828L221.176 51.7818Z" fill="#999999"/>
<g id="Group_9">
<g id="Group_10">
<path id="Vector_37" d="M210.291 34.6272C215.45 38.837 223.044 38.068 227.254 32.9096C231.465 27.7512 230.696 20.1569 225.536 15.9461C220.378 11.7362 212.784 12.5052 208.574 17.6627C204.363 22.8201 205.132 30.4164 210.291 34.6262V34.6272Z" fill="#808080"/>
<path id="Vector_38" d="M208.788 36.467C211.357 38.5696 214.469 39.6605 217.605 39.7235C220.738 39.7952 223.89 38.8418 226.546 36.8568C227.062 36.4699 227.552 36.0496 228.006 35.5997C228.074 35.6809 228.15 35.7544 228.234 35.8213L239.384 44.9182C240.07 44.0681 240.697 43.173 241.345 42.2932L230.305 33.2841C230.225 33.2134 230.134 33.1571 230.043 33.1093C233.982 27.009 232.7 18.725 227.04 14.1072C221.894 9.90885 214.594 9.74741 209.282 13.7175C208.339 14.4234 207.48 15.243 206.73 16.162C201.7 22.3292 202.622 31.4376 208.789 36.469L208.788 36.467ZM206.191 26.4712C205.876 23.3446 206.8 20.2754 208.788 17.8394C209.396 17.0896 210.096 16.4151 210.863 15.842C215.199 12.6008 221.162 12.7307 225.364 16.162C230.394 20.2687 231.145 27.7044 227.042 32.7387C226.426 33.4876 225.731 34.1582 224.964 34.7313C220.628 37.9725 214.665 37.8436 210.467 34.4151C208.028 32.4225 206.511 29.6016 206.192 26.4702L206.191 26.4712Z" fill="#020000"/>
</g>
<g id="Group_11">
<path id="Vector_39" d="M223.032 21.9556C223.123 21.9556 223.21 21.904 223.251 21.8162L224.369 19.4089C224.425 19.2885 224.373 19.1452 224.252 19.0889C224.131 19.0335 223.989 19.0851 223.932 19.2054L222.815 21.6127C222.758 21.733 222.811 21.8763 222.932 21.9327C222.965 21.948 222.999 21.9556 223.033 21.9556H223.032Z" fill="#020000"/>
<path id="Vector_40" d="M219.866 21.268C219.99 21.268 220.095 21.1724 220.106 21.0464L220.335 18.1806C220.345 18.0478 220.247 17.9312 220.114 17.9207C219.987 17.9141 219.866 18.0096 219.855 18.1414L219.626 21.0072C219.616 21.14 219.714 21.2556 219.847 21.2661C219.853 21.2661 219.86 21.2661 219.866 21.2661V21.268Z" fill="#020000"/>
<path id="Vector_41" d="M216.168 21.2967C216.178 21.2967 216.188 21.2967 216.198 21.2957C216.329 21.2795 216.423 21.1601 216.408 21.0273L216.064 18.1902C216.048 18.0574 215.927 17.9685 215.795 17.98C215.664 17.9962 215.569 18.1156 215.585 18.2475L215.929 21.0846C215.944 21.2069 216.048 21.2967 216.168 21.2967Z" fill="#020000"/>
<path id="Vector_42" d="M212.93 21.9843C212.955 21.9843 212.981 21.9805 213.007 21.9709C213.133 21.9289 213.201 21.7923 213.158 21.6662L212.384 19.3736C212.342 19.2475 212.205 19.1796 212.079 19.2226C211.953 19.2647 211.885 19.4013 211.928 19.5274L212.702 21.82C212.737 21.9203 212.83 21.9833 212.931 21.9833L212.93 21.9843Z" fill="#020000"/>
<g id="Group_12">
<path id="Vector_43" d="M214.02 29.4994C215.083 29.657 216.356 29.7478 217.877 29.7478C219.217 29.7478 220.363 29.6561 221.348 29.5071C227.434 28.5575 227.291 25.1692 227.291 25.1692C227.291 25.1692 226.704 22.0044 221.166 21.0415C220.172 20.8753 219.021 20.7693 217.689 20.7693C216.286 20.7693 215.106 20.9059 214.103 21.1313C208.807 22.3359 208.59 26.1102 208.59 26.1102C208.59 26.1102 208.363 28.6865 214.019 29.4994H214.02Z" fill="white"/>
<path id="Vector_44" d="M212.143 25.3488C212.143 27.0062 212.867 28.4897 214.018 29.5004C215.082 29.658 216.355 29.7488 217.876 29.7488C219.216 29.7488 220.361 29.6571 221.347 29.508C222.5 28.4907 223.23 27.0072 223.23 25.3498C223.23 23.6924 222.424 22.0589 221.166 21.0425C220.172 20.8763 219.021 20.7703 217.689 20.7703C216.286 20.7703 215.106 20.9069 214.103 21.1323C212.906 22.1411 212.143 23.6638 212.143 25.3498V25.3488Z" fill="#020000"/>
</g>
</g>
</g>
<path id="Vector_45" d="M246.515 56.4674C246.568 56.4674 246.621 56.4416 246.652 56.3948C246.704 56.3184 246.684 56.2152 246.608 56.1636C245.711 55.5561 242.519 52.2643 242.486 52.2308C242.422 52.1649 242.317 52.163 242.251 52.227C242.185 52.291 242.184 52.397 242.248 52.463C242.38 52.5996 245.496 55.8131 246.422 56.4397C246.451 56.4588 246.483 56.4684 246.515 56.4684V56.4674Z" fill="#020000"/>
<path id="Vector_46" d="M233.349 34.0952C235.196 32.8295 236.793 30.9457 240.292 33.6414C243.79 36.3362 249.002 39.3912 249.002 39.3912C249.002 39.3912 250.038 39.9509 251.684 40.9282L242.868 52.8709C241.814 51.8401 241.227 51.267 241.227 51.267C239.938 50.1646 239.685 49.4816 239.154 48.6018C238.624 47.7201 237.487 48.0563 236.134 47.828C234.779 47.5997 234.414 45.6634 234.414 45.6634C232.784 45.6701 232.255 43.6927 232.255 43.6927C230.128 42.6419 231.031 40.847 231.031 40.847C231.031 40.847 230.575 40.4085 230.029 38.5467C229.482 36.6839 231.506 35.3638 233.351 34.0961L233.349 34.0952Z" fill="#999999"/>
<path id="Vector_47" d="M229.772 37.9172C229.883 37.942 229.996 37.9621 230.107 37.9764C230.11 38.1465 230.135 38.3194 230.187 38.4989C230.707 40.269 231.143 40.7238 231.145 40.7276L231.233 40.8126L231.178 40.9224C231.175 40.9291 230.855 41.5778 231.094 42.2913C231.265 42.8024 231.679 43.2237 232.328 43.5437L232.396 43.5771L232.415 43.6497C232.42 43.6679 232.926 45.4962 234.412 45.4962H234.551L234.577 45.6319C234.58 45.65 234.937 47.4564 236.161 47.6628C236.568 47.7316 236.951 47.7478 237.322 47.7631C238.161 47.7984 238.885 47.829 239.297 48.5139C239.388 48.6658 239.47 48.811 239.553 48.9543C239.947 49.6469 240.288 50.2439 241.344 51.1466L242.444 52.2213C242.402 52.3369 242.366 52.4544 242.326 52.5709L241.12 51.3921C240.029 50.4588 239.658 49.8083 239.264 49.1186C239.184 48.9782 239.103 48.8349 239.013 48.6859C238.693 48.1538 238.113 48.1289 237.31 48.0955C236.947 48.0802 236.536 48.063 236.107 47.9904C234.854 47.7793 234.394 46.2843 234.281 45.8249C232.829 45.7389 232.235 44.1694 232.117 43.8083C231.423 43.451 230.973 42.9763 230.78 42.3955C230.554 41.723 230.743 41.1097 230.837 40.8728C230.678 40.6626 230.297 40.0512 229.868 38.5907C229.799 38.3566 229.772 38.1331 229.773 37.9153L229.772 37.9172Z" fill="#020000"/>
<path id="Vector_48" d="M231.591 40.5363C231.614 40.522 231.636 40.5048 231.654 40.4819C231.685 40.4418 234.798 36.5156 235.823 35.7648C235.927 35.6884 235.949 35.5441 235.873 35.44C235.797 35.3368 235.648 35.313 235.548 35.3894C234.473 36.1775 231.419 40.0281 231.29 40.1934C231.21 40.2937 231.227 40.4389 231.328 40.5191C231.406 40.5812 231.511 40.5841 231.592 40.5354L231.591 40.5363Z" fill="#020000"/>
<path id="Vector_49" d="M233.236 43.3029C233.256 43.2914 233.273 43.2761 233.289 43.2599C233.325 43.2198 236.907 39.2554 237.804 38.3565C237.894 38.2658 237.894 38.1177 237.804 38.0279C237.712 37.9372 237.567 37.9381 237.475 38.0279C236.57 38.9354 233.091 42.7842 232.944 42.9485C232.858 43.043 232.866 43.1901 232.96 43.2761C233.039 43.3468 233.151 43.3554 233.236 43.3029Z" fill="#020000"/>
<path id="Vector_50" d="M235.345 45.2173C235.366 45.2049 235.386 45.1896 235.402 45.1686C235.435 45.1294 238.669 41.3313 239.509 40.6215C239.607 40.5394 239.62 40.3922 239.537 40.2948C239.454 40.1964 239.307 40.183 239.21 40.2671C238.34 41.0007 235.181 44.7091 235.048 44.8676C234.965 44.9651 234.976 45.1122 235.074 45.1953C235.152 45.2622 235.262 45.2689 235.345 45.2182V45.2173Z" fill="#020000"/>
<path id="Vector_51" d="M242.867 53.0371C242.918 53.0371 242.969 53.0132 243.001 52.9693L251.817 41.0266C251.872 40.9531 251.856 40.8489 251.782 40.7935C251.708 40.7391 251.603 40.7544 251.549 40.8289L242.734 52.7716C242.679 52.8461 242.695 52.9502 242.769 53.0046C242.799 53.0266 242.833 53.0371 242.867 53.0371Z" fill="#020000"/>
<path id="Vector_52" d="M237.837 47.0962C237.886 47.0962 237.935 47.0742 237.968 47.0331L241.794 42.2062C241.851 42.1345 241.839 42.0295 241.766 41.9721C241.694 41.9158 241.589 41.9272 241.532 41.9998L237.706 46.8268C237.649 46.8984 237.661 47.0035 237.734 47.0608C237.764 47.0847 237.801 47.0971 237.837 47.0971V47.0962Z" fill="#020000"/>
<g id="Group_13">
<path id="Vector_53" d="M241.262 42.7412L241.762 43.1491L247.372 47.7296C247.71 48.0066 247.925 48.404 247.972 48.8358C248.016 49.2714 247.887 49.6965 247.606 50.0385C247.523 50.1407 247.424 50.2362 247.318 50.3155C246.714 50.7673 245.886 50.7463 245.302 50.2687L239.688 45.6834L239.242 45.3195C239.597 44.8638 240.937 43.129 241.263 42.7422L241.262 42.7412Z" fill="#020000"/>
<path id="Vector_54" d="M239.687 45.6815L245.301 50.2668C245.885 50.7444 246.713 50.7654 247.317 50.3136C247.423 50.2343 247.523 50.1388 247.604 50.0366C247.886 49.6946 248.014 49.2695 247.971 48.8339C247.924 48.4021 247.71 48.0057 247.371 47.7277L241.761 43.1472L239.687 45.6806V45.6815Z" fill="#CCCCCC"/>
</g>
<path id="Vector_55" d="M179.769 68.5771C179.973 68.4081 180.175 68.2323 180.387 68.0613C180.441 68.0164 180.496 67.9705 180.551 67.9237C180.974 63.8801 183.1 46.3969 188.493 44.965C188.502 44.9602 188.514 44.9573 188.524 44.9554C190.195 44.5294 192.096 45.7712 194.182 48.6399C193.928 49.0229 193.688 49.4461 193.459 49.9075C190.267 56.3823 190.227 69.7769 194.965 76.6959C196.917 79.5531 198.469 80.3116 199.565 80.3116C200.11 80.3116 200.541 80.1243 200.855 79.9123C204.813 77.2576 203.957 62.1511 195.477 49.2608C195.336 49.0468 195.196 48.8405 195.058 48.6399C195.812 47.634 196.826 46.7943 198.115 46.7255C199.833 46.6252 201.779 47.91 203.834 50.4529C202.14 54.5462 203.224 62.6602 206.545 67.3458C209.035 70.8612 211.754 72.658 213.155 71.718C215.429 70.1887 212.817 62.9248 206.343 52.7561C205.777 51.8658 205.218 51.0643 204.664 50.3517C204.928 49.8187 205.246 49.4003 205.612 49.1118C207.199 47.8699 209.763 49.1452 212.829 52.7035C214.708 54.8844 216.238 55.8597 217.634 55.7957C219.197 55.7155 220.253 54.3476 221.326 52.8163C221.406 52.7016 221.486 52.588 221.567 52.4714C222.799 50.7042 224.072 48.8749 226.077 48.8729H226.082C228.817 48.8729 232.62 52.2336 237.677 59.1334C237.984 59.1458 238.289 59.1573 238.591 59.1697C233.155 51.6671 229.159 48.1584 226.082 48.1584H226.077C223.82 48.1603 222.404 50.0279 221.177 51.7836C221.113 51.8763 221.046 51.9718 220.982 52.0645C219.926 53.5814 218.93 55.0134 217.6 55.0831C216.455 55.1423 215.071 54.2129 213.371 52.2383C209.075 47.2528 206.542 47.4811 205.174 48.551C204.789 48.8529 204.458 49.2579 204.179 49.7451C202.036 47.1621 199.99 45.9011 198.078 46.0129C196.798 46.0817 195.626 46.7742 194.624 48.0371C192.447 45.1111 190.385 43.8339 188.487 44.2332C188.442 44.2428 188.396 44.2523 188.352 44.2638C181.941 45.8906 179.943 66.6274 179.77 68.5781L179.769 68.5771ZM204.347 51.113C204.807 51.7273 205.273 52.3998 205.741 53.1372C213.747 65.7133 213.833 70.4017 212.759 71.1229C211.871 71.7199 209.523 70.3138 207.126 66.9312C205.351 64.4265 204.117 60.6542 203.827 56.8408C203.653 54.5644 203.846 52.5641 204.347 51.113ZM194.626 49.2722C194.712 49.3955 194.797 49.5244 194.883 49.6534C203.538 62.8093 203.684 77.1554 200.459 79.3191C199.207 80.1587 197.467 79.0841 195.553 76.2937C190.946 69.563 190.991 56.5275 194.1 50.2218C194.252 49.9132 194.429 49.5923 194.626 49.2722Z" fill="white"/>
<path id="Vector_56" d="M222.237 57.0175H222.24C222.332 57.0156 222.406 56.9392 222.404 56.8475L222.225 47.6302C222.223 47.5385 222.149 47.4592 222.056 47.4668C221.964 47.4687 221.891 47.5452 221.893 47.6369L222.071 56.8542C222.073 56.9449 222.147 57.0175 222.237 57.0175Z" fill="#020000"/>
</g>
</g>
<g id="Group_14">
<g id="Group_15">
<g id="Group_16">
<path id="Vector_57" d="M103.588 86.8585C105.472 85.8135 107.369 84.8104 109.323 83.902C110.041 83.5686 111.426 82.7843 112.133 82.408C113.074 84.9146 113.73 86.5844 113.73 86.5844C114.344 87.7756 121.016 88.5216 123.478 88.7299C125.939 88.9381 125.455 91.162 125.455 91.162C129.995 91.397 128.148 94.1185 128.148 94.1185C129.483 94.7299 129.863 96.0386 129.401 96.7254C128.94 97.4113 126.14 97.0168 126.14 97.0168C126.267 99.5511 123.161 98.1774 121.271 98.2185C119.742 98.2519 116.695 97.9013 113.206 97.8307C114.063 98.9101 116.075 100.953 114.556 102.163C113.149 103.284 107.725 97.8717 106.879 97.0101C102.98 94.9954 101.864 92.7057 101.864 92.7057L99.7852 88.5235C100.612 88.0794 102.766 87.3161 103.588 86.8585Z" fill="#B3B3B3"/>
<path id="Vector_58" d="M118.285 96.2248C118.203 96.2344 118.137 96.3012 118.131 96.3872C118.124 96.4827 118.197 96.5668 118.293 96.5735L125.367 97.054C125.464 97.0635 125.548 96.9881 125.553 96.8916C125.56 96.7961 125.488 96.712 125.391 96.7053L118.316 96.2239C118.306 96.2239 118.295 96.2239 118.285 96.2239V96.2248Z" fill="#020000"/>
<path id="Vector_59" d="M118.661 93.5625C118.578 93.572 118.511 93.6408 118.507 93.7277C118.503 93.8233 118.576 93.9064 118.673 93.9112L127.492 94.3678C127.59 94.3744 127.672 94.299 127.676 94.2035C127.682 94.106 127.607 94.0239 127.511 94.0191L118.691 93.5615C118.68 93.5615 118.67 93.5615 118.66 93.5615L118.661 93.5625Z" fill="#020000"/>
<path id="Vector_60" d="M118.924 90.8916C118.84 90.9012 118.773 90.9709 118.77 91.0578C118.765 91.1533 118.84 91.2355 118.937 91.2403L124.586 91.4934C124.683 91.4992 124.764 91.4237 124.769 91.3272C124.773 91.2307 124.698 91.1486 124.602 91.1447L118.952 90.8916C118.943 90.8916 118.933 90.8916 118.925 90.8916H118.924Z" fill="#020000"/>
<path id="Vector_61" d="M107.895 97.0226C107.825 97.0312 107.763 97.0828 107.746 97.1563C107.723 97.25 107.782 97.3445 107.875 97.3675C108.923 97.6187 112.12 97.8031 112.256 97.8107C112.352 97.8155 112.435 97.7429 112.44 97.6464C112.446 97.549 112.373 97.4668 112.276 97.4611C112.244 97.4601 108.974 97.2719 107.956 97.0274C107.935 97.0226 107.915 97.0207 107.895 97.0236V97.0226Z" fill="#020000"/>
</g>
<path id="Vector_62" d="M112.133 82.4049C112.133 82.4049 103.84 87.3398 99.785 88.5196C99.785 88.5196 94.8081 76.9313 92.1868 71.9744C90.1894 68.1973 87.4086 64.4374 86.2011 62.8651C85.8248 62.3769 85.6022 62.098 85.6022 62.098C85.6022 62.098 84.8877 55.5009 84.5333 49.5688C84.5199 49.3252 84.5065 49.0787 84.4931 48.837C84.2381 44.1849 84.2371 40.1441 85.0281 40.3333C85.0281 40.3333 94.5368 42.5505 99.1669 51.2529C99.2128 51.3398 99.7143 52.5234 100.492 54.3852C100.582 54.6039 100.679 54.8323 100.779 55.0701C104.253 63.3924 112.134 82.404 112.134 82.404L112.133 82.4049Z" fill="#B3B3B3"/>
<path id="Vector_63" d="M95.9926 71.0669C96.0336 71.0688 96.0747 71.0574 96.111 71.0316C97.3739 70.1222 101.8 68.2613 101.845 68.2422C101.94 68.2021 101.986 68.0913 101.945 67.9958C101.905 67.9002 101.794 67.8544 101.698 67.8955C101.515 67.9719 97.1886 69.7917 95.8904 70.7259C95.8063 70.787 95.7872 70.9045 95.8483 70.9896C95.8837 71.0383 95.9372 71.065 95.9926 71.0669Z" fill="#020000"/>
<path id="Vector_64" d="M100.349 89.7568C100.379 89.7568 100.41 89.752 100.439 89.7377L112.6 83.7845C112.693 83.7386 112.732 83.6259 112.687 83.5323C112.641 83.4387 112.528 83.3995 112.435 83.4463L100.274 89.3985C100.18 89.4444 100.142 89.5571 100.188 89.6507C100.22 89.7147 100.283 89.753 100.349 89.7558V89.7568Z" fill="#020000"/>
<path id="Vector_65" d="M75.0055 37.82C75.0055 37.82 74.9988 37.82 74.9912 37.819L75.1221 31.4876L64.8969 31.3452L64.7823 37.0682L58.041 38.7151C58.041 38.7151 61.1829 48.1597 69.5634 48.3326C77.9439 48.5065 81.1383 40.0104 81.1383 40.0104L75.0055 37.82Z" fill="#B3B3B3"/>
<path id="Vector_66" d="M75.1221 31.4876L75.0419 35.3239C67.5927 39.8891 65.0985 32.5441 64.8865 31.8639L64.897 31.3452L75.1221 31.4876Z" fill="#020000"/>
<path id="Vector_67" d="M51.2109 80.0752L87.9293 83.0662L85.0272 40.3344C84.9995 40.3239 75.0056 37.8202 75.0056 37.8202C77.5618 44.7334 72.1121 47.4731 68.1879 46.9363C63.5491 46.3029 64.7833 37.0703 64.7833 37.0703L57.8825 37.3187L51.2119 80.0762L51.2109 80.0752Z" fill="#B3B3B3"/>
<g id="Group_17">
<g id="Group_18">
<path id="Vector_68" d="M72.1861 19.8861C72.1861 19.8861 67.6687 16.299 72.1536 15.0104C72.1536 15.0104 71.1945 6.87539 78.0648 11.4177C78.0648 11.4177 88.6969 9.35238 86.2867 17.5227C86.2867 17.5227 89.1124 19.1782 86.6077 21.8491C86.6077 21.8491 86.9086 26.6474 82.0482 24.9079C82.0482 24.9079 78.8662 26.1344 77.078 22.9868L72.1861 19.887V19.8861Z" fill="#B3B3B3"/>
<path id="Vector_69" d="M72.0389 22.0641C72.0389 22.0641 76.3596 23.1407 75.9125 28.0001C75.4655 32.8605 73.2989 37.3464 68.5742 36.267C63.5008 35.1063 63.4053 30.9242 64.8238 25.5413C66.2424 20.1603 71.0493 21.7403 72.0389 22.0641Z" fill="#B3B3B3"/>
<path id="Vector_70" d="M75.5896 28.2734C75.5896 28.2734 77.4075 27.1175 77.8717 28.8398C78.336 30.5612 75.6508 32.7316 75.1416 31.0035L75.5896 28.2734Z" fill="#B3B3B3"/>
<path id="Vector_71" d="M71.4372 28.5905C71.3493 28.9993 71.441 29.3661 71.6416 29.4101C71.8422 29.4531 72.0753 29.1569 72.1632 28.7462C72.2511 28.3364 72.1594 27.9695 71.9597 27.9256C71.7591 27.8836 71.5251 28.1797 71.4372 28.5905Z" fill="#020000"/>
<path id="Vector_72" d="M76.0281 30.0864C75.9488 30.0606 75.9039 29.9756 75.9297 29.8953C76.1045 29.3308 76.3605 28.9869 76.6929 28.8761C77.0636 28.7528 77.375 28.9725 77.3883 28.9821C77.4571 29.0318 77.4724 29.1273 77.4227 29.197C77.3731 29.2648 77.2785 29.2811 77.2088 29.2324C77.2002 29.2257 77.0062 29.0948 76.7865 29.1693C76.5582 29.2476 76.3624 29.5304 76.222 29.9861C76.1971 30.0673 76.1112 30.1131 76.03 30.0873H76.0271L76.0281 30.0864Z" fill="#020000"/>
<path id="Vector_73" d="M68.4814 30.178C68.4766 30.1761 68.4719 30.1742 68.4671 30.1714C68.148 30.03 67.6465 29.6727 67.7869 29.2314C67.8232 29.1177 67.8997 29.0327 68.0105 28.9849C68.3677 28.8292 69.0135 29.1273 69.0871 29.1607C69.1644 29.197 69.1969 29.2887 69.1606 29.3661C69.1243 29.4425 69.0336 29.475 68.9562 29.4387C68.7126 29.324 68.298 29.1941 68.1327 29.2667C68.1041 29.2792 68.0898 29.2944 68.0802 29.324C68.0028 29.5638 68.4346 29.8189 68.5922 29.8896C68.6696 29.9249 68.705 30.0147 68.6696 30.093C68.6371 30.1647 68.5559 30.2 68.4824 30.1771L68.4814 30.178Z" fill="#020000"/>
<path id="Vector_74" d="M67.6858 32.6006C66.7859 32.3083 66.144 31.8574 65.7734 31.2566C65.269 30.437 65.4667 29.6489 65.4763 29.6164C65.4973 29.5352 65.5814 29.4855 65.6626 29.5065C65.7447 29.5275 65.7934 29.6116 65.7724 29.6938C65.7705 29.7014 65.6014 30.3959 66.038 31.1009C66.4497 31.7648 67.2492 32.2281 68.4156 32.4784C71.5775 33.1585 72.0848 31.0474 72.0896 31.0264C72.1087 30.9432 72.1899 30.8917 72.273 30.9098C72.3542 30.9261 72.4077 31.0101 72.3895 31.0932C72.3838 31.1181 71.8077 33.5225 68.3516 32.7802C68.1166 32.7286 67.895 32.6694 67.6868 32.6016L67.6858 32.6006Z" fill="#020000"/>
<path id="Vector_75" d="M71.7045 27.0696C71.6959 27.0677 71.6845 27.0629 71.6759 27.0562C71.6023 27.0151 71.5765 26.9205 71.6186 26.8479C71.7934 26.5413 71.9873 26.3971 72.1946 26.4171C72.548 26.4515 72.7305 26.953 72.7639 27.0533C72.7907 27.1336 72.7477 27.2205 72.6675 27.2482C72.5872 27.2749 72.4993 27.232 72.4726 27.1517C72.4143 26.9788 72.2767 26.7352 72.1631 26.7238C72.0914 26.7171 71.9883 26.8212 71.8841 26.9998C71.8469 27.0638 71.7714 27.0915 71.7036 27.0696H71.7045Z" fill="#020000"/>
<path id="Vector_76" d="M66.4927 25.9414C66.4727 25.9357 66.4536 25.9252 66.4354 25.909C66.3733 25.8507 66.3695 25.7542 66.4268 25.6921C66.4985 25.6147 66.8691 25.2374 67.2044 25.3444L67.2082 25.3463C67.405 25.4122 67.5225 25.6243 67.5569 25.9758C67.5645 26.0599 67.5034 26.1344 67.4184 26.142C67.3334 26.1506 67.2589 26.0885 67.2503 26.0054C67.2302 25.7972 67.1777 25.6606 67.1098 25.6377C67.0038 25.6033 66.7736 25.7704 66.6532 25.9004C66.6122 25.9462 66.5491 25.9605 66.4937 25.9414H66.4927Z" fill="#020000"/>
<path id="Vector_77" d="M75.8819 28.1385C75.8819 28.1385 75.1664 29.194 74.7231 27.9331C74.2799 26.6721 74.8206 24.5304 72.7343 24.5514C70.648 24.5715 69.8303 24.6049 68.4624 23.8512C67.0935 23.0956 65.6013 23.8216 65.0396 24.8332C65.0396 24.8332 63.2485 17.5484 71.588 19.3892C79.9274 21.23 77.5373 26.0999 75.8819 28.1394V28.1385Z" fill="#B3B3B3"/>
<path id="Vector_78" d="M74.4892 25.779C74.1997 25.6854 73.8616 25.2804 73.3696 24.6881C72.8022 24.0061 72.0953 23.1578 71.2518 22.5684C70.9184 22.3353 70.7761 22.2847 70.7216 22.2742C70.7149 22.3764 70.7885 22.6372 70.8391 22.8158C70.9748 23.2934 71.1267 23.8332 70.8372 24.093C70.629 24.2793 70.2669 24.2573 69.6976 24.0252C67.0525 22.9419 67.1222 21.1584 67.127 21.0839C67.1318 20.9989 67.2034 20.9339 67.2884 20.9387C67.3725 20.9435 67.4374 21.0171 67.4327 21.1002C67.4298 21.1689 67.3839 22.7461 69.8141 23.7405C70.4054 23.9851 70.5841 23.9086 70.6337 23.8647C70.7809 23.7329 70.6385 23.2314 70.5449 22.9008C70.4226 22.47 70.3338 22.1576 70.5344 22.0153C70.6987 21.8988 70.949 21.9838 71.4285 22.3172C72.3055 22.9314 73.0267 23.7969 73.6056 24.4923C73.9925 24.9575 74.4729 25.5364 74.6229 25.4934C74.6229 25.4934 74.7118 25.4638 74.7643 25.075C74.7758 24.9919 74.8522 24.9327 74.9372 24.9441C75.0194 24.9566 75.0805 25.032 75.0681 25.1161C75.0318 25.3912 74.9573 25.7169 74.7079 25.7886C74.6363 25.8096 74.5647 25.8058 74.4892 25.7809V25.779Z" fill="#020000"/>
<path id="Vector_79" d="M67.2283 27.8892C67.2502 27.8892 67.2732 27.8863 67.2951 27.8768C67.3754 27.8434 67.4145 27.7517 67.3811 27.6705C67.2187 27.2798 66.6895 26.6149 65.8393 26.9015C65.7562 26.9292 65.7123 27.0199 65.74 27.1021C65.7677 27.1852 65.8575 27.231 65.9406 27.2014C66.7239 26.9368 67.0735 27.7564 67.0878 27.7908C67.1127 27.8491 67.1681 27.8854 67.2273 27.8883L67.2283 27.8892Z" fill="#020000"/>
</g>
<path id="Vector_80" d="M77.3855 23.3881C77.3224 23.3862 77.266 23.3451 77.246 23.2811C76.3442 20.4526 72.1573 19.6578 72.1153 19.6492C72.0322 19.6349 71.9768 19.5546 71.992 19.4715C72.0073 19.3875 72.0876 19.3311 72.1707 19.3483C72.3503 19.3808 76.5821 20.1861 77.5383 23.1875C77.5641 23.2677 77.5192 23.3547 77.4389 23.3805C77.4217 23.3862 77.4036 23.3891 77.3864 23.3881H77.3855Z" fill="#020000"/>
</g>
<path id="Vector_81" d="M68.9578 41.6172C70.7432 41.6917 72.8142 40.4556 75.1269 37.9318C75.189 37.864 75.1842 37.7589 75.1173 37.6978C75.0495 37.6366 74.9454 37.6414 74.8843 37.7083C72.3442 40.4795 70.1385 41.6516 68.3264 41.194C65.858 40.5693 64.9514 37.0635 64.9428 37.0281C64.9209 36.9393 64.8301 36.8858 64.7422 36.9078C64.6534 36.9297 64.5999 37.0195 64.6219 37.1084C64.6601 37.2603 65.5867 40.8415 68.2442 41.514C68.4764 41.5723 68.7142 41.6076 68.9578 41.6172Z" fill="#020000"/>
<g id="Group_19">
<g id="Group_20">
<path id="Vector_82" d="M28.4931 34.002C28.4931 34.002 24.7876 26.0036 26.4307 20.6302C28.0747 15.2578 31.185 7.52021 32.7584 7.60714C34.8141 7.71986 34.2381 9.67719 34.2381 9.67719C34.2381 9.67719 35.4465 6.25831 37.5089 7.36928C39.5713 8.48025 37.9569 10.3191 37.9569 10.3191C37.9569 10.3191 39.448 7.59281 40.8466 7.97396C42.246 8.35511 42.4027 9.98097 41.4197 12.1618C41.4197 12.1618 42.5183 10.5876 43.8833 11.3164C45.2484 12.0453 44.7746 14.0294 43.762 16.5226C42.7494 19.0158 43.4716 21.8463 43.4716 21.8463L28.4931 34.002Z" fill="#B3B3B3"/>
<path id="Vector_83" d="M33.257 12.2316C33.2379 12.2316 33.2188 12.2268 33.1997 12.2192C33.1156 12.1839 33.0755 12.0864 33.1118 12.0024L33.9429 10.0288C33.9782 9.94472 34.0747 9.90555 34.1588 9.93994C34.2428 9.97529 34.2829 10.0727 34.2466 10.1568L33.4156 12.1304C33.3879 12.1963 33.3229 12.2345 33.256 12.2316H33.257Z" fill="#020000"/>
<path id="Vector_84" d="M37.0016 13.5891C36.9845 13.5891 36.9673 13.5853 36.951 13.5795C36.865 13.547 36.8221 13.4525 36.8536 13.3665L38.0964 10.0126C38.1279 9.92756 38.2234 9.88266 38.3084 9.91514C38.3944 9.94666 38.4374 10.0412 38.4059 10.1272L37.1631 13.4821C37.1373 13.5509 37.0704 13.5929 37.0007 13.5891H37.0016Z" fill="#020000"/>
<path id="Vector_85" d="M40.4089 14.9924C40.3917 14.9924 40.3745 14.9886 40.3573 14.9819C40.2723 14.9494 40.2293 14.8539 40.2618 14.7689L41.1473 12.4428C41.1798 12.3578 41.2754 12.3148 41.3604 12.3473C41.4454 12.3797 41.4884 12.4753 41.4559 12.5603L40.5704 14.8864C40.5446 14.9542 40.4777 14.9953 40.4089 14.9924Z" fill="#020000"/>
</g>
<path id="Vector_86" d="M43.0263 29.9612C43.0263 29.9612 45.1451 35.0126 47.3183 40.4987C49.7428 46.62 50.6617 55.3234 46.7671 57.6772C38.5108 62.6684 34.3783 54.4723 29.239 36.1389C29.239 36.1389 37.8297 29.7434 43.0263 29.9602V29.9612Z" fill="#B3B3B3"/>
<path id="Vector_87" d="M57.0438 50.312C56.9789 50.5671 56.9111 50.8193 56.847 51.0648C56.0876 53.9611 55.4075 56.1582 55.4075 56.1582C50.5977 58.1614 43.1763 60.4512 39.7937 58.4193C36.4121 56.3875 39.9399 45.9264 45.5024 41.5246C46.8244 40.4786 48.2564 39.6924 49.6616 39.1039C49.9147 38.997 50.164 38.8986 50.4114 38.805C54.3509 37.3252 57.8826 37.3167 57.8826 37.3167C59.9851 37.331 58.4614 44.7849 57.0448 50.312H57.0438Z" fill="#B3B3B3"/>
<path id="Vector_88" d="M49.4571 45.8739C49.396 45.872 49.3377 45.8338 49.3119 45.7746L47.2658 41.0221C47.2295 40.9381 47.2686 40.8406 47.3527 40.8043C47.4367 40.768 47.5332 40.8072 47.5695 40.8913L49.6157 45.6437C49.652 45.7277 49.6128 45.8252 49.5297 45.8605C49.5058 45.871 49.482 45.8749 49.4581 45.8739H49.4571Z" fill="#020000"/>
<g id="Group_21">
<g id="Group_22">
<path id="Vector_89" d="M7.28316 0.0966797L63.4526 23.8206C63.4526 23.8206 65.2408 26.9892 61.6614 31.2296L1.58789 20.929L7.28316 0.0966797Z" fill="#020000"/>
<path id="Vector_90" d="M37.4131 27.7726C37.8172 27.8796 38.2585 27.7115 38.482 27.3342C42.7272 20.1793 41.8904 14.6521 41.8522 14.42C41.7672 13.8975 41.2752 13.5431 40.7527 13.6281C40.2311 13.7131 39.8767 14.2031 39.9598 14.7247C39.9722 14.804 40.6877 19.8602 36.8333 26.3569C36.5629 26.8126 36.7138 27.3991 37.1686 27.6695C37.2469 27.7163 37.329 27.7507 37.4121 27.7726H37.4131Z" fill="#CCCCCC"/>
<path id="Vector_91" d="M57.2788 31.4123C57.6667 31.5154 58.0937 31.3645 58.3258 31.0101C61.6329 25.9491 60.6652 22.1806 60.6222 22.024C60.4837 21.5129 59.9583 21.211 59.4473 21.3496C58.9391 21.4881 58.6372 22.0096 58.7719 22.5188C58.8072 22.6583 59.5199 25.6817 56.7219 29.9631C56.4325 30.4064 56.5566 30.9996 56.9999 31.2891C57.0887 31.3464 57.1823 31.3874 57.2798 31.4132L57.2788 31.4123Z" fill="#CCCCCC"/>
<path id="Vector_92" d="M0.990918 9.594C-0.535591 15.3628 -0.269073 20.4381 1.58796 20.9291C3.44499 21.4211 6.18754 17.1425 7.71501 11.3737C9.24247 5.60578 8.975 0.530472 7.11797 0.0385116C5.2619 -0.453448 2.51838 3.82517 0.991874 9.594H0.990918Z" fill="#020000"/>
<path id="Vector_93" d="M2.0187 9.61209C0.802656 14.2088 1.01472 18.2524 2.49442 18.6441C3.97412 19.0357 6.15976 15.6274 7.37581 11.0297C8.59282 6.43393 8.37979 2.39031 6.90105 1.99865C5.42135 1.607 3.23571 5.01632 2.0187 9.61209Z" fill="#808080"/>
<path id="Vector_94" d="M4.89897 22.3954C5.22185 22.4814 5.58007 22.3735 5.79882 22.0936C13.5727 12.1588 11.3919 1.67485 11.2944 1.23256C11.1922 0.767348 10.7328 0.473129 10.2675 0.574387C9.80233 0.6766 9.50811 1.13608 9.60936 1.60129C9.63993 1.74363 11.6813 11.7767 4.44044 21.0304C4.14718 21.4048 4.21309 21.9484 4.58851 22.2416C4.68308 22.3161 4.78911 22.3668 4.89897 22.3964V22.3954Z" fill="#CCCCCC"/>
<path id="Vector_95" d="M3.84631 6.68712C3.76607 6.68425 3.68869 6.63936 3.64761 6.56293C3.58552 6.44735 3.62946 6.30501 3.7441 6.24292L7.06745 4.46231C7.18209 4.40022 7.32537 4.44416 7.38746 4.55879C7.44956 4.67438 7.40562 4.81671 7.29098 4.87881L3.96763 6.65941C3.92942 6.68043 3.88739 6.68903 3.84631 6.68712Z" fill="#E6E6E6"/>
<path id="Vector_96" d="M2.5194 9.8175C2.43438 9.81368 2.35413 9.76401 2.31592 9.68186C2.26052 9.56436 2.31115 9.42298 2.42865 9.36758L7.57178 6.94312C7.68927 6.88772 7.83065 6.93834 7.88606 7.05584C7.94146 7.17429 7.89083 7.31472 7.77334 7.37012L2.63021 9.79458C2.59486 9.81177 2.55665 9.81846 2.5194 9.8175Z" fill="#E6E6E6"/>
<path id="Vector_97" d="M3.3312 12.0768C3.24523 12.073 3.16403 12.0224 3.12582 11.9383C3.07233 11.8199 3.12391 11.6795 3.24332 11.626L6.2543 10.2552C6.37371 10.2007 6.51318 10.2532 6.56667 10.3717C6.62112 10.4911 6.56858 10.6306 6.45013 10.6841L3.43915 12.0549C3.4038 12.0702 3.3675 12.0778 3.3312 12.0759V12.0768Z" fill="#E6E6E6"/>
<path id="Vector_98" d="M2.01204 15.3495C1.92225 15.3457 1.83914 15.2903 1.80284 15.2014C1.75412 15.0811 1.81239 14.9435 1.93371 14.8948L5.59905 13.4132C5.71941 13.3645 5.85793 13.4227 5.90665 13.5441C5.95536 13.6654 5.89709 13.8029 5.77673 13.8517L2.11139 15.3333C2.07891 15.3466 2.04548 15.3514 2.013 15.3505L2.01204 15.3495Z" fill="#E6E6E6"/>
</g>
<path id="Vector_99" d="M35.9391 14.037C35.9219 14.037 35.9038 14.0332 35.8866 14.0256L17.706 7.04354C17.621 7.01106 17.578 6.91458 17.6115 6.82956C17.6439 6.74454 17.7404 6.70156 17.8245 6.73499L36.005 13.717C36.09 13.7495 36.133 13.846 36.1006 13.931C36.0748 13.9988 36.0079 14.0399 35.9391 14.037Z" fill="#E6E6E6"/>
<path id="Vector_100" d="M56.527 22.3019C56.5079 22.3019 56.4897 22.2972 56.4716 22.2895L50.228 19.7246C50.1439 19.6903 50.1029 19.5928 50.1382 19.5088C50.1726 19.4247 50.2691 19.3836 50.3541 19.419L56.5977 21.9838C56.6817 22.0182 56.7228 22.1147 56.6875 22.1988C56.6607 22.2656 56.5948 22.3048 56.5279 22.301L56.527 22.3019Z" fill="#E6E6E6"/>
</g>
<g id="Group_23">
<path id="Vector_101" d="M43.0261 29.9612L42.7052 29.0078C42.7052 29.0078 43.9365 27.6752 45.6063 24.1962C47.2761 20.7171 48.602 18.605 46.6122 17.8169C44.6233 17.0279 42.7701 20.5939 41.9276 22.0526C41.0851 23.5112 36.2467 22.1299 31.9528 27.0352C27.6589 31.9395 28.5243 34.1949 28.5243 34.1949L29.2389 36.1417L43.0261 29.9631V29.9612Z" fill="#B3B3B3"/>
<path id="Vector_102" d="M30.0747 30.4425C30.0651 30.4425 30.0565 30.4406 30.047 30.4387C29.9581 30.4196 29.9008 30.3317 29.9199 30.2429C30.2925 28.4928 32.0483 26.5288 32.1228 26.4467C32.1839 26.3788 32.288 26.3731 32.3559 26.4342C32.4237 26.4954 32.4294 26.5995 32.3683 26.6673C32.3501 26.6874 30.5972 28.6476 30.2428 30.3116C30.2256 30.3919 30.153 30.4454 30.0747 30.4425Z" fill="#020000"/>
</g>
<path id="Vector_103" d="M29.1777 36.0472C29.1137 36.0443 29.0555 36.0051 29.0316 35.9411C29.0001 35.8571 29.043 35.7644 29.1271 35.7329L43.243 30.5267C43.3271 30.4961 43.4207 30.5391 43.4522 30.6222C43.4837 30.7063 43.4408 30.7999 43.3557 30.8305L29.2398 36.0366C29.2188 36.0443 29.1978 36.0481 29.1768 36.0472H29.1777Z" fill="#020000"/>
<path id="Vector_104" d="M100.49 54.3862C98.3637 56.2519 95.9861 57.7258 94.0574 57.3342C92.4946 57.018 91.3693 55.4447 90.713 52.6553C89.838 48.9393 87.5931 48.37 85.8632 48.5486C85.4218 48.5935 84.9614 48.6929 84.4923 48.839C81.4861 49.7628 77.9956 52.5875 74.9989 55.7016C73.8889 55.4074 72.5267 55.3147 70.9171 55.4294C70.1328 55.4867 69.3897 55.5593 68.6866 55.6462C70.2207 52.47 70.8827 49.5249 69.6686 48.0347C68.3761 46.449 65.2648 46.8158 60.4217 49.1227C59.1875 49.7093 58.0602 50.1067 57.0448 50.312C55.2451 50.6741 53.7969 50.4362 52.7165 49.5975C49.9978 47.4806 50.0886 42.0223 50.4124 38.8059C50.165 38.8995 49.9157 38.9979 49.6625 39.1049C49.3511 42.4932 49.3807 47.8933 52.2819 50.1554C53.4607 51.0743 54.9881 51.3772 56.8471 51.0648C58.0106 50.8718 59.305 50.4372 60.7245 49.7618C66.3424 47.0871 68.3914 47.5886 69.1203 48.4818C70.1586 49.7589 69.4097 52.6371 67.8307 55.7637C61.246 56.7486 58.4691 59.1253 58.1157 61.2068C57.9141 62.399 58.5006 63.4794 59.6078 63.958C60.8678 64.5005 63.0152 64.2426 64.919 61.7198C66.18 60.0519 67.3645 58.2111 68.3026 56.4123C69.127 56.2977 70.0154 56.205 70.9677 56.1363C72.3214 56.0407 73.4791 56.0952 74.4373 56.2948C73.6902 57.0973 72.9805 57.9111 72.3204 58.7117C67.5928 64.4576 64.4758 70.5636 64.3803 74.2633C64.3478 75.5052 64.6907 76.2847 65.4033 76.5817C65.5753 76.6524 65.7625 76.6906 65.9584 76.6992C67.9357 76.7814 70.9047 73.8554 71.837 72.883C75.4078 69.1469 80.0303 62.1229 78.1293 58.0802C77.6689 57.1039 76.8694 56.3904 75.7374 55.9433C78.9203 52.662 82.045 50.3885 84.5325 49.5708C85.0282 49.4045 85.4982 49.2995 85.9377 49.2536C88.0421 49.0387 89.4148 50.2356 90.0233 52.8158C90.7474 55.9022 92.059 57.6532 93.917 58.0286C96.0472 58.4576 98.5548 56.974 100.778 55.0731C100.676 54.8352 100.58 54.6069 100.49 54.3881V54.3862ZM64.3554 61.2918C62.6971 63.4861 60.9136 63.7478 59.8896 63.3055C59.091 62.9626 58.6678 62.184 58.814 61.3253C59.1024 59.6172 61.5727 57.5157 67.4189 56.5451C66.5506 58.1509 65.4845 59.794 64.3545 61.2918H64.3554ZM77.4884 58.3802C79.0359 61.673 75.468 68.0551 71.326 72.3891C68.9168 74.9091 66.6481 76.3267 65.6746 75.9245C65.1588 75.7096 65.0719 74.9119 65.0891 74.2796C65.1808 70.7269 68.2367 64.7929 72.8687 59.1616C73.6434 58.2206 74.4248 57.3313 75.2034 56.5021C76.3105 56.8747 77.0757 57.5042 77.4884 58.3811V58.3802Z" fill="white"/>
<path id="Vector_105" d="M55.3196 55.4532C55.3139 55.4532 55.3091 55.4532 55.3034 55.4512C55.2126 55.4388 55.1505 55.3548 55.163 55.264L56.6704 44.6339C56.6828 44.5431 56.7688 44.4772 56.8566 44.4934C56.9474 44.5068 57.0095 44.5899 56.9971 44.6807L55.4897 55.3108C55.4772 55.3958 55.4027 55.456 55.3187 55.4532H55.3196Z" fill="#020000"/>
</g>
<path id="Vector_106" d="M86.121 61.9977C86.034 61.9939 85.9633 61.9223 85.9624 61.8344L85.8411 49.1867C85.8411 49.095 85.9137 49.0205 86.0044 49.0195C86.0961 49.0195 86.1706 49.0921 86.1716 49.1829L86.2929 61.8305C86.2929 61.9223 86.2203 61.9968 86.1296 61.9977H86.121Z" fill="#020000"/>
</g>
<g id="Group_24">
<path id="Vector_107" d="M67.2498 80.9768L70.7852 152.353L88.3696 152.372L88.341 147.988L88.3362 147.214L88.2521 133.982L88.2474 133.133L87.9302 83.065C81.1813 81.6082 67.2498 80.9768 67.2498 80.9768Z" fill="#B3B3B3"/>
<path id="Vector_108" d="M51.2109 80.075C51.2109 80.075 46.0248 108.504 49.6118 113.415C54.9689 120.75 97.7608 126.785 97.7608 126.785L99.4708 109.448L68.783 101.698L67.8535 80.8735L51.2109 80.0759V80.075Z" fill="#B3B3B3"/>
<g id="Group_25">
<g id="Group_26">
<path id="Vector_109" d="M88.3477 157.944C88.3247 158.061 88.2989 158.175 88.2789 158.286C88.0725 159.284 87.8872 160 87.8872 160L64.874 159.812C64.8492 159.191 64.8883 158.621 64.981 158.096C65.002 157.978 65.024 157.865 65.0498 157.753C66.0356 153.342 70.7212 152.37 70.7212 152.37C76.3314 151.338 88.3677 152.373 88.3677 152.373C89.1644 152.952 88.7508 155.886 88.3467 157.944H88.3477Z" fill="#B3B3B3"/>
<path id="Vector_110" d="M88.3479 157.944C88.325 158.06 88.2992 158.175 88.2791 158.286L64.9822 158.096C65.0032 157.977 65.0252 157.864 65.051 157.753L88.3479 157.944Z" fill="black"/>
</g>
<path id="Vector_111" d="M88.4139 152.533C88.5056 152.533 88.5792 152.458 88.5792 152.365C88.5792 152.272 88.5056 152.195 88.413 152.194L70.7282 152.101C70.6365 152.093 70.561 152.174 70.561 152.269C70.561 152.362 70.6346 152.439 70.7263 152.44L88.4101 152.533H88.412H88.4139Z" fill="black"/>
</g>
<g id="Group_27">
<g id="Group_28">
<path id="Vector_112" d="M105.014 110.007C105.128 110.04 105.24 110.078 105.347 110.108C106.32 110.41 107.015 110.663 107.015 110.663L104.603 133.55C103.983 133.515 103.419 133.421 102.905 133.278C102.79 133.246 102.679 133.212 102.571 133.176C98.2752 131.768 97.7612 127.011 97.7612 127.011C97.2769 121.327 99.4702 109.447 99.4702 109.447C100.124 108.711 103.004 109.406 105.013 110.007H105.014Z" fill="#B3B3B3"/>
<path id="Vector_113" d="M105.014 110.007C105.128 110.041 105.24 110.078 105.347 110.108L102.906 133.278C102.791 133.246 102.68 133.212 102.572 133.176L105.014 110.007Z" fill="black"/>
</g>
<path id="Vector_114" d="M99.6345 109.418C99.6431 109.327 99.5753 109.246 99.4836 109.237C99.3909 109.227 99.3068 109.294 99.2982 109.385L97.4957 126.978C97.4804 127.069 97.5539 127.151 97.6476 127.161C97.7402 127.17 97.8233 127.104 97.8329 127.013L99.6355 109.42C99.6355 109.42 99.6355 109.419 99.6355 109.418H99.6345Z" fill="black"/>
</g>
<path id="Vector_115" d="M87.9312 83.2332C88.0182 83.2332 88.0917 83.1673 88.0984 83.0784C88.106 82.9867 88.0373 82.9055 87.9446 82.8969L51.2253 79.906C51.1326 79.8945 51.0514 79.9671 51.0438 80.0598C51.0362 80.1524 51.1049 80.2336 51.1985 80.2403L87.9179 83.2322C87.9179 83.2322 87.9265 83.2322 87.9312 83.2322V83.2332Z" fill="#020000"/>
<path id="Vector_116" d="M69.1432 120.233C69.1432 120.233 69.148 120.233 69.1508 120.233C69.2435 120.23 69.3161 120.151 69.3113 120.059L67.8689 87.53C67.865 87.4374 67.7858 87.3657 67.6931 87.3695C67.6004 87.3734 67.5288 87.4517 67.5326 87.5453L68.9751 120.074C68.9789 120.165 69.0534 120.234 69.1432 120.234V120.233Z" fill="#020000"/>
<path id="Vector_117" d="M88.1317 124.399C88.2243 124.399 88.2998 124.323 88.2989 124.23L88.2186 107.245C88.2186 107.152 88.1431 107.077 88.0505 107.077C87.9578 107.077 87.8824 107.154 87.8833 107.246L87.9636 124.232C87.9636 124.325 88.039 124.399 88.1317 124.399Z" fill="#020000"/>
<path id="Vector_118" d="M79.2317 139.756C79.6214 140.121 79.9959 140.453 80.3589 140.753C80.7725 143.075 83.3584 146.012 88.3411 147.988L88.3363 147.214C84.0557 145.473 82.0631 143.178 81.3485 141.52C83.4969 143.066 85.0549 143.395 85.8335 143.123C86.2328 142.984 86.4821 142.691 86.5404 142.294C86.6674 141.402 85.7934 140.211 84.1369 139.02C82.9859 138.196 81.8921 137.977 81.1374 138.424C80.6827 138.696 80.4019 139.17 80.3226 139.775C80.1277 139.602 79.929 139.422 79.7265 139.232C78.2191 137.816 77.5609 136.419 77.8714 135.299C78.0825 134.536 78.7464 133.915 79.6959 133.569C81.7794 136.441 84.7846 138.087 86.3541 138.041C87.0629 138.02 87.3275 137.659 87.4211 137.448C87.6877 136.849 87.3323 135.965 86.3656 134.813C84.5362 132.643 81.8711 132.314 80.143 132.691C80.0905 132.703 80.0398 132.715 79.9873 132.727C79.7733 132.4 79.5689 132.057 79.3788 131.694C78.8811 130.745 78.862 130.259 79.0091 130.122C79.7322 129.456 84.136 131.506 88.2532 133.982L88.2484 133.133C85.1381 131.278 79.8163 128.399 78.521 129.592C77.8074 130.251 78.5085 131.589 78.7397 132.03C78.9078 132.35 79.0884 132.659 79.2804 132.957C78.199 133.398 77.4367 134.165 77.1769 135.107C76.9056 136.09 77.0403 137.695 79.2317 139.755V139.756ZM80.441 133.367C80.7486 133.31 81.0878 133.275 81.4431 133.275C82.8588 133.275 84.5582 133.787 85.8134 135.28C86.676 136.302 86.8633 136.929 86.763 137.152C86.7028 137.289 86.4678 137.315 86.3302 137.32C85.1791 137.363 82.4557 136.027 80.441 133.366V133.367ZM81.5061 139.044C81.6533 138.96 81.8262 138.917 82.0229 138.917C82.492 138.917 83.0881 139.155 83.7147 139.607C85.4934 140.881 85.8784 141.834 85.8278 142.194C85.8153 142.275 85.7771 142.381 85.5947 142.443C84.9862 142.655 83.345 142.222 81.0352 140.372C80.975 139.74 81.146 139.262 81.5061 139.045V139.044Z" fill="white"/>
</g>
</g>
<g id="Group_29">
<path id="Vector_119" d="M142.939 35.6571C142.939 35.6571 142.933 35.6571 142.924 35.6571L142.518 29.127L131.978 29.8529L132.384 35.6208L125.428 37.8724C125.428 37.8724 130.03 43.0289 138.673 42.492C147.316 41.9542 149.441 37.39 149.441 37.39L142.939 35.659V35.6571Z" fill="#CCCCCC"/>
<path id="Vector_120" d="M158.425 81.3607L120.879 82.9617L122.244 60.6525L122.3 59.1814L123.141 37.0776L132.384 35.6208C132.384 35.6208 134.263 37.6336 137.578 37.4339C139.079 37.3451 140.96 37.7377 142.939 35.6572L153.346 37.1693C153.375 37.1712 153.406 37.176 153.439 37.1856L158.424 81.3607H158.425Z" fill="#CCCCCC"/>
<path id="Vector_121" d="M142.519 29.126L142.764 33.0827C135.482 38.4188 132.288 31.069 132.011 30.3879L131.978 29.852L142.518 29.126H142.519Z" fill="#020000"/>
<g id="Group_30">
<path id="Vector_122" d="M136.513 19.1119C136.513 19.1119 131.976 19.2934 131.416 24.2407C130.856 29.1871 132.092 34.1162 137.035 34.015C142.342 33.907 143.303 29.7497 143 24.0793C142.697 18.4108 137.57 18.9935 136.513 19.1119Z" fill="#CCCCCC"/>
<path id="Vector_123" d="M131.568 24.9887C131.568 24.9887 129.884 23.5787 129.185 25.259C128.486 26.9384 130.913 29.4899 131.658 27.8096L131.568 24.9896V24.9887Z" fill="#CCCCCC"/>
<path id="Vector_124" d="M142.815 24.9066C142.815 24.9066 144.479 23.4708 145.202 25.1406C145.926 26.8094 143.536 29.3972 142.766 27.7274L142.815 24.9066Z" fill="#CCCCCC"/>
<path id="Vector_125" d="M134.98 25.7032C134.983 26.1302 134.817 26.478 134.607 26.4799C134.398 26.4808 134.226 26.136 134.222 25.709C134.221 25.281 134.387 24.9333 134.596 24.9314C134.805 24.9314 134.978 25.2762 134.981 25.7042L134.98 25.7032Z" fill="#020000"/>
<path id="Vector_126" d="M140.313 25.6642C140.317 26.0912 140.149 26.4399 139.94 26.4399C139.731 26.4418 139.56 26.096 139.556 25.669C139.552 25.242 139.719 24.8942 139.928 24.8923C140.137 24.8923 140.309 25.2362 140.312 25.6642H140.313Z" fill="#020000"/>
<path id="Vector_127" d="M131.025 26.7665C130.945 26.7732 130.871 26.7169 130.858 26.6366C130.775 26.1542 130.615 25.8418 130.392 25.7329C130.18 25.6288 129.963 25.7396 129.961 25.7406C129.884 25.7817 129.789 25.753 129.749 25.6775C129.708 25.6011 129.737 25.5065 129.812 25.4655C129.827 25.4569 130.17 25.2763 130.529 25.4521C130.85 25.6088 131.065 25.989 131.167 26.5841C131.181 26.6701 131.124 26.7503 131.039 26.7646C131.035 26.7656 131.03 26.7665 131.025 26.7665Z" fill="#020000"/>
<path id="Vector_128" d="M143.567 26.6737C143.555 26.6737 143.542 26.6737 143.53 26.6718C143.444 26.6584 143.385 26.5791 143.399 26.4941C143.491 25.898 143.7 25.514 144.019 25.3526C144.375 25.1739 144.722 25.3487 144.736 25.3564C144.813 25.3965 144.842 25.4911 144.803 25.5675C144.763 25.6439 144.669 25.6735 144.593 25.6344C144.582 25.6296 144.367 25.5264 144.156 25.6344C143.937 25.748 143.782 26.0614 143.707 26.5428C143.695 26.6154 143.636 26.6689 143.566 26.6747L143.567 26.6737Z" fill="#020000"/>
<path id="Vector_129" d="M137.39 27.9232C137.313 27.9299 137.241 27.8783 137.224 27.7999C137.206 27.7159 137.259 27.6328 137.343 27.6137C137.515 27.5764 137.999 27.4111 137.972 27.1542C137.969 27.1227 137.958 27.1036 137.931 27.0854C137.782 26.9794 137.339 27.0224 137.074 27.0873C136.99 27.1074 136.906 27.0558 136.886 26.9717C136.866 26.8886 136.916 26.8026 137 26.7826C137.08 26.7635 137.787 26.6011 138.111 26.8304C138.212 26.901 138.271 27.0023 138.283 27.1227C138.332 27.5926 137.758 27.8448 137.41 27.9203C137.403 27.9213 137.397 27.9222 137.39 27.9232Z" fill="#020000"/>
<path id="Vector_130" d="M137.821 30.5331C137.65 30.5474 137.471 30.5551 137.287 30.556C133.681 30.5828 133.603 28.0618 133.602 28.036C133.601 27.9501 133.671 27.8794 133.755 27.8775C133.841 27.8765 133.913 27.9453 133.915 28.0313C133.917 28.123 133.998 30.2675 137.285 30.2427C138.501 30.2341 139.396 29.9361 139.944 29.36C140.526 28.7458 140.5 28.0169 140.501 28.0093C140.498 27.9233 140.573 27.8574 140.65 27.8459C140.736 27.8412 140.809 27.908 140.814 27.9931C140.816 28.0284 140.849 28.8566 140.178 29.5692C139.654 30.1233 138.864 30.4462 137.822 30.5321L137.821 30.5331Z" fill="#020000"/>
<path id="Vector_131" d="M131.359 24.8406C131.359 24.8406 129.221 19.2246 132.448 18.3066C132.448 18.3066 132.491 14.7626 136.08 16.2843C136.08 16.2843 140.26 13.707 141.593 17.2749C141.593 17.2749 145.525 18.1595 143.028 24.7489C143.028 24.7489 142.471 25.8943 142.137 24.0841C141.802 22.2738 141.819 21.3339 139.409 21.3281C137 21.3233 136.798 21.7599 135.096 21.1772C133.394 20.5926 132.765 22.25 132.654 22.8002C132.543 23.3523 131.804 25.8456 131.36 24.8397L131.359 24.8406Z" fill="#CCCCCC"/>
<path id="Vector_132" d="M141.936 23.3247C141.887 23.3295 141.835 23.3094 141.802 23.2674C141.747 23.2005 141.757 23.1021 141.825 23.0477C141.829 23.0438 142.318 22.6398 142.213 22.2233C142.14 21.9271 141.739 21.5135 140.248 21.225C139.199 21.0215 138.643 20.7417 138.371 20.457C138.347 20.4646 138.323 20.4713 138.299 20.4799C137.513 20.7178 136.688 20.6586 136.093 20.4398C135.575 20.6949 135.098 20.7445 134.665 20.585C133.712 20.2325 133.365 18.9964 133.35 18.9439C133.327 18.8598 133.376 18.7748 133.459 18.7518C133.543 18.728 133.629 18.7786 133.653 18.8607C133.655 18.8722 133.974 19.9956 134.775 20.2908C135.058 20.3959 135.374 20.3853 135.717 20.2612C135.488 20.1207 135.329 19.9517 135.269 19.7673C135.217 19.6068 135.175 19.2066 135.9 18.9601C136.995 18.5847 137.622 18.5379 137.763 18.8197C137.865 19.0231 137.782 19.3307 136.505 20.1972C136.488 20.2086 136.473 20.2191 136.458 20.2287C136.934 20.351 137.549 20.3748 138.192 20.1847C138.138 20.0501 138.134 19.9192 138.157 19.8007C138.264 19.2476 139.021 18.834 139.398 18.9056C139.721 18.9677 139.928 19.1473 139.941 19.3747C139.959 19.7195 139.546 20.0434 138.711 20.3433C139.006 20.5716 139.551 20.7703 140.309 20.9165C141.634 21.1734 142.378 21.588 142.517 22.1478C142.669 22.7582 142.047 23.2683 142.02 23.2903C141.996 23.3104 141.966 23.3218 141.935 23.3237L141.936 23.3247ZM139.27 19.2104C139.018 19.2323 138.531 19.5199 138.466 19.86C138.451 19.9373 138.46 20.0138 138.494 20.0883C139.631 19.7014 139.629 19.4043 139.628 19.3909C139.625 19.3202 139.503 19.2448 139.339 19.2132C139.319 19.2094 139.295 19.2094 139.269 19.2113L139.27 19.2104ZM137.233 18.9544C136.995 18.9744 136.594 19.0537 136.002 19.2553C135.811 19.3212 135.5 19.4616 135.568 19.6718C135.614 19.817 135.798 19.9736 136.074 20.0969C136.158 20.05 136.243 19.9975 136.33 19.9383C137.277 19.2963 137.444 19.0375 137.472 18.963C137.432 18.9505 137.353 18.9439 137.232 18.9544H137.233Z" fill="#020000"/>
<path id="Vector_133" d="M135.023 24.1308C134.953 24.1366 134.884 24.0936 134.862 24.0229C134.796 23.8213 134.712 23.6962 134.64 23.6886C134.525 23.679 134.336 23.892 134.242 24.0525C134.199 24.1261 134.103 24.1519 134.028 24.1079C133.953 24.064 133.928 23.9684 133.972 23.8939C134.026 23.8013 134.312 23.3399 134.672 23.3771C134.884 23.4001 135.048 23.5844 135.16 23.9255C135.186 24.0076 135.141 24.0964 135.059 24.1232C135.048 24.127 135.035 24.1299 135.023 24.1308Z" fill="#020000"/>
<path id="Vector_134" d="M140.462 24.0813C140.405 24.086 140.347 24.0593 140.315 24.0068C140.22 23.8491 140.03 23.6399 139.915 23.6495H139.912C139.84 23.6581 139.758 23.7842 139.695 23.9867C139.669 24.0698 139.582 24.1147 139.499 24.0899C139.417 24.0631 139.37 23.9762 139.395 23.894C139.503 23.5501 139.664 23.3639 139.875 23.3381C140.227 23.2874 140.527 23.7527 140.584 23.8444C140.628 23.9189 140.604 24.0144 140.53 24.0593C140.509 24.0717 140.485 24.0793 140.462 24.0813Z" fill="#020000"/>
<path id="Vector_135" d="M133.395 21.4849C133.387 21.4849 133.378 21.4849 133.369 21.4849C133.283 21.4772 133.218 21.4027 133.225 21.3158C133.296 20.4513 134.028 20.1637 134.408 20.1322H134.411C134.497 20.1246 134.572 20.1895 134.579 20.2755C134.586 20.3615 134.522 20.436 134.436 20.4436C134.402 20.4465 133.604 20.5248 133.538 21.3406C133.531 21.418 133.47 21.4772 133.395 21.4839V21.4849Z" fill="#020000"/>
</g>
<path id="Vector_136" d="M137.211 39.2508C137.015 39.2508 136.82 39.2375 136.627 39.2117C133.792 38.8315 132.295 35.8205 132.233 35.6935C132.192 35.6094 132.226 35.5081 132.31 35.468C132.393 35.4269 132.494 35.4613 132.535 35.5454C132.55 35.575 134.018 38.5239 136.674 38.8783C138.586 39.1314 140.651 38.0119 142.813 35.5444C142.874 35.4747 142.981 35.4671 143.051 35.5292C143.121 35.5903 143.128 35.6973 143.066 35.767C141.038 38.0816 139.07 39.2508 137.211 39.2508Z" fill="#020000"/>
<path id="Vector_137" d="M125.766 45.782C125.724 46.0303 125.679 46.2806 125.631 46.5337C124.55 52.208 122.392 58.3054 122.392 58.3054C122.392 58.3054 117.395 58.9388 111.328 59.4909C111.029 59.5196 110.726 59.5463 110.422 59.5721C102.342 60.2828 92.7565 60.791 90.524 59.4785C86.3916 57.0483 89.3968 52.0437 101.8 45.0598C114.203 38.0759 123.141 37.0786 123.141 37.0786C126.543 36.2838 126.644 40.7468 125.766 45.782Z" fill="#CCCCCC"/>
<path id="Vector_138" d="M185.701 59.4785C183.777 60.6076 176.397 60.3889 169.225 59.852C168.953 59.8329 168.684 59.8119 168.413 59.7919C160.891 59.2015 153.835 58.3055 153.835 58.3055C153.835 58.3055 151.93 52.9321 150.885 47.6008C150.839 47.362 150.793 47.1241 150.752 46.8882C149.804 41.6476 149.815 36.6841 153.439 37.1865C153.439 37.1865 162.022 38.0759 174.426 45.0598C186.829 52.0447 189.834 57.0483 185.699 59.4785H185.701Z" fill="#CCCCCC"/>
<path id="Vector_139" d="M113.801 40.9243C113.801 40.9243 117.574 40.0005 118.898 40.2422C120.223 40.4829 124.518 42.4097 125.24 38.7568L115.366 37.2322L113.8 40.9252L113.801 40.9243Z" fill="#CCCCCC"/>
<path id="Vector_140" d="M162.425 40.9243C162.425 40.9243 158.651 40.0005 157.327 40.2422C156.002 40.4829 151.708 42.4097 150.985 38.7568L160.86 37.2322L162.425 40.9252V40.9243Z" fill="#CCCCCC"/>
<path id="Vector_141" d="M161.015 48.9105C157.905 46.8538 154.305 46.1527 150.752 46.8873C150.326 46.9761 149.899 47.085 149.476 47.2149C147.46 47.8311 145.642 48.8522 144.115 50.1313C143.561 48.8064 142.89 47.4509 142.09 46.081C139.349 41.385 136.635 41.5989 134.841 42.6077C132.485 43.9298 130.486 47.277 129.022 50.9452C128.726 50.0979 128.406 49.2859 128.059 48.5227C127.445 47.1691 126.677 46.252 125.767 45.782C125.326 45.5537 124.851 45.4334 124.343 45.4162H124.228C119.557 45.4162 113.424 54.5752 110.423 59.5722C110.727 59.5454 111.03 59.5196 111.329 59.491C114.378 54.4911 120.177 46.0017 124.319 46.1393C124.794 46.1536 125.23 46.2835 125.632 46.5348C126.314 46.956 126.898 47.7145 127.402 48.8226C127.858 49.8295 128.265 50.8936 128.621 51.9941C128.105 53.3964 127.669 54.8188 127.32 56.1724C125.627 62.7379 125.537 68.8401 127.091 71.7231C127.855 73.1398 128.592 73.8524 129.292 73.8524C129.456 73.8524 129.617 73.8132 129.779 73.7339C132.237 72.516 132.122 60.7911 129.375 52.0103C131.002 47.6295 133.103 44.4112 135.196 43.2363C137.395 42.003 139.504 43.0825 141.467 46.444C142.291 47.8559 142.976 49.264 143.536 50.6443C140.097 53.8406 138.368 58.3991 139.586 62.4236C140.538 65.5569 141.746 67.3222 143.081 67.5247C143.81 67.6375 144.515 67.2496 145.068 66.4405C146.655 64.1001 147.202 57.9798 144.401 50.8325C145.892 49.5438 147.688 48.5179 149.689 47.9065C150.087 47.7843 150.487 47.682 150.886 47.6008C154.253 46.8978 157.666 47.5617 160.618 49.5152C163.783 51.6082 166.396 55.0567 168.414 59.7919C168.684 59.811 168.954 59.832 169.226 59.8521C167.13 54.8064 164.378 51.1363 161.016 48.9105H161.015ZM129.458 73.0853C129.057 73.2802 128.41 72.6469 127.726 71.3783C126.254 68.6491 126.367 62.7513 128.02 56.352C128.307 55.2343 128.627 54.1597 128.971 53.1395C131.493 61.8629 131.17 72.2351 129.458 73.0853ZM144.467 66.0336C144.194 66.4357 143.751 66.8933 143.188 66.8083C142.711 66.7367 141.468 66.1434 140.279 62.2125C139.161 58.5281 140.705 54.3565 143.817 51.3608C146.308 57.9406 145.996 63.783 144.468 66.0326L144.467 66.0336Z" fill="white"/>
<path id="Vector_142" d="M122.571 57.631H122.563C122.47 57.6263 122.398 57.547 122.403 57.4534L123.125 43.7253C123.13 43.6326 123.21 43.5629 123.302 43.5658C123.395 43.5705 123.466 43.6498 123.461 43.7425L122.739 57.4706C122.735 57.5603 122.66 57.6301 122.571 57.6301V57.631Z" fill="#020000"/>
<path id="Vector_143" d="M155.746 57.6913C155.661 57.6913 155.588 57.6263 155.579 57.5394L154.134 43.5104C154.124 43.4177 154.192 43.3356 154.284 43.3251C154.377 43.3107 154.46 43.3824 154.469 43.475L155.914 57.504C155.923 57.5967 155.856 57.6788 155.764 57.6893C155.758 57.6893 155.752 57.6893 155.746 57.6893V57.6913Z" fill="#020000"/>
<g id="Group_31">
<path id="Vector_144" d="M109.164 46.1668L99.79 34.0617C99.79 34.0617 103.355 31.664 105.577 28.1553C107.799 24.6457 108.77 20.0356 112.526 17.9789C116.282 15.9222 120.877 16.6683 121.26 16.9338C121.26 16.9338 121.923 17.1449 121.667 18.061C121.667 18.061 123.267 18.2043 122.893 19.2446C122.52 20.2858 121.662 20.5848 121.662 20.5848C121.662 20.5848 116.493 29.2749 115.98 31.8292C115.467 34.3836 117.382 34.8708 115.708 38.3957C114.033 41.9197 109.164 46.1658 109.164 46.1658V46.1668Z" fill="#CCCCCC"/>
<path id="Vector_145" d="M99.7901 34.0618C99.7901 34.0618 80.1241 47.7077 88.0719 57.4619C96.0197 67.216 109.164 46.1669 109.164 46.1669C109.164 46.1669 106.812 37.8761 99.7901 34.0618Z" fill="#CCCCCC"/>
<path id="Vector_146" d="M125.185 38.9316C125.092 38.9201 125.007 38.9822 124.994 39.0739C124.993 39.0816 124.878 39.8028 124.194 40.3034C123.568 40.7628 122.672 40.9042 121.529 40.7227C120.219 40.5154 119.62 40.3263 119.225 40.2021C118.566 39.9939 118.375 39.9595 116.899 40.2117C116.381 40.3005 115.962 40.3569 115.625 40.4017C114.327 40.5766 114.02 40.6176 113.193 41.7697L113.022 42.0085C111.891 43.5961 110.776 45.095 109.68 46.4992L99.9239 33.9585C99.8666 33.885 99.7606 33.8716 99.687 33.9289C99.6135 33.9862 99.6001 34.0922 99.6574 34.1658L109.465 46.7724C105.635 51.65 102.065 55.3573 98.9897 57.627C98.9152 57.6824 98.8989 57.7875 98.9543 57.863C98.9878 57.9069 99.0384 57.9308 99.09 57.9308C99.1244 57.9308 99.1597 57.9203 99.1903 57.8983C103.228 54.917 108.106 49.4901 113.297 42.2043L113.467 41.9655C114.208 40.9319 114.403 40.9061 115.67 40.7351C116.01 40.6893 116.432 40.632 116.955 40.5431C118.403 40.2957 118.528 40.3349 119.124 40.5231C119.53 40.6501 120.143 40.844 121.477 41.0552C122.715 41.251 123.698 41.0876 124.401 40.5699C125.196 39.9824 125.322 39.1561 125.328 39.1207C125.342 39.029 125.278 38.944 125.186 38.9306L125.185 38.9316Z" fill="#020000"/>
<path id="Vector_147" d="M111.047 41.3447C111.028 41.3447 111.008 41.3418 110.99 41.3342C110.902 41.3027 110.857 41.2052 110.889 41.1183C111.802 38.6155 111.984 36.7078 112.259 33.821C112.377 32.5849 112.51 31.1855 112.725 29.4956C113.469 23.658 118.907 20.199 119.99 19.5647C121.169 18.8741 121.231 18.5034 121.232 18.4996C121.227 18.406 121.298 18.3353 121.39 18.3296C121.487 18.3171 121.562 18.4041 121.568 18.4967C121.575 18.618 121.493 19.0747 120.16 19.8551C119.102 20.4751 113.784 23.8567 113.06 29.5376C112.845 31.2208 112.712 32.6184 112.594 33.8516C112.317 36.7642 112.133 38.6891 111.205 41.2329C111.181 41.3007 111.116 41.3437 111.047 41.3437V41.3447Z" fill="#020000"/>
</g>
<g id="Group_32">
<path id="Vector_148" d="M167.061 46.1668L176.435 34.0617C176.435 34.0617 172.87 31.664 170.648 28.1553C168.427 24.6457 167.456 20.0356 163.7 17.9789C159.944 15.9222 155.349 16.6683 154.966 16.9338C154.966 16.9338 154.302 17.1449 154.558 18.061C154.558 18.061 152.959 18.2043 153.332 19.2446C153.706 20.2858 154.564 20.5848 154.564 20.5848C154.564 20.5848 159.733 29.2749 160.246 31.8292C160.759 34.3836 158.843 34.8708 160.517 38.3957C162.192 41.9197 167.061 46.1658 167.061 46.1658L167.061 46.1668Z" fill="#CCCCCC"/>
<path id="Vector_149" d="M176.436 34.0618C176.436 34.0618 196.102 47.7077 188.154 57.4619C180.206 67.216 167.062 46.1669 167.062 46.1669C167.062 46.1669 169.413 37.8761 176.436 34.0618Z" fill="#CCCCCC"/>
<path id="Vector_150" d="M178.14 58.1945C175.98 57.1141 170.668 51.0835 166.91 46.5938L176.569 34.1658C176.627 34.0922 176.613 33.9862 176.54 33.9289C176.466 33.8716 176.36 33.885 176.303 33.9585L166.688 46.3282C164.835 44.1082 163.396 42.3075 162.965 41.7448C162.035 40.5307 161.106 40.4247 160.031 40.3024C159.675 40.2623 159.309 40.2203 158.913 40.1362C157.931 39.927 157.164 40.1362 156.276 40.3798C155.668 40.546 154.978 40.7342 154.106 40.8154C152.11 41.0036 151.413 39.5869 151.385 39.5267C151.345 39.4436 151.244 39.4064 151.16 39.4465C151.076 39.4857 151.04 39.586 151.079 39.67C151.087 39.6872 151.898 41.3608 154.138 41.1516C155.04 41.0676 155.744 40.8746 156.365 40.7055C157.246 40.4648 157.942 40.2747 158.844 40.4667C159.256 40.5546 159.631 40.5966 159.994 40.6387C161.035 40.7571 161.856 40.8498 162.7 41.9502C164.077 43.748 174.597 56.7988 177.991 58.4963C178.015 58.5087 178.04 58.5135 178.066 58.5135C178.128 58.5135 178.187 58.4791 178.217 58.4199C178.259 58.3368 178.225 58.2355 178.142 58.1935L178.14 58.1945Z" fill="#020000"/>
<path id="Vector_151" d="M165.179 41.3446C165.11 41.3446 165.045 41.3026 165.02 41.2338C164.092 38.69 163.909 36.7651 163.631 33.8525C163.514 32.6193 163.381 31.2217 163.166 29.5386C162.442 23.8576 157.124 20.476 156.065 19.856C154.733 19.0746 154.651 18.619 154.657 18.4967C154.662 18.404 154.739 18.34 154.835 18.3372C154.923 18.3419 154.992 18.4136 154.995 18.5005C155 18.5282 155.099 18.8979 156.236 19.5647C157.32 20.198 162.757 23.657 163.501 29.4946C163.717 31.1835 163.85 32.5839 163.968 33.82C164.243 36.7068 164.425 38.6155 165.338 41.1173C165.37 41.2052 165.325 41.3017 165.238 41.3332C165.219 41.3399 165.199 41.3437 165.18 41.3437L165.179 41.3446Z" fill="#020000"/>
</g>
<g id="Group_33">
<g id="Group_34">
<g id="Group_35">
<path id="Vector_152" d="M129.268 29.3639C129.268 33.7925 125.677 37.3833 121.248 37.3833C116.82 37.3833 113.228 33.7925 113.228 29.3639C113.228 24.9353 116.819 21.3435 121.248 21.3435C125.678 21.3435 129.268 24.9343 129.268 29.3639Z" fill="#808080"/>
<path id="Vector_153" d="M161.671 29.3639C161.671 33.7925 158.08 37.3833 153.651 37.3833C149.221 37.3833 145.63 33.7925 145.63 29.3639C145.63 24.9353 149.221 21.3435 153.651 21.3435C158.08 21.3435 161.671 24.9343 161.671 29.3639Z" fill="#808080"/>
<g id="Group_36">
<path id="Vector_154" d="M153.651 19.1206C151.569 19.1206 149.635 19.7425 148.018 20.8086C147.205 20.5802 144.576 19.816 142.335 18.8913C141.718 16.8824 139.849 15.4199 137.638 15.4199C135.426 15.4199 133.599 16.8499 132.962 18.8264C131.315 19.4798 128.21 20.564 126.172 20.3806C124.71 19.5782 123.033 19.1206 121.247 19.1206C115.589 19.1206 111.003 23.7068 111.003 29.3639C111.003 35.0209 115.589 39.6072 121.247 39.6072C124.737 39.6072 127.816 37.8609 129.666 35.1967C132.077 34.6236 138.811 33.3502 145.178 35.1241C147.022 37.8304 150.129 39.6072 153.65 39.6072C159.307 39.6072 163.894 35.0209 163.894 29.3639C163.894 23.7068 159.308 19.1206 153.65 19.1206H153.651ZM121.248 37.3843C116.819 37.3843 113.228 33.7934 113.228 29.3648C113.228 24.9362 116.819 21.3445 121.248 21.3445C125.678 21.3445 129.268 24.9353 129.268 29.3648C129.268 33.7944 125.677 37.3843 121.248 37.3843ZM153.651 37.3843C149.221 37.3843 145.63 33.7934 145.63 29.3648C145.63 24.9362 149.221 21.3445 153.651 21.3445C158.08 21.3445 161.671 24.9353 161.671 29.3648C161.671 33.7944 158.08 37.3843 153.651 37.3843Z" fill="#DA002F"/>
<path id="Vector_155" d="M140.944 20.3329C140.944 22.1918 139.436 23.6992 137.577 23.6992C135.718 23.6992 134.211 22.1918 134.211 20.3329C134.211 18.474 135.718 16.9666 137.577 16.9666C139.436 16.9666 140.944 18.474 140.944 20.3329Z" fill="#E6E6E6"/>
</g>
</g>
<g id="Group_37">
<path id="Vector_156" d="M117.423 26.4427C117.359 26.4427 117.299 26.4064 117.27 26.3453L116.488 24.6592C116.449 24.5752 116.485 24.4749 116.57 24.4357C116.655 24.3965 116.754 24.4328 116.794 24.5169L117.576 26.2029C117.615 26.287 117.579 26.3873 117.494 26.4274C117.471 26.4379 117.447 26.4427 117.423 26.4427Z" fill="#020000"/>
<path id="Vector_157" d="M119.641 25.9602C119.555 25.9602 119.481 25.8933 119.473 25.8054L119.313 23.7984C119.305 23.7058 119.375 23.6246 119.468 23.6169C119.556 23.6122 119.641 23.679 119.649 23.7717L119.81 25.7777C119.817 25.8704 119.747 25.9526 119.655 25.9592C119.65 25.9592 119.645 25.9592 119.641 25.9592V25.9602Z" fill="#020000"/>
<path id="Vector_158" d="M122.23 25.9803C122.223 25.9803 122.217 25.9803 122.21 25.9794C122.117 25.9679 122.051 25.8848 122.063 25.7922L122.304 23.8052C122.315 23.7126 122.399 23.6505 122.491 23.6581C122.583 23.6696 122.649 23.7536 122.638 23.8453L122.397 25.8323C122.387 25.9173 122.314 25.9803 122.23 25.9803Z" fill="#020000"/>
<path id="Vector_159" d="M124.498 26.4618C124.48 26.4618 124.462 26.4589 124.444 26.4532C124.357 26.4236 124.309 26.328 124.338 26.2401L124.88 24.6343C124.91 24.5465 125.005 24.4987 125.094 24.5283C125.182 24.5579 125.23 24.6534 125.2 24.7413L124.658 26.3462C124.635 26.4169 124.569 26.4608 124.499 26.4608L124.498 26.4618Z" fill="#020000"/>
<g id="Group_38">
<path id="Vector_160" d="M123.736 31.7255C122.992 31.8353 122.099 31.8994 121.035 31.8994C120.097 31.8994 119.295 31.8353 118.604 31.7303C114.343 31.0664 114.443 28.6925 114.443 28.6925C114.443 28.6925 114.855 26.4763 118.732 25.8019C119.428 25.6854 120.234 25.6118 121.167 25.6118C122.149 25.6118 122.976 25.7073 123.679 25.865C127.387 26.7085 127.539 29.3517 127.539 29.3517C127.539 29.3517 127.698 31.1552 123.737 31.7255H123.736Z" fill="white"/>
<path id="Vector_161" d="M125.049 28.8177C125.049 29.9793 124.542 31.0176 123.736 31.7255C122.992 31.8353 122.099 31.8994 121.035 31.8994C120.097 31.8994 119.295 31.8353 118.604 31.7303C117.797 31.0176 117.286 29.9793 117.286 28.8177C117.286 27.6561 117.85 26.5136 118.732 25.8019C119.428 25.6854 120.234 25.6118 121.167 25.6118C122.149 25.6118 122.976 25.7073 123.679 25.865C124.516 26.5719 125.05 27.6379 125.05 28.8177H125.049Z" fill="#020000"/>
</g>
</g>
<g id="Group_39">
<path id="Vector_162" d="M150.419 26.4427C150.355 26.4427 150.295 26.4064 150.266 26.3453L149.484 24.6592C149.444 24.5752 149.481 24.4749 149.565 24.4357C149.65 24.3965 149.75 24.4328 149.789 24.5169L150.572 26.2029C150.611 26.287 150.574 26.3873 150.49 26.4274C150.467 26.4379 150.443 26.4427 150.42 26.4427H150.419Z" fill="#020000"/>
<path id="Vector_163" d="M152.636 25.9602C152.549 25.9602 152.476 25.8933 152.469 25.8054L152.308 23.7984C152.301 23.7058 152.371 23.6246 152.463 23.6169C152.552 23.6122 152.637 23.679 152.645 23.7717L152.805 25.7777C152.813 25.8704 152.743 25.9526 152.65 25.9592C152.646 25.9592 152.641 25.9592 152.637 25.9592L152.636 25.9602Z" fill="#020000"/>
<path id="Vector_164" d="M155.226 25.9803C155.219 25.9803 155.211 25.9803 155.205 25.9794C155.112 25.9679 155.046 25.8848 155.058 25.7922L155.298 23.8052C155.31 23.7126 155.394 23.6505 155.486 23.6581C155.578 23.6696 155.644 23.7536 155.633 23.8453L155.392 25.8323C155.382 25.9173 155.309 25.9803 155.225 25.9803H155.226Z" fill="#020000"/>
<path id="Vector_165" d="M157.493 26.4618C157.474 26.4618 157.456 26.4589 157.439 26.4532C157.351 26.4236 157.303 26.328 157.333 26.2401L157.875 24.6343C157.904 24.5465 158 24.4987 158.088 24.5283C158.176 24.5579 158.223 24.6534 158.194 24.7413L157.652 26.3462C157.628 26.4169 157.563 26.4608 157.493 26.4608V26.4618Z" fill="#020000"/>
<g id="Group_40">
<path id="Vector_166" d="M156.73 31.7255C155.986 31.8353 155.094 31.8994 154.029 31.8994C153.091 31.8994 152.289 31.8353 151.598 31.7303C147.337 31.0664 147.437 28.6925 147.437 28.6925C147.437 28.6925 147.849 26.4763 151.726 25.8019C152.423 25.6854 153.228 25.6118 154.161 25.6118C155.144 25.6118 155.971 25.7073 156.673 25.865C160.381 26.7085 160.533 29.3517 160.533 29.3517C160.533 29.3517 160.692 31.1552 156.732 31.7255H156.73Z" fill="white"/>
<path id="Vector_167" d="M158.043 28.8177C158.043 29.9793 157.537 31.0176 156.73 31.7255C155.986 31.8353 155.094 31.8994 154.029 31.8994C153.091 31.8994 152.289 31.8353 151.598 31.7303C150.791 31.0176 150.28 29.9793 150.28 28.8177C150.28 27.6561 150.845 26.5136 151.725 25.8019C152.422 25.6854 153.227 25.6118 154.16 25.6118C155.143 25.6118 155.97 25.7073 156.672 25.865C157.509 26.5719 158.043 27.6379 158.043 28.8177Z" fill="#020000"/>
</g>
</g>
</g>
<path id="Vector_168" d="M129.902 34.7965C129.879 34.7965 129.857 34.7917 129.834 34.7821C129.749 34.7449 129.71 34.6455 129.747 34.5605C133.692 25.5409 126.667 21.0025 126.596 20.9576C126.516 20.9079 126.493 20.8038 126.542 20.7255C126.592 20.6462 126.696 20.6232 126.774 20.672C126.848 20.7188 134.115 25.4129 130.056 34.6952C130.028 34.7583 129.966 34.7965 129.901 34.7965H129.902Z" fill="#E6E6E6"/>
<path id="Vector_169" d="M144.789 34.3445C144.723 34.3445 144.662 34.3063 144.634 34.2423C141.169 26.1904 147.435 21.4485 147.499 21.4017C147.573 21.3472 147.679 21.3625 147.735 21.437C147.79 21.5115 147.774 21.6176 147.699 21.673C147.638 21.7188 141.588 26.3079 144.944 34.1095C144.981 34.1945 144.941 34.2949 144.856 34.3312C144.834 34.3407 144.812 34.3455 144.79 34.3455L144.789 34.3445Z" fill="#E6E6E6"/>
</g>
<g id="Group_41">
<g id="Group_42">
<g id="Group_43">
<path id="Vector_170" d="M145.897 157.895C145.918 158.016 145.944 158.133 145.964 158.245C146.167 159.266 146.35 160 146.35 160H169.871C169.901 159.366 169.866 158.783 169.776 158.245C169.756 158.125 169.734 158.01 169.708 157.895C168.737 153.379 163.958 152.347 163.958 152.347C158.232 151.246 145.921 152.202 145.921 152.202C145.103 152.787 145.501 155.789 145.897 157.895Z" fill="#CCCCCC"/>
<path id="Vector_171" d="M145.896 157.895C145.918 158.016 145.944 158.133 145.964 158.245H169.775C169.755 158.125 169.733 158.01 169.707 157.895H145.896Z" fill="#020000"/>
</g>
<g id="Group_44">
<path id="Vector_172" d="M130.623 157.895C130.601 158.016 130.575 158.133 130.556 158.245C130.353 159.266 130.169 160 130.169 160H106.649C106.619 159.366 106.655 158.783 106.744 158.245C106.765 158.125 106.787 158.01 106.812 157.895C107.784 153.379 112.05 152.435 112.05 152.435C117.776 151.334 130.639 152.207 130.639 152.207C131.458 152.792 131.019 155.789 130.623 157.895Z" fill="#CCCCCC"/>
<path id="Vector_173" d="M130.623 157.895C130.601 158.016 130.575 158.133 130.556 158.245H106.744C106.764 158.125 106.787 158.01 106.812 157.895H130.623Z" fill="#020000"/>
</g>
<path id="Vector_174" d="M112.051 152.434L130.64 152.207C130.64 152.207 131.056 149.653 131.716 145.745C131.772 145.409 131.83 145.063 131.892 144.707C132.695 139.969 133.802 133.585 134.962 127.365C135.068 126.797 135.174 126.23 135.281 125.665C137.231 115.331 139.253 105.92 140.156 105.92C142.158 105.92 145.925 152.201 145.925 152.201L163.961 152.347L158.427 81.3597C158.427 81.3597 133.401 80.8333 120.881 82.9607L112.053 152.433L112.051 152.434Z" fill="#CCCCCC"/>
<path id="Vector_175" d="M140.341 104.962C140.325 104.962 140.308 104.96 140.291 104.955C140.205 104.927 140.158 104.836 140.186 104.75L142.105 98.7417C142.132 98.6567 142.224 98.608 142.311 98.6367C142.396 98.6634 142.444 98.7551 142.415 98.8411L140.497 104.849C140.474 104.918 140.411 104.962 140.342 104.962H140.341Z" fill="#020000"/>
</g>
<path id="Vector_176" d="M120.881 83.1337H120.888L158.432 81.5336C158.527 81.5288 158.602 81.4486 158.597 81.3531C158.593 81.2575 158.512 81.1821 158.417 81.1878L120.874 82.7888C120.778 82.7926 120.705 82.8729 120.708 82.9694C120.711 83.062 120.789 83.1346 120.881 83.1346V83.1337Z" fill="#020000"/>
<path id="Vector_177" d="M163.958 152.52C164.053 152.52 164.131 152.444 164.131 152.348C164.131 152.253 164.054 152.174 163.959 152.174L145.924 152.029H145.923C145.828 152.029 145.751 152.105 145.75 152.201C145.75 152.297 145.826 152.375 145.922 152.376L163.957 152.52H163.958Z" fill="#020000"/>
<path id="Vector_178" d="M112.05 152.608H112.052L130.641 152.38C130.737 152.379 130.813 152.3 130.812 152.205C130.811 152.109 130.734 152.03 130.638 152.034L112.048 152.262C111.953 152.262 111.876 152.341 111.877 152.437C111.879 152.532 111.956 152.608 112.05 152.608Z" fill="#020000"/>
<path id="Vector_179" d="M131.716 145.745C131.772 145.409 131.83 145.063 131.892 144.707C124.101 140.341 123.367 136.434 123.463 134.815C123.557 133.243 124.42 132.039 125.433 131.328C127.238 133.659 129.634 136.294 131.103 136.104C131.484 136.054 131.772 135.83 131.918 135.471C132.308 134.525 131.615 132.683 130.145 130.783C129.3 129.685 127.877 129.314 126.337 129.789C126.125 129.854 125.915 129.935 125.704 130.031C124.177 127.802 123.797 125.53 124.696 123.867C124.976 123.353 125.361 122.935 125.812 122.636C126.499 124.922 128.104 127.118 129.488 128.42C130.338 129.22 131.916 130.467 132.934 129.799C133.688 129.302 133.689 128.052 132.939 125.973C131.888 123.066 130.034 121.307 127.85 121.141C127.392 121.108 126.945 121.148 126.52 121.257C126.385 120.261 126.497 119.303 126.97 118.478C127.526 117.51 128.032 117.549 128.199 117.564C130.092 117.712 132.952 122.838 134.962 127.367C135.068 126.799 135.174 126.232 135.281 125.667C133.474 121.783 130.688 116.766 128.276 116.578C127.686 116.531 126.83 116.739 126.116 117.985C125.473 119.1 125.36 120.36 125.576 121.626C124.859 122.017 124.248 122.622 123.83 123.398C122.757 125.377 123.143 128.002 124.847 130.526C123.611 131.393 122.592 132.84 122.476 134.758C122.34 137.019 123.477 141.231 131.718 145.747L131.716 145.745ZM126.726 122.225C126.987 122.156 127.26 122.119 127.539 122.119C127.618 122.119 127.696 122.121 127.775 122.125C129.555 122.259 131.098 123.785 132.01 126.309C132.707 128.242 132.521 128.887 132.39 128.97C132.227 129.077 131.444 128.903 130.166 127.699C128.777 126.39 127.305 124.293 126.725 122.225H126.726ZM126.31 130.846C126.416 130.804 126.523 130.764 126.626 130.732C126.964 130.628 127.297 130.577 127.608 130.577C128.332 130.577 128.955 130.856 129.365 131.385C130.969 133.466 131.182 134.919 130.992 135.12C130.782 135.221 129.371 134.774 126.31 130.846Z" fill="white"/>
</g>
</g>
</g>
<defs>
<clipPath id="clip0_2284_1864">
<rect width="259.715" height="160" fill="white"/>
</clipPath>
</defs>
</svg>
