<svg width="141" height="160" viewBox="0 0 141 160" fill="none" xmlns="http://www.w3.org/2000/svg">
<g id="person-zero-COLOR_NOT_UPDATED">
<g id="Group">
<path id="Vector" d="M140.339 160H105.807C104.528 149.497 102.685 133.341 101.304 117.104C101.255 116.567 101.207 116.024 101.164 115.487C98.8151 87.302 97.9491 59.4457 103.948 61.0731C103.948 61.0731 124.506 65.2277 130.595 92.2789C131.354 95.6383 132.09 99.3953 132.799 103.393C132.945 104.194 133.084 105 133.224 105.823C136.352 124.058 138.926 146.541 140.339 160Z" fill="#E6E6E6"/>
<path id="Vector_2" d="M54.3117 40.3809L53.8762 57.2148L77.7582 57.8297L78.1887 41.1555L54.3117 40.3809Z" fill="#E6E6E6"/>
<path id="Vector_3" d="M54.3116 40.3809L54.0803 49.3403C70.9727 60.8014 77.5861 43.932 78.1574 42.3713L78.1879 41.1555L54.3116 40.3809Z" fill="#020000"/>
<path id="Vector_4" d="M77.8322 54.3239L90.8368 58.2422C90.8368 58.2422 83.6702 70.7677 64.0942 70.2615C44.5183 69.7568 38.6005 61.9893 38.6005 61.9893L54.0391 54.3717C54.0391 54.3717 68.7378 52.48 77.8331 54.3231L77.8322 54.3239Z" fill="#E6E6E6"/>
<path id="Vector_5" d="M111.139 160H28.5562L30.5013 125.683L30.5985 124.043L33.4417 73.983L33.5545 72.0329L34.2377 59.9717L54.0384 52.4956C54.0384 52.4956 65.4271 72.9738 77.8266 54.3288L84.491 56.0484L86.1086 56.4674L103.947 61.0739L107.919 115.718L108.037 117.331L108.978 130.295L109.118 132.256L109.688 140.06L109.817 141.807L111.14 160H111.139Z" fill="#E6E6E6"/>
<path id="Vector_6" d="M64.9668 63.4725C72.1268 63.4725 77.8874 54.8942 78.1319 54.5221C78.2414 54.3575 78.1969 54.1361 78.0298 54.0258C77.8652 53.9155 77.6446 53.9607 77.5343 54.1287C77.4742 54.2176 71.5514 63.0346 64.6153 62.7481C60.8065 62.5843 57.0758 58.0297 54.0762 52.5226C53.9815 52.3481 53.7634 52.2823 53.5889 52.3811C53.4144 52.4732 53.3518 52.693 53.4448 52.8651C56.5786 58.61 60.5085 63.2898 64.5857 63.4635C64.7141 63.4701 64.84 63.4725 64.9668 63.4725Z" fill="#020000"/>
<path id="Vector_7" d="M63.9132 160C70.2163 159.885 76.8437 159.86 83.3352 160H63.9132Z" fill="#01AD88"/>
<g id="Group_2">
<path id="Vector_8" d="M69.1842 16.5745C69.1842 16.5745 79.7208 17.708 80.2485 29.314C80.777 40.9192 77.1278 52.2049 65.6354 51.1957C53.2919 50.1091 51.7065 40.2787 53.3001 27.1244C54.8938 13.97 66.7434 16.1325 69.1842 16.5745Z" fill="#E6E6E6"/>
<path id="Vector_9" d="M79.7768 31.0328C79.7768 31.0328 83.9215 28.0126 85.2839 32.033C86.6479 36.0534 80.5951 41.6164 79.1249 37.5861L79.7777 31.0328H79.7768Z" fill="#E6E6E6"/>
<path id="Vector_10" d="M71.4298 32.5147C71.3541 33.5107 71.6875 34.3446 72.1748 34.3808C72.6613 34.4195 73.1165 33.6408 73.1914 32.648C73.2663 31.6528 72.9296 30.8148 72.4456 30.7794C71.9591 30.7449 71.5022 31.5195 71.4298 32.5147Z" fill="#020000"/>
<path id="Vector_11" d="M59.0179 31.5859C58.943 32.5803 59.2797 33.4167 59.7629 33.4537C60.251 33.4924 60.7046 32.7129 60.7795 31.7193C60.8544 30.7241 60.5194 29.8877 60.0353 29.8515C59.5464 29.8161 59.0911 30.5907 59.0179 31.5859Z" fill="#020000"/>
<path id="Vector_12" d="M80.7745 35.2573C80.9556 35.2779 81.1284 35.1602 81.1704 34.9783C81.4379 33.8752 81.8586 33.1706 82.3887 32.9533C82.9016 32.7368 83.3831 33.0232 83.4037 33.0364C83.5766 33.1393 83.798 33.0891 83.9025 32.9154C84.0104 32.745 83.9593 32.5244 83.7914 32.4157C83.7585 32.3993 82.9847 31.9202 82.1204 32.2709C81.3458 32.587 80.7901 33.4406 80.46 34.8071C80.4147 35.0063 80.5341 35.203 80.7317 35.2483C80.7457 35.2532 80.7597 35.2549 80.7745 35.2573Z" fill="#020000"/>
<path id="Vector_13" d="M53.9776 28.9412C53.9776 28.9412 50.1441 25.534 48.3989 29.4038C46.6521 33.2711 52.1353 39.3963 53.9908 35.5266L53.9784 28.9412H53.9776Z" fill="#E6E6E6"/>
<path id="Vector_14" d="M52.5748 33.0489C52.3913 33.0522 52.2316 32.9197 52.206 32.7336C52.0472 31.6092 51.6965 30.8683 51.1902 30.6008C50.7013 30.3365 50.1934 30.5736 50.172 30.5843C49.9892 30.6707 49.7736 30.5991 49.6879 30.4156C49.5974 30.2377 49.6682 30.0212 49.8468 29.9299C49.8806 29.9159 50.698 29.5142 51.5236 29.9488C52.2637 30.3373 52.7345 31.242 52.9304 32.6332C52.9584 32.8365 52.8185 33.0209 52.6185 33.0456C52.6045 33.0505 52.5888 33.0489 52.5756 33.0497L52.5748 33.0489Z" fill="#020000"/>
<path id="Vector_15" d="M65.1646 37.2307C65.3407 37.2512 65.5095 37.1442 65.558 36.9672C65.6148 36.7763 65.5004 36.5754 65.3094 36.5178C64.9151 36.4009 63.817 35.9416 63.9166 35.3472C63.9306 35.2756 63.9603 35.232 64.0228 35.1949C64.3875 34.971 65.4099 35.1414 66.0207 35.3324C66.2125 35.3933 66.4158 35.2871 66.4759 35.0929C66.5393 34.9019 66.4314 34.6936 66.238 34.6344C66.0585 34.5767 64.4361 34.0886 63.645 34.5726C63.4005 34.7191 63.2457 34.9439 63.198 35.2246C63.0103 36.3079 64.3093 36.9895 65.1061 37.2167C65.1259 37.2249 65.1456 37.2274 65.1646 37.2307Z" fill="#020000"/>
<path id="Vector_16" d="M71.3153 28.1806C71.4725 28.1978 71.6322 28.1089 71.6956 27.9509C71.8808 27.494 72.0932 27.2141 72.2669 27.2067C72.5336 27.196 72.9402 27.7286 73.1337 28.1147C73.2226 28.295 73.4424 28.3658 73.6227 28.276C73.8029 28.1888 73.877 27.9698 73.7881 27.792C73.6762 27.5656 73.0835 26.4445 72.2356 26.4791C71.7425 26.4955 71.3301 26.8989 71.0181 27.6768C70.9407 27.8669 71.0321 28.0801 71.2223 28.1526C71.2503 28.1649 71.2824 28.1732 71.3153 28.1806Z" fill="#020000"/>
<path id="Vector_17" d="M58.9455 27.2322C59.0723 27.247 59.2065 27.1927 59.2863 27.0791C59.5275 26.7309 59.9992 26.2748 60.2651 26.3077L60.2741 26.311C60.4453 26.3456 60.6166 26.651 60.731 27.1309C60.7779 27.3268 60.9771 27.4478 61.1722 27.4009C61.3681 27.3548 61.49 27.1573 61.4397 26.9646C61.2463 26.148 60.9014 25.6846 60.4149 25.5924C59.5868 25.436 58.8278 26.4567 58.6854 26.6601C58.5718 26.8272 58.6121 27.0544 58.7751 27.1713C58.8278 27.2058 58.8854 27.2248 58.9439 27.233L58.9455 27.2322Z" fill="#020000"/>
<path id="Vector_18" d="M80.3283 30.8501C80.3283 30.8501 90.6279 13.6835 68.0539 12.1656C45.4816 10.6476 53.2112 28.7501 53.2112 28.7501C53.2112 28.7501 53.5315 30.3224 55.5787 27.1952C57.6259 24.0687 65.2305 22.1647 66.8002 20.301C66.8002 20.301 71.8142 25.534 75.0188 26.3415C78.2235 27.1507 79.1553 33.0496 80.3283 30.8492V30.8501Z" fill="#E6E6E6"/>
<path id="Vector_19" d="M80.3727 17.7064C80.3727 17.7064 96.167 18.5872 88.947 7.71799C81.7261 -3.15041 76.8257 14.9644 76.8257 14.9644L80.3736 17.7064H80.3727Z" fill="#E6E6E6"/>
<path id="Vector_20" d="M54.2566 16.0289C54.2566 16.0289 39.4114 10.5622 50.3539 3.45324C61.2997 -3.65572 58.598 14.9209 58.598 14.9209L54.2566 16.0297V16.0289Z" fill="#E6E6E6"/>
<path id="Vector_21" d="M57.2086 25.0681C57.1518 24.873 57.2629 24.6705 57.4555 24.6129C63.6903 22.7698 66.1845 20.7826 67.1386 19.2952C66.6093 18.5872 66.224 17.8727 66.0577 17.1714C65.7334 15.8131 66.4068 15.5242 66.62 15.4707C67.29 15.3019 68.0753 15.9547 68.3388 16.9079C68.4598 17.3401 68.5544 18.1822 68.0194 19.2417C70.7869 22.5862 76.9163 25.8164 76.9928 25.8551C77.1739 25.9505 77.2414 26.1687 77.1476 26.3506C77.0546 26.5301 76.8323 26.6 76.6537 26.5029C76.3474 26.3457 70.5449 23.2867 67.6209 19.8928C66.457 21.521 63.7388 23.5205 57.6646 25.3151C57.6029 25.3332 57.542 25.3348 57.4843 25.3216C57.3568 25.2945 57.2489 25.2039 57.2086 25.0689V25.0681ZM66.8044 16.1778C66.7352 16.1943 66.6315 16.428 66.7681 17.0026C66.8916 17.513 67.1509 18.0406 67.5106 18.5675C67.7839 17.848 67.6983 17.3237 67.6358 17.1014C67.4687 16.5062 67.0884 16.2214 66.885 16.1827C66.8554 16.1712 66.8274 16.1712 66.8044 16.1778Z" fill="#020000"/>
<path id="Vector_22" d="M63.1947 43.1351C63.5709 43.2108 63.9628 43.275 64.3719 43.3261C72.3575 44.3295 73.1906 38.7624 73.1988 38.7064C73.2243 38.5171 73.0852 38.3417 72.8983 38.3162C72.7074 38.2907 72.532 38.4241 72.5057 38.6126C72.4785 38.8151 71.7352 43.5475 64.4583 42.6346C61.7657 42.2955 59.8592 41.4031 58.7957 39.979C57.6655 38.4677 57.9132 36.8567 57.9149 36.8403C57.9453 36.6509 57.7963 36.483 57.6284 36.4386C57.4374 36.4073 57.258 36.5349 57.2267 36.7242C57.2143 36.8016 56.9221 38.6266 58.2252 40.384C59.2394 41.7489 60.9088 42.67 63.1947 43.1351Z" fill="#020000"/>
</g>
<g id="Group_3">
<path id="Vector_23" d="M9.5918 119.79C9.5918 119.79 18.1306 124.995 32.97 117.988L32.0291 104.999L9.5918 119.79Z" fill="#E6E6E6"/>
<path id="Vector_24" d="M31.0338 118.23C31.2347 118.23 31.401 118.072 31.41 117.87L31.8232 108.362C31.8323 108.154 31.6709 107.979 31.4635 107.97C31.2602 107.966 31.0807 108.122 31.0717 108.329L30.6584 117.837C30.6494 118.044 30.8107 118.22 31.0182 118.23H31.0346H31.0338Z" fill="#020000"/>
<path id="Vector_25" d="M7.22759 118.531C28.6137 132.257 46.1976 80.0573 53.2514 54.738C53.2514 54.738 55.3423 50.1619 56.6898 48.3501C58.0365 46.5375 62.6381 41.1934 64.119 40.5481C65.5999 39.9043 67.3944 38.7881 68.2662 37.5863C69.1371 36.3836 71.018 35.7226 70.3216 34.0664C69.6244 32.4118 68.1205 32.9633 68.1205 32.9633C68.8638 32.6842 68.6317 31.0585 68.1205 29.5257C67.6093 27.9921 64.6368 25.251 63.4053 23.9964C62.1738 22.7411 57.7138 23.7873 57.4117 23.3C57.1096 22.8119 61.0592 16.8414 62.7311 14.6344C64.403 12.4275 65.8444 11.2199 65.9374 8.71087C66.0304 6.20182 63.9856 6.01661 63.3822 6.45783C62.7772 6.89905 60.5942 10.3375 59.1075 11.6611C57.6208 12.9856 53.7182 17.9568 53.463 17.4225C53.2061 16.8891 55.2048 11.7081 56.0642 9.54804C56.9236 7.3872 56.3663 5.73837 55.3439 5.29715C54.3224 4.8551 53.4383 6.80686 52.3237 9.01297C51.2091 11.2199 48.1658 18.0259 48.0959 16.7023C48.0267 15.3786 48.2819 12.7765 48.0037 10.8017C47.7246 8.82693 45.4246 9.05907 45.1925 10.6157C44.9604 12.1723 44.3792 13.4738 44.031 17.0974C43.6828 20.7218 40.9853 26.7747 38.6853 31.4429C36.3862 36.1128 31.8998 43.5074 31.8998 43.5074C31.8998 43.5074 -18.2736 102.164 7.22759 118.53V118.531ZM58.7881 28.3873C61.0527 27.8119 63.1962 28.7355 63.7008 29.92C64.2062 31.1046 65.4599 32.8818 65.4599 32.8818C65.9333 33.5823 61.2091 35.8263 59.1009 35.5127C56.9927 35.1991 55.5818 33.4391 55.4246 31.7672C55.2674 30.0945 56.5219 28.9627 58.7873 28.3873H58.7881Z" fill="#E6E6E6"/>
<g id="Group_4">
<path id="Vector_26" d="M49.8212 13.3246C50.2435 12.466 50.66 11.5943 50.9778 10.9292C51.377 10.0945 51.7326 9.3495 51.9878 8.84407L52.2249 8.37321C53.2102 6.40911 53.989 4.85742 55.0517 4.85742C55.1999 4.85742 55.3497 4.88953 55.4929 4.95209C56.6824 5.46493 57.3813 7.25616 56.4132 9.68782C55.1101 12.9632 54.1585 15.6526 53.882 16.763C54.4771 16.1992 55.4904 15.05 56.2815 14.1527C57.2545 13.0497 58.1724 12.0092 58.7832 11.4486C58.8893 11.6824 59.0252 11.9013 59.1906 12.0981C58.6037 12.6578 57.713 13.6662 56.8446 14.6508C54.6327 17.1598 53.97 17.8397 53.5272 17.8397C53.3518 17.8397 53.1963 17.7418 53.1222 17.5862C53.0226 17.3796 52.7591 16.8322 55.7127 9.41041C56.4939 7.44631 56.028 6.00411 55.1925 5.64355C55.1422 5.62133 55.0961 5.61063 55.05 5.61063C54.4524 5.61063 53.6251 7.2578 52.8958 8.71153L52.6579 9.18404C52.4044 9.68535 52.0512 10.4262 51.6553 11.2543C51.149 12.3138 50.735 13.1699 50.3793 13.8885C50.2238 13.6761 50.0369 13.486 49.8196 13.3254L49.8212 13.3246Z" fill="#020000"/>
<path id="Vector_27" d="M47.713 11.7591C47.6949 11.4463 47.6711 11.1401 47.6315 10.8544C47.5171 10.0486 47.0199 9.76044 46.5935 9.76044C46.5655 9.76044 46.5359 9.76538 46.5071 9.76785C46.5145 9.71517 46.5252 9.66084 46.531 9.60898C46.5565 9.40565 46.5499 9.20727 46.5186 9.01464C46.5433 9.01382 46.568 9.00806 46.5927 9.00806C47.3014 9.00806 48.1938 9.4641 48.3757 10.7491C48.4416 11.2142 48.4704 11.718 48.4876 12.2275C48.267 12.0332 48.0094 11.8735 47.713 11.7591Z" fill="#020000"/>
</g>
<path id="Vector_28" d="M49.1527 24.129C49.184 24.129 49.2145 24.1257 49.2458 24.1166C49.4474 24.0656 49.5693 23.8606 49.5174 23.6598C49.0441 21.7978 48.765 17.8424 48.7617 17.8021C48.7477 17.5954 48.5708 17.439 48.3609 17.4539C48.1534 17.4678 47.997 17.6481 48.011 17.8547C48.0225 18.0194 48.2983 21.9179 48.7881 23.845C48.8317 24.0154 48.984 24.129 49.1527 24.129Z" fill="#020000"/>
<path id="Vector_29" d="M52.6373 22.0387C52.8333 22.0387 52.9987 21.8873 53.0127 21.688C53.142 19.7939 53.7239 18.7592 53.7305 18.7493C53.8334 18.569 53.7717 18.3385 53.5922 18.2356C53.4111 18.1319 53.1831 18.1928 53.0794 18.3715C53.0514 18.4184 52.4052 19.5519 52.262 21.637C52.248 21.8444 52.4044 22.0239 52.6118 22.0379C52.6209 22.0379 52.6291 22.0387 52.6373 22.0387Z" fill="#020000"/>
<path id="Vector_30" d="M28.4722 111.492C28.6887 111.656 28.8953 111.831 29.0937 112.018C40.1234 98.372 48.7141 72.4188 53.6054 54.8679C53.7783 54.4917 55.7358 50.263 56.9911 48.5739C58.4704 46.5834 62.9304 41.4756 64.2688 40.892C65.7267 40.2581 67.6225 39.1147 68.5708 37.8059C68.8111 37.4733 69.1569 37.1696 69.4903 36.8757C70.3184 36.1472 71.2584 35.3207 70.6682 33.9197C70.2122 32.8364 69.4351 32.5606 68.9033 32.5088C69.1223 31.6304 68.7724 30.2919 68.4769 29.4054C68.0192 28.0323 65.8279 25.8674 64.3775 24.435C64.11 24.17 63.8696 23.9321 63.6729 23.732C63.1641 23.2126 62.2183 22.9714 60.6987 22.9714C60.1637 22.9714 59.622 22.9994 59.1454 23.0241C58.5683 23.0537 58.0275 23.0702 57.8135 23.0513C58.2152 21.8815 61.3424 17.0882 63.0308 14.8615C63.3518 14.4376 63.6646 14.0498 63.961 13.6843C64.3569 13.1937 64.7208 12.7336 65.0434 12.2685C64.9661 12.2454 64.892 12.2183 64.8195 12.1895C64.799 12.1903 64.7784 12.1944 64.757 12.1944C64.5726 12.2512 64.389 12.3113 64.2013 12.3574C64.1437 12.3722 64.0853 12.3722 64.0276 12.3837C63.8227 12.6504 63.6087 12.9221 63.3749 13.211C63.0744 13.5823 62.7575 13.9757 62.4307 14.4063C62.3706 14.4861 56.5005 22.5425 57.0916 23.4966C57.3484 23.9107 58.081 23.8333 59.1849 23.7757C59.6533 23.7518 60.1834 23.7246 60.6995 23.7246C61.9853 23.7246 62.783 23.8991 63.1361 24.2597C63.3345 24.4614 63.5782 24.7026 63.8498 24.9701C65.1636 26.2682 67.3632 28.4414 67.764 29.6441C68.3592 31.4296 68.2777 32.4042 68.0242 32.5812C67.7451 32.5894 66.8997 32.6429 65.8699 32.9747C65.8666 32.8668 65.8353 32.7623 65.7736 32.6709C65.7571 32.647 64.5322 30.906 64.049 29.7717C63.5708 28.6489 61.9467 27.8348 60.1867 27.8348C59.687 27.8348 59.1857 27.8981 58.6967 28.0224C55.4682 28.8415 54.9324 30.5298 55.0517 31.8016C55.2122 33.5171 56.6676 35.5306 59.0474 35.8846C59.1989 35.9068 59.3652 35.9184 59.5422 35.9184C60.9737 35.9184 63.1172 35.1569 64.4977 34.3675C64.4985 34.3675 64.4985 34.3675 64.4985 34.3675C64.5553 34.3675 64.9908 34.1493 65.0451 34.1214C66.4791 33.3937 67.8571 33.3393 68.0785 33.3319C68.1353 33.3385 68.1929 33.336 68.2505 33.3155C68.2505 33.3155 68.4399 33.2504 68.6951 33.2504C69.2754 33.2504 69.7067 33.5739 69.9759 34.2111C70.3373 35.0705 69.8631 35.5455 68.9947 36.3102C68.6292 36.6312 68.2522 36.963 67.9624 37.3638C67.1022 38.5509 65.2731 39.6342 63.97 40.2022C62.3558 40.9052 57.6538 46.4237 56.3886 48.1244C55.0336 49.9469 52.9963 54.3921 52.9106 54.5806C52.9024 54.5987 52.895 54.6176 52.8901 54.6366C48.8944 68.9804 40.018 97.1133 28.4738 111.492H28.4722ZM65.0928 33.0134C64.7216 33.5789 61.5984 35.1668 59.5413 35.1668C59.4047 35.1668 59.2763 35.1586 59.1569 35.1413C57.1558 34.8433 55.9342 33.1632 55.8 31.7325C55.6666 30.3076 56.703 29.3058 58.8811 28.7526C59.3092 28.6439 59.748 28.588 60.1859 28.588C61.8347 28.588 63.0497 29.3502 63.3551 30.068C63.8128 31.139 64.8327 32.6372 65.0937 33.0134H65.0928Z" fill="#020000"/>
<path id="Vector_31" d="M53.0209 55.2507C53.1551 55.2507 53.2844 55.1791 53.3527 55.0531C53.4515 54.8696 53.3823 54.6415 53.1996 54.5436L32.0785 43.1763C31.8966 43.0776 31.6677 43.1459 31.5698 43.3295C31.471 43.5122 31.5393 43.7402 31.7229 43.8382L52.8439 55.2054C52.9007 55.2367 52.9617 55.2507 53.0218 55.2507H53.0209Z" fill="#020000"/>
</g>
<path id="Vector_32" d="M132.798 103.393C127.23 113.352 118.04 115.669 107.919 115.717C105.699 115.734 103.442 115.636 101.163 115.486C99.0291 115.346 96.879 115.163 94.7346 114.975C87.5326 114.352 80.5291 113.744 74.51 114.841C78.6703 106.156 82.4001 95.8522 84.1313 85.425C85.7595 75.6111 84.4638 70.1938 80.2829 69.322C79.7775 69.2199 79.24 69.1928 78.6703 69.2356C81.6799 64.1195 84.2869 59.6266 86.1085 56.4656L84.491 56.0466C82.5294 59.4488 79.7339 64.2644 76.5251 69.6982C66.0551 73.1918 48.98 94.9854 44.7439 111.819C43.8359 115.436 43.9323 117.022 45.0831 117.485C46.2973 117.98 48.5602 118.882 69.1667 85.1023C72.0907 80.3131 74.9767 75.4868 77.6002 71.0474C78.4703 70.8161 79.2663 70.7568 79.9545 70.9017C83.0389 71.547 83.9584 76.6096 82.5393 85.155C80.5513 97.1297 76.1432 107.901 72.5097 115.274C67.0487 116.688 62.5451 119.784 59.6648 125.976C55.1612 135.655 56.2626 136.956 56.6767 137.445C56.945 137.757 57.3212 137.923 57.746 137.923C57.9073 137.923 58.0794 137.903 58.2514 137.853C61.0511 137.085 67.6348 128.624 73.5905 116.716C79.6804 115.291 87.0272 115.925 94.5947 116.581C96.8206 116.775 99.067 116.967 101.303 117.102C103.566 117.254 105.818 117.345 108.037 117.328C112.138 117.307 116.116 116.92 119.797 115.829C125.542 114.12 129.987 110.82 133.223 105.821C133.083 104.998 132.943 104.193 132.798 103.392V103.393ZM68.3502 83.3514C51.3614 111.262 46.8941 115.411 45.7712 115.911C45.7177 115.557 45.707 114.599 46.3088 112.213C50.2814 96.4218 65.6254 77.0788 75.1282 72.0582C72.9781 75.686 70.6773 79.5236 68.3502 83.3514ZM69.5273 120.947C63.9865 130.826 59.2302 135.947 57.8802 136.297C57.7995 135.824 57.8053 133.792 61.1268 126.66C63.4811 121.608 67.0816 118.792 71.4832 117.313C70.7794 118.678 70.1183 119.899 69.5273 120.947Z" fill="#DA002F"/>
<path id="Vector_33" d="M105.218 83.7005L110.469 160H111.221L105.965 83.647C105.955 83.4437 105.772 83.2765 105.568 83.2971C105.358 83.3136 105.202 83.4914 105.218 83.7005Z" fill="#020000"/>
</g>
<g id="Group_5">
<path id="Vector_34" d="M44.2598 5.65269C44.3075 5.56378 44.3199 5.45595 44.2845 5.35305L42.5352 0.254293C42.4677 0.0575534 42.2537 -0.0469897 42.0578 0.0205108C41.8619 0.0880113 41.7565 0.302036 41.824 0.497952L43.5733 5.59671C43.6408 5.79427 43.8548 5.89799 44.0507 5.83049C44.1454 5.79839 44.2178 5.73336 44.2606 5.65269H44.2598Z" fill="#E6E6E6"/>
<path id="Vector_35" d="M38.049 9.77175C38.1165 9.6351 38.0959 9.4647 37.9848 9.34699L32.4358 3.46127C32.2934 3.30981 32.0546 3.3024 31.9032 3.44563C31.7517 3.58804 31.7443 3.82594 31.8875 3.97658L37.4374 9.8623C37.5798 10.0138 37.8177 10.0203 37.9683 9.87794C38.0021 9.84666 38.0284 9.81044 38.0482 9.77175H38.049Z" fill="#E6E6E6"/>
<path id="Vector_36" d="M34.1636 15.0228C34.1636 15.0228 34.1644 15.0179 34.1661 15.0154C34.2245 14.8162 34.1118 14.6063 33.9117 14.5471L26.653 12.3887C26.4537 12.3294 26.248 12.4471 26.1854 12.6422C26.1261 12.8414 26.2397 13.0505 26.4389 13.1106L33.6977 15.2698C33.8936 15.3274 34.1011 15.2188 34.1636 15.0237V15.0228Z" fill="#E6E6E6"/>
<path id="Vector_37" d="M34.3167 20.8427C34.3299 20.7818 34.3274 20.7159 34.3069 20.6517C34.2427 20.4542 34.0311 20.3455 33.8335 20.4081L28.999 21.9614C28.8015 22.0256 28.692 22.2363 28.7562 22.4347C28.8196 22.6323 29.0311 22.7409 29.2287 22.6784L34.064 21.125C34.1974 21.0822 34.2904 20.9711 34.3167 20.8427Z" fill="#E6E6E6"/>
</g>
</g>
</svg>
