<svg width="222" height="160" viewBox="0 0 222 160" fill="none" xmlns="http://www.w3.org/2000/svg">
<g id="person-long-hair-window-happy-coffee-COLOR_NOT_UPDATED" clip-path="url(#clip0_1995_8559)">
<g id="Group">
<path id="Vector" d="M166.383 0H54.3471C54.0539 0 53.8151 0.236883 53.8151 0.530166V156.707C53.8151 157.001 54.0539 157.237 54.3471 157.237H166.383C166.676 157.237 166.914 157.001 166.914 156.707V0.530166C166.914 0.237909 166.676 0 166.383 0ZM159.67 148.037C159.67 148.297 159.466 148.509 159.208 148.509H61.5204C61.2631 148.509 61.055 148.298 61.055 148.037V9.20251C61.055 8.94204 61.2631 8.7308 61.5204 8.7308H159.208C159.466 8.7308 159.67 8.94102 159.67 9.20251V148.036V148.037Z" fill="#F4F4F4"/>
<path id="Vector_2" d="M174.391 158.56C174.391 159.355 173.71 160 172.869 160H47.8595C47.0189 160 46.3373 159.355 46.3373 158.56V154.528C46.3373 153.733 47.0189 153.088 47.8595 153.088H172.869C173.711 153.088 174.391 153.733 174.391 154.528V158.56Z" fill="#F4F4F4"/>
<path id="Vector_3" d="M165.894 153.674H55.0421C54.795 153.674 54.5941 153.475 54.5941 153.228C54.5941 152.981 54.794 152.782 55.0421 152.782H165.894C166.141 152.782 166.342 152.981 166.342 153.228C166.342 153.475 166.141 153.674 165.894 153.674Z" fill="black"/>
<path id="Vector_4" d="M153.67 68.2026V45.7101C153.67 45.463 153.469 45.262 153.222 45.262C152.975 45.262 152.774 45.4619 152.774 45.7101V68.2026C151.243 68.421 150.06 69.7388 150.06 71.3303C150.06 73.0746 151.479 74.4938 153.222 74.4938C154.966 74.4938 156.385 73.0746 156.385 71.3303C156.385 69.7377 155.202 68.421 153.669 68.2016L153.67 68.2026ZM153.223 73.5986C151.973 73.5986 150.956 72.5813 150.956 71.3303C150.956 70.0792 151.973 69.0619 153.223 69.0619C154.474 69.0619 155.491 70.0792 155.491 71.3303C155.491 72.5813 154.474 73.5986 153.223 73.5986Z" fill="#E6E6E6"/>
<g id="Group_2">
<path id="Vector_5" d="M159.67 9.20159V46.8187H61.056V9.20159C61.056 8.94215 61.2631 8.73193 61.5214 8.73193H159.209C159.465 8.73193 159.67 8.94215 159.67 9.20159Z" fill="#F4F4F4"/>
<path id="Vector_6" d="M159.209 8.375H61.5214C61.0673 8.375 60.6982 8.74519 60.6982 9.20152V46.3007H61.4137V39.3409H159.311V46.3007H160.027V9.20152C160.027 8.74519 159.659 8.375 159.208 8.375H159.209ZM61.4148 21.1379H159.312V26.3134H61.4148V21.1379ZM159.312 20.2458H61.4148V15.0703H159.312V20.2458ZM61.4148 27.2056H159.312V32.3811H61.4148V27.2056ZM61.5214 9.08872H159.209C159.267 9.08872 159.312 9.13794 159.312 9.20152V14.1781H61.4148V9.20152C61.4148 9.13897 61.4629 9.08872 61.5214 9.08872ZM61.4148 38.4488V33.2733H159.312V38.4488H61.4148Z" fill="black"/>
</g>
<g id="Group_3">
<path id="Vector_7" d="M117.343 81.3049L117.624 92.222L102.142 92.6209L101.863 81.8064L117.343 81.3049Z" fill="#CCCCCC"/>
<path id="Vector_8" d="M117.343 81.3049L117.492 87.1152C106.542 94.5478 102.253 83.6081 101.884 82.595L101.863 81.8064L117.343 81.3049Z" fill="black"/>
<path id="Vector_9" d="M102.094 90.3476L93.6055 92.4498C93.6055 92.4498 98.3105 101.011 111.001 100.683C123.691 100.356 127.777 92.8005 127.777 92.8005L117.519 90.3773C117.519 90.3773 107.99 89.1509 102.094 90.3466V90.3476Z" fill="#CCCCCC"/>
<path id="Vector_10" d="M133.289 148.508H81.7517L88.1521 92.821L102.092 90.3497C110.135 102.436 117.517 89.1611 117.517 89.1611L129.29 92.0437L132.15 132.424L132.244 133.753L133.289 148.508Z" fill="#CCCCCC"/>
<path id="Vector_11" d="M110.435 96.2797C105.792 96.2797 102.059 90.7166 101.9 90.4756C101.829 90.369 101.858 90.2244 101.966 90.1536C102.072 90.0818 102.216 90.1116 102.288 90.2203C102.326 90.2777 106.165 95.9967 110.663 95.8111C113.132 95.7045 115.551 92.7511 117.495 89.1794C117.558 89.0666 117.698 89.0246 117.811 89.0871C117.924 89.1476 117.965 89.2902 117.904 89.402C115.874 93.1275 113.324 96.1628 110.682 96.2756C110.599 96.2787 110.517 96.2808 110.435 96.2808V96.2797Z" fill="black"/>
<g id="Group_4">
<g id="Group_5">
<path id="Vector_12" d="M106.148 63.9726C106.148 63.9726 113.004 58.6525 106.279 56.6364C106.279 56.6364 107.861 44.4119 97.4484 51.1297C97.4484 51.1297 81.4894 47.84 84.9756 60.1773C84.9756 60.1773 80.697 62.618 84.419 66.6819C84.419 66.6819 83.8849 73.897 91.2263 71.3611C91.2263 71.3611 95.9928 73.2602 98.7359 68.5544L106.148 63.9726Z" fill="#CCCCCC"/>
<path id="Vector_13" d="M106.334 67.254C106.334 67.254 99.8163 68.8004 100.405 76.1223C100.995 83.4441 104.177 90.2316 111.303 88.6872C118.955 87.028 119.169 80.7358 117.127 72.61C115.085 64.4863 107.828 66.7834 106.332 67.254H106.334Z" fill="#CCCCCC"/>
<path id="Vector_14" d="M100.885 76.5377C100.885 76.5377 98.17 74.7677 97.4422 77.3519C96.7134 79.935 100.718 83.2473 101.512 80.6549L100.884 76.5377H100.885Z" fill="#CCCCCC"/>
<path id="Vector_15" d="M100.195 79.2591C100.314 79.2211 100.383 79.0929 100.347 78.973C100.094 78.1208 99.7138 77.5988 99.2156 77.4255C98.66 77.2328 98.1875 77.5588 98.168 77.5732C98.0634 77.647 98.0399 77.7896 98.1127 77.8952C98.1865 77.9988 98.3289 78.0244 98.4335 77.9516C98.4458 77.9413 98.74 77.7475 99.069 77.8644C99.4114 77.9854 99.7015 78.4141 99.9055 79.1032C99.9413 79.2252 100.069 79.296 100.192 79.2591H100.196H100.195Z" fill="black"/>
<path id="Vector_16" d="M111.546 79.5249C111.553 79.5218 111.561 79.5197 111.568 79.5167C112.05 79.3085 112.811 78.7804 112.608 78.1138C112.556 77.9426 112.441 77.8134 112.276 77.7385C111.742 77.4985 110.764 77.9354 110.654 77.9846C110.538 78.039 110.487 78.1753 110.541 78.2912C110.595 78.4071 110.732 78.4584 110.848 78.405C111.215 78.2358 111.842 78.0482 112.089 78.16C112.132 78.1795 112.154 78.2041 112.167 78.2482C112.278 78.6122 111.625 78.9885 111.387 79.0911C111.27 79.1424 111.216 79.2777 111.267 79.3956C111.314 79.5043 111.436 79.5597 111.547 79.5249H111.546Z" fill="black"/>
<path id="Vector_17" d="M112.701 83.1847C114.061 82.7591 115.034 82.0926 115.601 81.1943C116.374 79.9699 116.091 78.7803 116.078 78.7301C116.048 78.607 115.922 78.5311 115.798 78.5629C115.675 78.5926 115.599 78.7178 115.63 78.8418C115.633 78.8521 115.876 79.9011 115.206 80.9543C114.576 81.9449 113.365 82.6299 111.606 82.9868C106.838 83.9558 106.111 80.7707 106.104 80.7389C106.077 80.6138 105.955 80.5338 105.83 80.5595C105.708 80.5841 105.625 80.7102 105.652 80.8343C105.66 80.8712 106.486 84.4993 111.699 83.44C112.053 83.3672 112.387 83.2811 112.702 83.1837L112.701 83.1847Z" fill="black"/>
<path id="Vector_18" d="M106.751 74.7932C106.765 74.7891 106.78 74.7819 106.794 74.7727C106.905 74.7122 106.946 74.5717 106.883 74.4599C106.625 73.9954 106.337 73.7759 106.024 73.8036C105.492 73.8487 105.208 74.6014 105.157 74.7501C105.115 74.8711 105.178 75.0024 105.298 75.0434C105.419 75.0865 105.55 75.0229 105.592 74.9008C105.683 74.6435 105.895 74.2784 106.065 74.264C106.173 74.2538 106.327 74.4117 106.48 74.6845C106.534 74.7819 106.648 74.825 106.751 74.7932Z" fill="black"/>
<path id="Vector_19" d="M114.61 73.1854C114.642 73.1751 114.67 73.1597 114.697 73.1362C114.79 73.05 114.798 72.9044 114.713 72.8101C114.608 72.6921 114.056 72.1168 113.55 72.2737L113.545 72.2768C113.247 72.3732 113.068 72.689 113.01 73.2172C112.995 73.3433 113.088 73.4571 113.215 73.4715C113.342 73.4838 113.456 73.3925 113.469 73.2674C113.503 72.9546 113.584 72.7495 113.687 72.7167H113.688C113.847 72.6655 114.193 72.9218 114.371 73.1197C114.432 73.1885 114.527 73.212 114.61 73.1854Z" fill="black"/>
<path id="Vector_20" d="M100.448 76.3305C100.448 76.3305 101.506 77.9302 102.194 76.0403C102.883 74.1493 102.106 70.9181 105.244 70.9837C108.382 71.0504 109.612 71.115 111.682 70.0024C113.755 68.8897 115.987 70.0065 116.815 71.5395C116.815 71.5395 119.634 60.606 107.056 63.2353C94.4799 65.8636 97.9917 73.2346 100.447 76.3315L100.448 76.3305Z" fill="#CCCCCC"/>
<path id="Vector_21" d="M102.583 72.8027C103.02 72.6674 103.535 72.0624 104.287 71.1805C105.152 70.1632 106.229 68.8978 107.507 68.0261C108.012 67.6816 108.228 67.6067 108.311 67.5924C108.319 67.7452 108.204 68.1369 108.125 68.4045C107.913 69.1203 107.674 69.9304 108.107 70.3273C108.417 70.6113 108.962 70.5847 109.824 70.2442C113.822 68.6599 113.746 65.9752 113.741 65.8614C113.735 65.7332 113.627 65.6347 113.5 65.6409C113.372 65.646 113.274 65.7547 113.279 65.8809C113.282 65.9855 113.325 68.3594 109.653 69.8135C108.759 70.1724 108.491 70.0524 108.417 69.9858C108.199 69.7848 108.421 69.0331 108.567 68.5358C108.759 67.8897 108.896 67.4211 108.598 67.2037C108.352 67.0253 107.975 67.1494 107.247 67.6436C105.917 68.5522 104.818 69.8433 103.935 70.881C103.345 71.5732 102.612 72.4377 102.386 72.369C102.386 72.369 102.253 72.3218 102.181 71.7373C102.166 71.6111 102.05 71.5209 101.924 71.5363C101.799 71.5537 101.708 71.6665 101.723 71.7927C101.773 72.2069 101.88 72.6981 102.253 72.8099C102.359 72.8417 102.468 72.8376 102.582 72.8017L102.583 72.8027Z" fill="black"/>
<path id="Vector_22" d="M106.721 77.0432C106.16 77.1827 105.644 77.0299 105.367 76.8679C105.261 76.8063 105.226 76.67 105.289 76.5633C105.35 76.4587 105.487 76.4228 105.591 76.4854C105.632 76.509 106.576 77.034 107.414 76.108C107.497 76.0167 107.637 76.0096 107.728 76.0926C107.819 76.1747 107.826 76.3141 107.743 76.4054C107.417 76.7674 107.061 76.9591 106.721 77.0443V77.0432Z" fill="black"/>
<path id="Vector_23" d="M114.537 75.0989C113.976 75.2384 113.46 75.0846 113.183 74.9236C113.077 74.8621 113.043 74.7257 113.105 74.619C113.167 74.5144 113.303 74.4785 113.407 74.5401C113.449 74.5636 114.392 75.0887 115.231 74.1627C115.314 74.0714 115.453 74.0643 115.544 74.1473C115.635 74.2294 115.642 74.3698 115.559 74.4601C115.233 74.8221 114.877 75.0138 114.537 75.0989Z" fill="black"/>
</g>
<path id="Vector_24" d="M98.2654 69.1563C98.3607 69.1532 98.4468 69.0917 98.4775 68.9973C99.8819 64.756 106.194 63.6311 106.257 63.6198C106.383 63.5993 106.467 63.4793 106.445 63.3542C106.424 63.2281 106.304 63.1419 106.179 63.1645C105.908 63.2106 99.5292 64.3499 98.0388 68.8527C97.9988 68.9727 98.0644 69.104 98.1854 69.144C98.2121 69.1532 98.2387 69.1573 98.2643 69.1563H98.2654Z" fill="black"/>
</g>
<path id="Vector_25" d="M159.981 149.822C158.037 153.343 152.918 153.085 147.48 152.612C140.715 152.028 134.192 145.686 129.582 136.811C129.582 136.811 128.815 129.617 128.175 120.997C128.15 120.649 128.125 120.298 128.099 119.948C127.742 114.97 127.437 109.602 127.351 104.917C127.337 104.269 127.33 103.631 127.33 103.015C127.318 101.203 127.347 99.5306 127.43 98.0621C127.452 97.6899 127.476 97.3279 127.502 96.9844C127.756 93.7829 128.303 91.8314 129.292 92.0427C129.292 92.0427 141.96 95.7456 145.54 104.82C146.334 106.836 147.71 109.787 149.32 113.243C149.467 113.562 149.617 113.888 149.771 114.217C155.38 126.289 163.32 143.769 159.981 149.821V149.822Z" fill="#CCCCCC"/>
<path id="Vector_26" d="M88.2711 128.145C88.1891 128.639 88.106 129.13 88.024 129.617C86.6207 137.875 85.1354 145.177 84.4374 148.508H61.5203C61.3553 148.508 61.2087 148.422 61.1267 148.289C62.7914 141.822 67.8562 122.093 70.9641 109.953C71.2829 108.703 71.6724 107.539 72.1245 106.462C72.432 105.706 72.7723 104.993 73.1372 104.316C78.3312 94.6115 88.1542 92.821 88.1542 92.821C93.262 91.9186 91.0326 111.557 88.2721 128.145H88.2711Z" fill="#CCCCCC"/>
<g id="Group_6">
<g id="Group_7">
<path id="Vector_27" d="M121.753 132.807C121.753 134.327 116.699 135.559 110.463 135.559C104.228 135.559 99.1735 134.327 99.1735 132.807C99.1735 131.287 104.228 130.054 110.463 130.054C116.699 130.054 121.753 131.287 121.753 132.807Z" fill="#DA002F"/>
<path id="Vector_28" d="M99.1735 133.496C99.1735 133.496 100.489 131.957 109.776 131.957C119.063 131.957 121.551 133.678 121.551 133.678C121.551 133.678 118.537 136.309 110.363 136.309C102.189 136.309 99.1745 133.496 99.1745 133.496H99.1735Z" fill="black" fill-opacity="0.5"/>
<path id="Vector_29" d="M126.941 134.135C125.465 133.002 123.116 133.353 121.849 133.662C121.802 133.122 121.754 132.807 121.754 132.807C121.754 134.328 116.7 135.559 110.464 135.559C104.229 135.559 99.1745 134.328 99.1745 132.807C99.1745 132.789 99.1745 132.774 99.1765 132.757C99.1765 132.757 96.6252 148.676 110.424 148.676C113.868 148.676 116.298 147.688 118.006 146.206C120.613 146.176 123.057 145.302 124.903 143.737C126.824 142.108 127.976 139.827 128.147 137.315C128.266 135.543 127.558 134.608 126.942 134.135H126.941ZM126.531 137.206C126.277 140.953 123.45 143.801 119.574 144.449C121.593 141.537 121.948 137.766 121.924 135.317C122.964 135.034 124.998 134.685 125.956 135.421C126.402 135.763 126.589 136.347 126.531 137.206Z" fill="#DA002F"/>
<g id="Group_8">
<path id="Vector_30" d="M111.373 132.55C111.378 132.47 111.316 132.401 111.236 132.396C110.624 132.354 109.941 132.334 109.205 132.334C105.724 132.334 102.114 132.782 101.963 132.801C101.924 132.806 101.89 132.825 101.865 132.856C101.842 132.887 101.83 132.925 101.835 132.964C101.845 133.036 101.906 133.092 101.98 133.092L102.004 133.09C102.39 133.043 105.879 132.626 109.208 132.626C109.936 132.626 110.612 132.647 111.227 132.687C111.303 132.687 111.366 132.627 111.371 132.549L111.373 132.55Z" fill="black"/>
<path id="Vector_31" d="M118.532 134.012C118.512 133.954 118.457 133.916 118.395 133.916L118.345 133.924C115.966 134.79 110.877 134.846 110.827 134.846C110.788 134.846 110.751 134.862 110.724 134.889C110.696 134.917 110.682 134.954 110.682 134.993C110.682 135.073 110.748 135.139 110.828 135.139C110.879 135.139 115.985 135.093 118.443 134.199C118.519 134.173 118.559 134.089 118.531 134.012H118.532Z" fill="black"/>
<path id="Vector_32" d="M108.626 133.006C107.313 132.953 105.025 133.153 105.006 133.154C104.967 133.157 104.932 133.176 104.906 133.206C104.881 133.235 104.869 133.274 104.873 133.312C104.88 133.387 104.943 133.445 105.018 133.445H105.031C105.049 133.443 106.82 133.288 108.129 133.288C108.3 133.288 108.464 133.29 108.62 133.297C108.699 133.297 108.763 133.235 108.766 133.156C108.77 133.076 108.707 133.008 108.626 133.003V133.006Z" fill="black"/>
<path id="Vector_33" d="M107.686 147.074C104.285 146.732 102.472 144.394 101.549 142.493C100.548 140.429 100.346 138.402 100.344 138.38C100.337 138.306 100.274 138.249 100.187 138.249H100.185C100.146 138.252 100.111 138.27 100.086 138.301C100.061 138.331 100.049 138.369 100.053 138.408C100.055 138.429 100.261 140.507 101.284 142.617C102.239 144.586 104.119 147.009 107.635 147.36L107.671 147.366C107.746 147.366 107.808 147.31 107.817 147.234C107.825 147.154 107.766 147.082 107.686 147.074Z" fill="black"/>
</g>
</g>
<g id="Group_9">
<path id="Vector_34" d="M147.48 152.614L146.358 134.164C144.948 134.217 144.122 134.266 144.12 134.266C144.12 134.266 144.019 134.519 140.431 133.193C136.969 131.926 133.212 130.155 130.321 130.204C129.847 130.209 129.392 130.27 128.963 130.386C128.494 130.517 127.976 130.64 127.451 130.765C124.65 131.446 121.568 132.327 123.224 135.858C123.224 135.858 120.545 137.333 123.41 140.004C123.41 140.004 121.869 140.763 122.221 142.339C122.566 143.924 124.466 144.021 124.466 144.021C124.466 144.021 122.738 146.36 126.476 147.618C127.19 147.862 128.101 148.06 129.268 148.199C129.835 148.269 138.527 151.635 142.892 152.218H142.899C143.135 152.251 145.194 152.402 147.481 152.612L147.48 152.614Z" fill="#CCCCCC"/>
<g id="Group_10">
<path id="Vector_35" d="M124.351 135.769C124.385 135.772 124.417 135.769 124.452 135.759L127.881 134.684C128.016 134.642 128.093 134.5 128.053 134.367C128.014 134.233 127.872 134.158 127.736 134.2L124.309 135.275C124.173 135.317 124.096 135.46 124.135 135.593C124.166 135.693 124.252 135.76 124.351 135.769Z" fill="black"/>
<path id="Vector_36" d="M124.726 139.973C124.761 139.976 124.798 139.973 124.833 139.961L127.608 139.03C127.743 138.986 127.816 138.842 127.774 138.708C127.731 138.575 127.588 138.504 127.455 138.549L124.681 139.48C124.547 139.525 124.472 139.668 124.514 139.803C124.546 139.899 124.632 139.964 124.727 139.973H124.726Z" fill="black"/>
<path id="Vector_37" d="M125.332 143.909C125.359 143.912 125.385 143.912 125.413 143.904L127.78 143.39C127.918 143.36 128.007 143.224 127.98 143.087C127.953 142.951 127.819 142.864 127.681 142.893L125.312 143.409C125.175 143.439 125.085 143.575 125.111 143.712C125.135 143.822 125.225 143.899 125.331 143.909H125.332Z" fill="black"/>
</g>
<path id="Vector_38" d="M154.027 134.356C151.571 133.873 146.859 133.925 145.779 133.944V133.937C144.79 133.977 144.19 134.012 144.107 134.017L143.947 134.026L143.945 134.03C143.686 134.001 142.88 133.831 140.517 132.959C139.801 132.698 139.073 132.414 138.343 132.129C135.597 131.059 132.757 129.954 130.439 129.954H130.318C129.823 129.96 129.346 130.024 128.896 130.146C128.444 130.272 127.948 130.391 127.392 130.523C125.327 131.025 123.416 131.593 122.747 132.989C122.379 133.756 122.431 134.666 122.907 135.766C122.581 135.999 121.958 136.551 121.851 137.411C121.75 138.223 122.137 139.079 123.001 139.959C122.417 140.367 121.711 141.21 121.976 142.395C122.233 143.574 123.299 144.073 124.062 144.223C123.888 144.588 123.698 145.198 123.908 145.867C124.177 146.723 125.014 147.393 126.394 147.857C127.162 148.12 128.092 148.314 129.236 148.451C129.264 148.455 129.326 148.473 129.407 148.497H130.257C130.28 148.422 130.305 148.349 130.337 148.277C129.732 148.07 129.416 147.968 129.297 147.954C128.203 147.823 127.28 147.631 126.555 147.384C125.337 146.973 124.607 146.415 124.387 145.721C124.131 144.919 124.661 144.18 124.665 144.173L124.942 143.798L124.477 143.773C124.46 143.773 122.766 143.669 122.465 142.287C122.161 140.927 123.464 140.26 123.519 140.231L123.843 140.069L123.579 139.823C122.675 138.98 122.261 138.19 122.347 137.477C122.455 136.585 123.335 136.084 123.344 136.079L123.549 135.965L123.45 135.753C122.96 134.708 122.877 133.875 123.198 133.207C123.773 132.007 125.564 131.484 127.508 131.011C128.068 130.878 128.568 130.758 129.028 130.631C129.435 130.521 129.87 130.462 130.324 130.457H130.437C132.662 130.456 135.457 131.544 138.159 132.598C138.893 132.884 139.625 133.169 140.343 133.431C142.304 134.155 143.578 134.539 144.025 134.539C144.087 134.539 144.139 134.53 144.181 134.516C144.328 134.508 144.814 134.481 145.563 134.449C145.566 134.449 145.568 134.452 145.571 134.452C145.629 134.449 151.257 134.324 153.93 134.849C153.946 134.852 153.962 134.855 153.978 134.855C154.095 134.855 154.2 134.771 154.224 134.653C154.25 134.517 154.162 134.385 154.026 134.358L154.027 134.356Z" fill="black"/>
<path id="Vector_39" d="M142.275 152.073C142.267 152.073 142.259 152.073 142.251 152.073C142.113 152.06 142.011 151.938 142.025 151.8L143.635 134.432C143.647 134.295 143.773 134.194 143.908 134.205C144.045 134.219 144.146 134.341 144.134 134.478L142.524 151.847C142.512 151.977 142.403 152.074 142.275 152.074V152.073Z" fill="black"/>
</g>
</g>
<path id="Vector_40" d="M149.32 113.244C139.948 117.015 133.093 119.056 128.099 119.947C120.432 121.323 117.153 119.986 115.899 118.028C115.656 117.648 115.48 117.229 115.366 116.782C121.348 112.059 125.164 108.054 127.351 104.917C129.248 102.206 129.925 100.14 129.738 98.8147C129.624 97.9841 129.17 97.3821 128.464 97.1237C128.174 97.016 127.848 96.9699 127.501 96.9842C126.237 97.0273 124.626 97.8333 122.991 99.2833C119.862 102.052 113.45 110.611 114.199 116.337C113.261 117.067 112.265 117.82 111.217 118.59C103.188 124.484 99.0351 124.632 96.9655 123.721C96.4427 123.491 96.0132 123.177 95.6555 122.804C105.93 112.19 109.806 102.972 107.311 99.914C106.717 99.1839 104.859 97.8333 100.477 101.042C95.8133 104.455 92.3046 112.802 92.9709 118.905C93.139 120.448 93.5654 121.734 94.2276 122.737C93.0529 123.922 91.7829 125.139 90.4113 126.385C89.6743 127.055 88.9619 127.638 88.271 128.144C85.2359 130.361 82.6435 130.98 80.5462 129.985C74.8582 127.292 73.4263 113.752 73.1362 104.314C72.7712 104.991 72.4309 105.704 72.1234 106.46C72.5744 115.946 74.3037 128.215 80.085 130.955C80.8794 131.334 81.7281 131.521 82.6199 131.521C84.2631 131.521 86.0713 130.883 88.025 129.616C89.0234 128.967 90.0577 128.154 91.1319 127.18C92.4676 125.966 93.7233 124.763 94.9011 123.573C95.3705 124.053 95.9138 124.429 96.5329 124.706C99.9197 126.196 105.074 124.43 111.85 119.455C112.763 118.786 113.629 118.13 114.463 117.489C114.596 117.88 114.771 118.256 114.996 118.607C116.793 121.422 121.203 122.217 128.173 120.995C133.743 120.021 140.949 117.761 149.77 114.216C149.616 113.887 149.465 113.561 149.319 113.242L149.32 113.244ZM94.038 118.788C93.4076 113.015 96.7154 105.13 101.112 101.91C102.769 100.699 104.204 100.069 105.228 100.069C105.766 100.069 106.191 100.24 106.481 100.592C108.052 102.519 105.898 110.691 95.0005 121.946C94.41 120.958 94.1446 119.786 94.038 118.788ZM123.703 100.09C125.299 98.6793 126.588 98.1317 127.429 98.063C127.489 98.06 127.547 98.0558 127.604 98.0558C127.797 98.0558 127.959 98.0846 128.091 98.1307C128.424 98.2527 128.614 98.5245 128.675 98.9613C128.79 99.7715 128.453 101.128 127.33 103.015C125.59 105.948 121.956 110.156 115.198 115.549C115.03 110.457 120.589 102.847 123.704 100.089L123.703 100.09Z" fill="white"/>
<path id="Vector_41" d="M133.369 130.855C133.243 130.855 133.134 130.76 133.121 130.631L130.496 106.04C130.481 105.903 130.581 105.779 130.718 105.764C130.854 105.749 130.979 105.849 130.994 105.987L133.619 130.577C133.634 130.715 133.534 130.839 133.397 130.853C133.388 130.853 133.378 130.854 133.369 130.854V130.855Z" fill="black"/>
<path id="Vector_42" d="M81.7979 148.356C81.7846 148.356 81.7713 148.355 81.7579 148.353C81.6216 148.331 81.5283 148.202 81.5498 148.066L88.4208 104.856C88.4423 104.719 88.5704 104.627 88.7078 104.648C88.8441 104.669 88.9374 104.798 88.9159 104.935L82.0449 148.145C82.0255 148.268 81.9189 148.356 81.7979 148.356Z" fill="black"/>
</g>
</g>
<g id="Group_11">
<g id="Group_12">
<path id="Vector_43" d="M27.4437 26.2077H2.14748C0.963548 26.2077 0 25.2438 0 24.0594V15.9418C0 14.7574 0.963548 13.7935 2.14748 13.7935H27.4437C28.6276 13.7935 29.5911 14.7574 29.5911 15.9418V24.0594C29.5911 25.2438 28.6276 26.2077 27.4437 26.2077ZM2.14646 14.5092C1.35717 14.5092 0.71446 15.1522 0.71446 15.9418V24.0594C0.71446 24.849 1.35717 25.4919 2.14646 25.4919H27.4426C28.2319 25.4919 28.8746 24.85 28.8746 24.0594V15.9418C28.8746 15.1522 28.2319 14.5092 27.4426 14.5092H2.14646Z" fill="#E6E6E6"/>
<path id="Vector_44" d="M39.853 40.0556H14.5568C13.3729 40.0556 12.4093 39.0917 12.4093 37.9073V29.7897C12.4093 28.6053 13.3729 27.6414 14.5568 27.6414H39.853C41.0369 27.6414 42.0005 28.6053 42.0005 29.7897V37.9073C42.0005 39.0917 41.0369 40.0556 39.853 40.0556ZM14.5568 28.3571C13.7675 28.3571 13.1248 29.0001 13.1248 29.7897V37.9073C13.1248 38.6969 13.7675 39.3398 14.5568 39.3398H39.853C40.6423 39.3398 41.285 38.6979 41.285 37.9073V29.7897C41.285 29.0001 40.6423 28.3571 39.853 28.3571H14.5568Z" fill="#E6E6E6"/>
<path id="Vector_45" d="M218.898 88.6994H193.601C192.417 88.6994 191.454 87.7355 191.454 86.5511V78.4335C191.454 77.2491 192.417 76.2852 193.601 76.2852H218.898C220.082 76.2852 221.046 77.2491 221.046 78.4335V86.5511C221.046 87.7355 220.082 88.6994 218.898 88.6994ZM193.602 77.0009C192.813 77.0009 192.17 77.6429 192.17 78.4335V86.5511C192.17 87.3407 192.813 87.9836 193.602 87.9836H218.899C219.689 87.9836 220.331 87.3417 220.331 86.5511V78.4335C220.331 77.6439 219.689 77.0009 218.899 77.0009H193.602Z" fill="#E6E6E6"/>
<path id="Vector_46" d="M206.488 102.546H181.192C180.008 102.546 179.045 101.582 179.045 100.398V92.2804C179.045 91.096 180.008 90.1321 181.192 90.1321H206.488C207.672 90.1321 208.636 91.096 208.636 92.2804V100.398C208.636 101.582 207.672 102.546 206.488 102.546ZM181.192 90.8479C180.403 90.8479 179.76 91.4898 179.76 92.2804V100.398C179.76 101.188 180.403 101.831 181.192 101.831H206.488C207.278 101.831 207.92 101.188 207.92 100.398V92.2804C207.92 91.4908 207.279 90.8479 206.488 90.8479H181.192Z" fill="#E6E6E6"/>
<path id="Vector_47" d="M33.23 138.717H7.93386C6.74992 138.717 5.78638 137.753 5.78638 136.568V128.451C5.78638 127.266 6.74992 126.302 7.93386 126.302H33.23C34.414 126.302 35.3775 127.266 35.3775 128.451V136.568C35.3775 137.753 34.414 138.717 33.23 138.717ZM7.93386 127.018C7.14457 127.018 6.50186 127.66 6.50186 128.451V136.568C6.50186 137.358 7.14457 138.001 7.93386 138.001H33.23C34.0193 138.001 34.662 137.359 34.662 136.568V128.451C34.662 127.661 34.0193 127.018 33.23 127.018H7.93386Z" fill="#E6E6E6"/>
</g>
<path id="Vector_48" d="M211.082 16.2998H185.786C184.602 16.2998 183.639 15.3358 183.639 14.1514V6.03385C183.639 4.84943 184.602 3.8855 185.786 3.8855H211.082C212.266 3.8855 213.23 4.84943 213.23 6.03385V14.1514C213.23 15.3358 212.266 16.2998 211.082 16.2998ZM185.786 4.60127C184.997 4.60127 184.354 5.24321 184.354 6.03385V14.1514C184.354 14.941 184.997 15.584 185.786 15.584H211.082C211.872 15.584 212.514 14.941 212.514 14.1514V6.03385C212.514 5.24424 211.873 4.60127 211.082 4.60127H185.786Z" fill="#E6E6E6"/>
</g>
</g>
<defs>
<clipPath id="clip0_1995_8559">
<rect width="221.046" height="160" fill="white"/>
</clipPath>
</defs>
</svg>
