<svg width="177" height="160" viewBox="0 0 177 160" fill="none" xmlns="http://www.w3.org/2000/svg">
<g id="person-box">
<g id="Gray">
<path id="Vector" d="M29.4638 40.6238L0 75.7929L29.4638 66.5552V40.6238Z" fill="#BEBEBE"/>
<path id="Vector_2" d="M160.962 24.2031L118.029 40.6239H29.4648L70.8439 24.7943L72.3917 24.2031H160.962Z" fill="#A3A3A3"/>
<g id="Group">
<path id="Vector_3" d="M98.5847 31.4532L98.5528 32.6458L98.5425 33.1329L98.3489 40.6239H91.554C89.8743 41.2305 87.9341 41.419 85.7004 41.0843C84.9053 40.9638 84.1618 40.8124 83.4666 40.6239H75.0909L75.1218 39.4211L75.2887 32.9084C75.2887 32.9084 75.2835 32.9084 75.2887 32.9032L75.3463 30.7014L83.1247 30.9527L84.1556 30.9898H84.1608L86.7714 31.0732L88.3563 31.1257L98.5837 31.4553L98.5847 31.4532Z" fill="#D7D7D7"/>
<path id="Vector_4" d="M98.5847 31.4532L98.5579 32.6355C98.5579 32.6355 98.5579 32.6406 98.5527 32.6458C98.355 33.1947 97.4395 35.5283 95.6445 37.8671C95.6445 37.8722 95.6393 37.8774 95.6393 37.8774C94.9071 38.8351 94.0276 39.7918 92.9864 40.6239H91.5539C89.8743 41.2305 87.934 41.419 85.7003 41.0843C84.9053 40.9638 84.1617 40.8124 83.4666 40.6239H77.0476C76.4194 40.2686 75.7819 39.8649 75.1228 39.4211L75.2896 32.9084C75.2896 32.9084 75.2845 32.9084 75.2896 32.9032L75.3473 30.7014L83.1257 30.9527L84.1566 30.9898H84.1617L86.7724 31.0732L88.3573 31.1257L98.5847 31.4553V31.4532Z" fill="#010101"/>
<g id="Group_2">
<path id="Vector_5" d="M100.621 21.4101C100.616 21.8447 100.599 22.2783 100.584 22.7118C100.562 23.2093 100.531 23.7056 100.495 24.2031C100.337 26.2071 100.035 28.1576 99.5692 29.9784C99.287 31.0814 98.9461 32.139 98.5435 33.1328C97.8009 34.9577 96.8432 36.5694 95.6455 37.867C95.6455 37.8721 95.6403 37.8773 95.6403 37.8773C94.4993 39.1121 93.145 40.0533 91.555 40.6239C89.8753 41.2305 87.9351 41.4189 85.7013 41.0842C84.9063 40.9637 84.1628 40.8123 83.4676 40.6239C78.9219 39.3901 76.4214 36.6744 75.2907 32.9083C75.2907 32.9083 75.2855 32.9083 75.2907 32.9032C74.7098 30.9835 74.4905 28.791 74.5379 26.3853C74.543 25.6788 74.5801 24.9518 74.6429 24.2041C74.7582 22.6346 74.9673 20.992 75.2495 19.2814C75.3278 18.8057 75.4112 18.3288 75.5008 17.8428C76.6408 11.5916 80.0671 9.2374 83.447 8.51033C83.8075 8.42691 84.1741 8.36924 84.5356 8.32702C84.5356 8.32702 84.539 8.3253 84.5459 8.32187C84.6499 8.31157 84.7549 8.30127 84.8548 8.29097H84.86C85.3203 8.2436 85.7755 8.223 86.2152 8.223C86.9372 8.21786 87.622 8.27038 88.245 8.3435C88.5169 8.37542 88.7734 8.41147 89.0133 8.44854C89.8815 8.58448 90.5673 8.75234 90.9752 8.85121C90.9752 8.85121 91.0225 8.86151 91.1162 8.87799C91.4509 8.9511 92.3613 9.17046 93.4911 9.67817C94.2284 10.0077 95.0657 10.4578 95.8927 11.0643C96.076 11.2003 96.2541 11.3414 96.4313 11.4876C98.6547 13.329 100.695 16.3897 100.622 21.4112L100.621 21.4101Z" fill="#D7D7D7"/>
<path id="Vector_6" d="M100.083 22.9919C100.083 22.9919 104.134 20.3956 105.185 24.239C106.238 28.0824 100.257 32.9535 99.1057 29.0937L100.082 22.9908L100.083 22.9919Z" fill="#D7D7D7"/>
<path id="Vector_7" d="M75.6676 19.6913C75.6676 19.6913 72.4514 16.1116 70.4174 19.5389C68.3815 22.9621 72.8561 29.2472 74.992 25.8323L75.6676 19.6903V19.6913Z" fill="#D7D7D7"/>
<path id="Vector_8" d="M92.4025 23.1795C92.2769 24.1053 92.5436 24.9096 92.9968 24.9704C93.4519 25.0311 93.9215 24.3288 94.0472 23.4019C94.1718 22.473 93.9051 21.6707 93.452 21.6079C92.9978 21.5492 92.5282 22.2505 92.4025 23.1795Z" fill="#010101"/>
<path id="Vector_9" d="M80.8281 21.6142C80.7025 22.541 80.9682 23.3453 81.4224 23.404C81.8745 23.4668 82.3441 22.7635 82.4708 21.8366C82.5974 20.9087 82.3297 20.1065 81.8765 20.0447C81.4224 19.9839 80.9528 20.6863 80.8281 21.6152V21.6142Z" fill="#010101"/>
<path id="Vector_10" d="M100.769 27.0052C100.942 27.0412 101.116 26.9403 101.17 26.7694C101.484 25.7436 101.917 25.1093 102.432 24.9352C102.923 24.7684 103.363 25.0691 103.366 25.0712C103.522 25.1814 103.736 25.1474 103.844 24.9939C103.955 24.8394 103.92 24.6252 103.767 24.515C103.736 24.4934 103.039 24.0042 102.21 24.2874C101.469 24.5387 100.898 25.306 100.511 26.5696C100.459 26.7519 100.56 26.9434 100.74 26.998C100.748 27.0011 100.759 27.0031 100.768 27.0052H100.769Z" fill="#010101"/>
<path id="Vector_11" d="M73.5461 23.3225C73.5739 23.3297 73.6007 23.3307 73.6285 23.3276C73.818 23.3246 73.9673 23.166 73.9611 22.9785C73.9251 21.6572 73.5791 20.7654 72.9303 20.3267C72.2052 19.8385 71.4051 20.1228 71.3711 20.1331C71.1939 20.201 71.1033 20.3957 71.1692 20.5749C71.2351 20.752 71.4287 20.8416 71.6059 20.7778C71.6327 20.7716 72.1249 20.6058 72.5533 20.8993C72.9982 21.2041 73.2474 21.9291 73.2773 22.9971C73.2825 23.1587 73.3957 23.2906 73.5461 23.3235V23.3225Z" fill="#010101"/>
<path id="Vector_12" d="M86.621 27.7509C86.7868 27.7879 86.9557 27.6942 87.0154 27.5295C87.0772 27.3513 86.9845 27.1556 86.8064 27.0928C86.4439 26.9641 85.4398 26.4708 85.5685 25.9198C85.5829 25.8529 85.6148 25.8148 85.6766 25.7808C86.0309 25.5934 86.9794 25.8076 87.5386 26.0238C87.7167 26.0908 87.9124 26.0012 87.9794 25.824C88.0473 25.6479 87.9608 25.4492 87.7827 25.3812C87.6148 25.3174 86.1236 24.7684 85.3563 25.1752C85.1184 25.3019 84.9619 25.5048 84.9012 25.7633C84.6653 26.7705 85.8435 27.478 86.5788 27.7395C86.5911 27.7447 86.6045 27.7478 86.621 27.7509Z" fill="#010101"/>
<path id="Vector_13" d="M100.578 22.7283C100.578 22.7283 106.785 11.12 100.027 8.23022C100.027 8.23022 100.917 0.518771 92.696 2.82768C92.696 2.82768 84.3316 -3.9322 80.443 3.45176C80.443 3.45176 71.6553 4.28181 75.2536 19.2928C75.2536 19.2928 76.1454 21.9364 77.374 18.0951C78.6026 14.2558 78.8302 12.2085 84.0639 12.8645C89.2986 13.5226 89.6189 14.5277 93.4777 13.7316C97.3375 12.9345 98.2469 16.7099 98.3344 17.9375C98.4219 19.1671 99.3364 24.7901 100.58 22.7283H100.578Z" fill="#D7D7D7"/>
<path id="Vector_14" d="M97.7062 8.91194C97.528 8.83882 97.3292 8.92224 97.2561 9.09525C97.251 9.1107 96.7752 10.225 95.8905 11.0622C95.4827 11.4443 94.9905 11.7636 94.421 11.8944C93.7722 12.0406 93.0925 11.9314 92.3809 11.5648C92.9143 11.3238 93.3118 10.9994 93.489 10.6184C93.5775 10.4299 93.6774 10.0798 93.489 9.67608C93.3427 9.36198 93.008 9.01183 92.3438 8.68743C90.0627 7.568 88.7187 7.29097 88.3315 7.86562C88.2481 7.98611 88.2007 8.1375 88.2429 8.34141C88.3264 8.82749 88.902 9.63283 90.6857 11.2085C90.7166 11.2394 90.7485 11.2662 90.7794 11.2919C89.7125 11.4227 88.3676 11.3022 87.0236 10.7162C87.175 10.434 87.2224 10.156 87.2069 9.88926C87.1647 9.25076 86.7363 8.64418 86.2131 8.22092C85.727 7.81825 85.1617 7.57211 84.759 7.59786C84.0422 7.64523 83.5345 7.97478 83.4511 8.46602C83.4459 8.48147 83.4459 8.49176 83.4459 8.50824C83.3471 9.24046 84.1524 10.0458 85.8527 10.9139C85.1462 11.3269 83.9063 11.6101 82.2225 11.7193C79.272 11.9077 77.5408 12.6039 77.0805 13.781C76.5831 15.0632 77.7921 16.3443 77.8446 16.402C77.8601 16.4174 77.8766 16.4277 77.892 16.4442C77.9281 16.4699 77.9754 16.4916 78.0177 16.4967C78.1278 16.5235 78.2422 16.4916 78.3266 16.4082C78.4677 16.2825 78.4728 16.0632 78.3369 15.9272C78.3369 15.9221 78.2586 15.8387 78.1536 15.6976C77.892 15.3474 77.479 14.6512 77.7252 14.0282C77.9662 13.4051 78.9548 12.6152 82.2709 12.401C84.6035 12.2548 85.8908 11.7996 86.5602 11.2559C86.6127 11.2816 86.659 11.3032 86.7116 11.3238C88.349 12.056 90.1595 12.1611 91.5137 11.847C92.5652 12.5483 93.5899 12.7883 94.5785 12.5586C94.7927 12.5061 95.0028 12.4381 95.1954 12.3444C95.4673 12.2291 95.7186 12.0777 95.9493 11.8995C96.1223 11.7739 96.2788 11.6328 96.4302 11.4865C97.3715 10.571 97.8586 9.43613 97.8895 9.36301C97.9626 9.18484 97.8792 8.98609 97.7062 8.91297V8.91194ZM86.3964 10.4186C84.0319 9.26208 84.1153 8.61946 84.1215 8.59372C84.1421 8.47838 84.3048 8.37436 84.5345 8.32699C84.5345 8.32699 84.5379 8.32527 84.5448 8.32184C84.623 8.30124 84.7116 8.29095 84.8012 8.2858C84.8167 8.2858 84.8331 8.2858 84.8537 8.29094H84.8589C84.8908 8.29094 84.9217 8.29609 84.9526 8.30124C85.4964 8.41659 86.4747 9.18073 86.5221 9.93354C86.5324 10.1066 86.4912 10.2682 86.3964 10.4196V10.4186ZM91.1409 10.6956C89.6816 9.41347 89.1791 8.75437 89.0112 8.44645C88.9587 8.35789 88.9391 8.29506 88.9278 8.25799C89.0164 8.24254 89.1894 8.25284 89.4509 8.30536C89.8227 8.38363 90.3716 8.55664 91.1141 8.87589C91.3912 8.99124 91.7001 9.13232 92.04 9.29916C92.4375 9.49792 93.075 9.89029 92.8669 10.3249C92.7258 10.6287 92.2861 10.9212 91.6527 11.1096C91.4797 10.984 91.3078 10.848 91.1399 10.6967L91.1409 10.6956Z" fill="#010101"/>
<path id="Vector_15" d="M93.0401 17.7892C93.1945 17.8026 93.3274 17.919 93.35 18.0807C93.4211 18.539 93.555 18.8397 93.7105 18.8829C93.9525 18.9447 94.4396 18.5524 94.6991 18.2393C94.8186 18.0951 95.0349 18.0745 95.1811 18.194C95.3253 18.3155 95.3469 18.5297 95.2244 18.677C95.075 18.8582 94.2923 19.7532 93.5282 19.5431C93.0802 19.4185 92.7919 18.9622 92.6714 18.1826C92.6425 17.9962 92.7723 17.8222 92.9587 17.7923C92.9875 17.7882 93.0143 17.7872 93.0401 17.7882V17.7892Z" fill="#010101"/>
<path id="Vector_16" d="M81.7581 16.091C81.8848 16.1013 81.9991 16.1795 82.0495 16.3041C82.1989 16.6769 82.5356 17.198 82.7859 17.2176L82.7921 17.2197C82.9527 17.2259 83.1731 16.9828 83.3822 16.5678C83.4676 16.3979 83.6726 16.3309 83.8415 16.4154C84.0093 16.5008 84.0794 16.7058 83.9949 16.8747C83.6396 17.5791 83.2266 17.9261 82.7622 17.9045C81.9836 17.888 81.4996 16.7758 81.4121 16.5585C81.3431 16.3814 81.4296 16.1837 81.6036 16.1126C81.6551 16.0941 81.7066 16.0868 81.7581 16.091Z" fill="#010101"/>
<path id="Vector_17" d="M97.0862 14.8716C97.1047 14.8747 97.1222 14.8767 97.1418 14.8788C97.3323 14.886 97.493 14.7408 97.5012 14.5523C97.5857 12.6523 96.077 11.8253 95.2613 11.6502H95.2541C95.0677 11.6111 94.8865 11.7306 94.8494 11.917C94.8092 12.1013 94.9277 12.2815 95.112 12.3217C95.1851 12.3372 96.8967 12.7306 96.8164 14.5214C96.8081 14.6903 96.9255 14.8376 97.0862 14.8716Z" fill="#010101"/>
<path id="Vector_18" d="M84.9639 32.3399C84.8383 33.2657 85.105 34.07 85.5582 34.1308C86.0133 34.1915 86.483 33.4892 86.6086 32.5623C86.7332 31.6334 86.4665 30.8311 86.0133 30.7683C85.5592 30.7096 85.0896 31.4109 84.9639 32.3399Z" fill="#010101"/>
</g>
</g>
<path id="Vector_19" d="M106.432 40.624H100.693C100.614 40.4932 100.52 40.3315 100.426 40.1585C100.066 39.5097 99.6412 38.6827 99.5681 38.5838C99.1654 38.0288 98.564 36.1462 100.086 35.1421C101.897 33.9331 105.558 37.8094 105.558 37.8094L106.348 40.3624L106.431 40.624H106.432Z" fill="#D7D7D7"/>
<path id="Vector_20" d="M63.3054 38.5838C63.2323 38.6827 62.808 39.5097 62.4476 40.1585C62.3487 40.3315 62.2591 40.4932 62.1809 40.624H56.4364L56.5198 40.3624L57.3149 37.8094C57.3149 37.8094 60.977 33.9331 62.7864 35.1421C64.3085 36.1462 63.7019 38.0298 63.3044 38.5838H63.3054Z" fill="#D7D7D7"/>
<path id="Vector_21" d="M160.957 24.2031V143.579L118.029 160L29.4596 156.338V40.6239H118.029L160.957 24.2031Z" fill="#E5E5E5"/>
<path id="Vector_22" d="M29.4637 40.6238L17.3878 72.5324H105.777L118.029 40.6238H29.4637Z" fill="#F2F2F2"/>
<g id="Group_3">
<path id="Vector_23" d="M57.7814 38.5756C57.7814 38.5756 58.0944 32.3883 54.1975 33.3224C54.1975 33.3224 53.7269 33.5129 52.3222 34.3223C52.3222 34.3223 49.9031 32.7209 46.9763 34.4624C46.9763 34.4624 42.7838 33.1452 41.3399 34.7858C41.3399 34.7858 37.374 33.1061 35.8272 35.2873C34.2804 37.4664 34.7407 39.2965 34.7407 39.2965C34.7407 39.2965 35.5419 47.1202 37.683 47.184C37.683 47.184 39.8487 47.4446 40.1731 46.2479C40.1731 46.2479 41.8981 48.5403 43.6684 48.0975C45.4397 47.6547 45.7858 45.7052 45.7858 45.7052C45.7858 45.7052 46.5942 49.3683 48.7713 49.2715C50.9473 49.1757 51.3912 46.4703 51.4056 45.4776C51.4056 45.4776 52.0503 47.8194 53.6208 47.6598C55.1923 47.5002 56.32 44.767 56.318 44.6774C56.3159 44.5878 57.7824 38.5776 57.7824 38.5776L57.7814 38.5756Z" fill="#D7D7D7"/>
<path id="Vector_24" d="M51.5364 44.4271C51.7207 44.423 51.8804 44.2809 51.902 44.0904C51.9329 43.8154 52.6414 37.3562 52.4849 36.0638C52.4612 35.8568 52.2758 35.7075 52.0647 35.7322C51.8577 35.7589 51.7084 35.9464 51.7341 36.1544C51.8515 37.1554 51.3531 42.1615 51.1461 44.0059C51.1245 44.2129 51.2759 44.4014 51.4829 44.4261C51.5004 44.4261 51.5189 44.4261 51.5364 44.4261V44.4271Z" fill="#010101"/>
<path id="Vector_25" d="M45.8414 44.8143C46.0288 44.8112 46.1915 44.665 46.2069 44.4714C46.2348 44.2077 46.8341 37.9988 46.7971 36.5272C46.7919 36.3171 46.6179 36.1502 46.4078 36.1564C46.1977 36.1616 46.0308 36.3377 46.037 36.5478C46.0751 37.972 45.4603 44.3354 45.4541 44.3982C45.4335 44.6094 45.586 44.7927 45.796 44.8133C45.8105 44.8133 45.8259 44.8153 45.8434 44.8153L45.8414 44.8143Z" fill="#010101"/>
<path id="Vector_26" d="M40.3483 45.3539C40.5378 45.3477 40.6984 45.2025 40.7139 45.0078L41.4451 36.5899C41.4646 36.3809 41.3101 36.1965 41.1011 36.179C40.8941 36.1605 40.7087 36.3129 40.6912 36.524L39.959 44.9409C39.9415 45.15 40.096 45.3333 40.3061 45.3518C40.3194 45.3518 40.3328 45.3528 40.3493 45.3528L40.3483 45.3539Z" fill="#010101"/>
</g>
<path id="Vector_27" d="M160.959 24.2009V143.579L118.028 160V40.6248L160.959 24.2009Z" fill="#BEBEBE"/>
<path id="Vector_28" d="M118.029 40.6238L129.686 74.8866L176.053 53.1518L161.564 24.2009L118.029 40.6238Z" fill="#E5E5E5"/>
<g id="Group_4">
<path id="Vector_29" d="M105.092 38.5756C105.092 38.5756 104.779 32.3883 108.676 33.3224C108.676 33.3224 109.146 33.5129 110.551 34.3223C110.551 34.3223 112.97 32.7209 115.897 34.4624C115.897 34.4624 120.09 33.1452 121.534 34.7858C121.534 34.7858 125.5 33.1061 127.046 35.2873C128.593 37.4664 128.133 39.2965 128.133 39.2965C128.133 39.2965 127.332 47.1202 125.191 47.184C125.191 47.184 123.025 47.4446 122.7 46.2479C122.7 46.2479 120.975 48.5403 119.205 48.0975C117.434 47.6547 117.088 45.7052 117.088 45.7052C117.088 45.7052 116.278 49.3683 114.102 49.2715C111.926 49.1757 111.482 46.4703 111.468 45.4776C111.468 45.4776 110.823 47.8194 109.253 47.6598C107.681 47.5002 106.554 44.767 106.556 44.6774C106.558 44.5878 105.091 38.5776 105.091 38.5776L105.092 38.5756Z" fill="#D7D7D7"/>
<path id="Vector_30" d="M111.336 44.4271C111.152 44.423 110.992 44.2809 110.971 44.0904C110.94 43.8154 110.231 37.3562 110.388 36.0638C110.411 35.8568 110.598 35.7075 110.808 35.7322C111.015 35.7589 111.164 35.9464 111.138 36.1544C111.02 37.1554 111.519 42.1615 111.726 44.0059C111.748 44.2129 111.597 44.4014 111.39 44.4261C111.372 44.4261 111.354 44.4261 111.336 44.4261V44.4271Z" fill="#010101"/>
<path id="Vector_31" d="M117.032 44.8143C116.844 44.8112 116.683 44.665 116.667 44.4714C116.639 44.2077 116.039 37.9988 116.076 36.5272C116.082 36.3171 116.256 36.1502 116.466 36.1564C116.676 36.1616 116.843 36.3377 116.838 36.5478C116.799 37.972 117.414 44.3354 117.42 44.3982C117.44 44.6094 117.289 44.7927 117.079 44.8133C117.064 44.8133 117.048 44.8153 117.031 44.8153L117.032 44.8143Z" fill="#010101"/>
<path id="Vector_32" d="M122.524 45.3539C122.335 45.3477 122.174 45.2025 122.158 45.0078L121.426 36.5899C121.407 36.3809 121.561 36.1965 121.77 36.179C121.977 36.1605 122.163 36.3129 122.18 36.524L122.913 44.9409C122.93 45.15 122.776 45.3333 122.565 45.3518C122.552 45.3518 122.539 45.3528 122.522 45.3528L122.524 45.3539Z" fill="#010101"/>
</g>
</g>
</g>
</svg>
