<svg width="222" height="160" viewBox="0 0 222 160" fill="none" xmlns="http://www.w3.org/2000/svg">
<g id="person-short-hair-window-happy-coffee-COLOR_NOT_UPDATED" clip-path="url(#clip0_1995_8558)">
<g id="Group">
<path id="Vector" d="M164.469 4.30908H57.75V150.421H164.469V4.30908Z" fill="white"/>
<path id="Vector_2" d="M54.1548 0.529714V156.707C54.1548 157 54.393 157.237 54.6854 157.237H166.767C167.061 157.237 167.299 157 167.299 156.707V0.529714C167.299 0.237333 167.061 0 166.767 0H54.6863C54.393 0 54.1557 0.237333 54.1557 0.529714H54.1548ZM61.4011 9.20278C61.4011 8.94198 61.6051 8.73172 61.8632 8.73172H159.59C159.848 8.73172 160.055 8.94198 160.055 9.20278V148.037C160.055 148.298 159.848 148.508 159.59 148.508H61.8641C61.606 148.508 61.402 148.298 61.402 148.037V9.20278H61.4011Z" fill="#F4F4F4"/>
<path id="Vector_3" d="M46.6747 158.561C46.6747 159.356 47.3551 160 48.197 160H173.258C174.099 160 174.781 159.356 174.781 158.561V154.529C174.781 153.734 174.099 153.088 173.258 153.088H48.197C47.356 153.088 46.6747 153.734 46.6747 154.529V158.561Z" fill="#F4F4F4"/>
<path id="Vector_4" d="M55.1754 153.674H166.073C166.32 153.674 166.52 153.475 166.52 153.228C166.52 152.982 166.32 152.782 166.073 152.782H55.1754C54.9281 152.782 54.7278 152.982 54.7278 153.228C54.7278 153.475 54.9281 153.674 55.1754 153.674Z" fill="black"/>
<path id="Vector_5" d="M64.6877 71.3311C64.6877 73.0755 66.1072 74.494 67.8516 74.494C69.596 74.494 71.0154 73.0746 71.0154 71.3311C71.0154 69.7393 69.8324 68.4217 68.2992 68.2034V45.7108C68.2992 45.4635 68.0989 45.2632 67.8516 45.2632C67.6043 45.2632 67.404 45.4635 67.404 45.7108V68.2034C65.8717 68.4226 64.6877 69.7392 64.6877 71.332V71.3311ZM65.5829 71.3311C65.5829 70.0804 66.6009 69.0633 67.8516 69.0633C69.1023 69.0633 70.1203 70.0804 70.1203 71.3311C70.1203 72.5818 69.1023 73.5989 67.8516 73.5989C66.6009 73.5989 65.5829 72.5818 65.5829 71.3311Z" fill="#E6E6E6"/>
<g id="Group_2">
<path id="Vector_6" d="M61.401 9.20087V46.8187H160.054V9.20087C160.054 8.94097 159.847 8.73071 159.59 8.73071H61.863C61.6068 8.73071 61.401 8.94097 61.401 9.20087Z" fill="#F4F4F4"/>
<path id="Vector_7" d="M61.0437 9.20088V46.2999H61.7602V39.3405H159.698V46.2999H160.414V9.20088C160.414 8.74516 160.045 8.37427 159.591 8.37427H61.8631C61.411 8.37427 61.0437 8.74516 61.0437 9.20088ZM159.697 26.3133H61.7593V21.138H159.697V26.3133ZM61.7593 15.0701H159.697V20.2455H61.7593V15.0701ZM159.697 32.3811H61.7593V27.2058H159.697V32.3811ZM159.697 9.20088V14.1777H61.7593V9.20088C61.7593 9.13771 61.8044 9.08807 61.8631 9.08807H159.59C159.648 9.08807 159.697 9.13861 159.697 9.20088ZM61.7593 38.4489V33.2736H159.697V38.4489H61.7593Z" fill="black"/>
</g>
<g id="Group_3">
<path id="Vector_8" d="M103.747 81.3044L103.464 92.2218L118.953 92.6207L119.231 81.8062L103.747 81.3044Z" fill="#CCCCCC"/>
<path id="Vector_9" d="M103.747 81.3044L103.597 87.1151C114.552 94.5473 118.842 83.6083 119.211 82.5949L119.232 81.8062L103.747 81.3044Z" fill="black"/>
<path id="Vector_10" d="M119.001 90.3476L127.493 92.4502C127.493 92.4502 122.786 101.012 110.091 100.684C97.3956 100.356 93.3086 92.8012 93.3086 92.8012L103.57 90.3782C103.57 90.3782 113.103 89.1519 119.001 90.3476Z" fill="#CCCCCC"/>
<path id="Vector_11" d="M139.351 148.509H87.7931L88.839 133.754L88.9319 132.426L91.7935 92.0448L103.572 89.1616C103.572 89.1616 110.956 102.437 119.003 90.351L125.925 91.5792L127.397 91.8373L132.948 92.8218L136.604 124.612L136.73 125.715L139.351 148.509Z" fill="#CCCCCC"/>
<path id="Vector_12" d="M110.657 96.2799C115.301 96.2799 119.036 90.7165 119.195 90.4755C119.266 90.3682 119.237 90.2247 119.129 90.1534C119.022 90.0821 118.878 90.1119 118.807 90.2202C118.768 90.2779 114.928 95.9965 110.428 95.8106C107.958 95.7041 105.539 92.7505 103.593 89.1788C103.531 89.066 103.39 89.0236 103.278 89.0867C103.165 89.1472 103.123 89.2898 103.185 89.4017C105.216 93.1277 107.766 96.1625 110.41 96.2753C110.493 96.2789 110.575 96.2808 110.657 96.2808L110.657 96.2799Z" fill="black"/>
<path id="Vector_13" d="M61.0916 149.823C63.0363 153.343 68.1575 153.085 73.5972 152.612C80.3662 152.028 86.8906 145.686 91.5028 136.812C91.5028 136.812 92.2699 129.618 92.9097 120.998C92.935 120.65 92.9602 120.299 92.9855 119.948C93.3438 114.971 93.6479 109.602 93.7336 104.919C93.7471 104.271 93.7553 103.633 93.7553 103.016C93.7661 101.204 93.7372 99.5321 93.6551 98.0639C93.6334 97.6912 93.6082 97.3302 93.5838 96.9855C93.3293 93.7837 92.7816 91.8327 91.7934 92.0439C91.7934 92.0439 79.1191 95.7465 75.5383 104.821C74.7433 106.837 73.368 109.788 71.7563 113.244C71.6101 113.563 71.4594 113.889 71.3051 114.218C65.693 126.29 57.7509 143.769 61.0916 149.822V149.823Z" fill="#CCCCCC"/>
<path id="Vector_14" d="M159.986 148.291C159.903 148.423 159.757 148.51 159.591 148.51H136.665C135.966 145.179 134.48 137.878 133.076 129.619C132.994 129.131 132.911 128.641 132.829 128.147C132.692 127.319 132.553 126.485 132.42 125.647C132.359 125.268 132.298 124.892 132.241 124.516C129.785 108.83 128.206 91.9846 132.947 92.822C132.947 92.822 142.773 94.6124 147.97 104.318C148.336 104.995 148.676 105.708 148.984 106.463C149.435 107.541 149.826 108.705 150.144 109.954C151.057 113.521 152.139 117.739 153.257 122.087C153.342 122.435 153.432 122.786 153.522 123.133C156.125 133.279 158.851 143.875 159.986 148.29V148.291Z" fill="#CCCCCC"/>
<g id="Group_4">
<g id="Group_5">
<path id="Vector_15" d="M99.3329 132.808C99.3329 134.328 104.389 135.56 110.627 135.56C116.866 135.56 121.922 134.327 121.922 132.808C121.922 131.288 116.865 130.055 110.627 130.055C104.39 130.055 99.3329 131.288 99.3329 132.808Z" fill="#DA002F"/>
<path id="Vector_16" d="M121.922 133.496C121.922 133.496 120.606 131.958 111.316 131.958C102.026 131.958 99.5359 133.678 99.5359 133.678C99.5359 133.678 102.552 136.31 110.729 136.31C118.907 136.31 121.923 133.497 121.923 133.497L121.922 133.496Z" fill="black" fill-opacity="0.5"/>
<path id="Vector_17" d="M92.9384 137.315C93.1089 139.827 94.2613 142.109 96.1834 143.738C98.0298 145.302 100.475 146.176 103.084 146.206C104.793 147.688 107.224 148.676 110.669 148.676C124.474 148.676 121.921 132.757 121.921 132.757C121.923 132.774 121.924 132.79 121.924 132.807C121.924 134.327 116.867 135.559 110.629 135.559C104.392 135.559 99.3346 134.327 99.3346 132.807C99.3346 132.807 99.2859 133.122 99.2399 133.662C97.9729 133.354 95.6212 133.003 94.1449 134.135C93.5285 134.608 92.8202 135.544 92.9402 137.315H92.9384ZM95.1294 135.42C96.0878 134.685 98.1227 135.034 99.1623 135.316C99.1388 137.765 99.4935 141.536 101.514 144.449C97.6363 143.801 94.8082 140.953 94.5537 137.206C94.4959 136.346 94.6836 135.762 95.1294 135.42Z" fill="#DA002F"/>
<g id="Group_6">
<path id="Vector_18" d="M109.718 132.55C109.713 132.47 109.774 132.401 109.854 132.395C110.466 132.354 111.15 132.334 111.886 132.334C115.368 132.334 118.98 132.781 119.132 132.8C119.171 132.805 119.205 132.825 119.229 132.856C119.253 132.887 119.263 132.926 119.259 132.964C119.25 133.037 119.188 133.092 119.115 133.092L119.09 133.09C118.703 133.042 115.213 132.627 111.884 132.627C111.154 132.627 110.478 132.647 109.863 132.687C109.787 132.687 109.724 132.628 109.719 132.55H109.718Z" fill="black"/>
<path id="Vector_19" d="M102.555 134.011C102.576 133.955 102.631 133.916 102.692 133.916L102.743 133.925C105.124 134.791 110.214 134.847 110.264 134.847C110.303 134.847 110.34 134.862 110.368 134.89C110.395 134.918 110.41 134.955 110.41 134.994C110.41 135.074 110.343 135.139 110.263 135.139C110.211 135.139 105.104 135.094 102.645 134.2C102.569 134.173 102.529 134.09 102.556 134.011H102.555Z" fill="black"/>
<path id="Vector_20" d="M112.466 133.005C113.78 132.953 116.069 133.152 116.088 133.154C116.127 133.158 116.162 133.176 116.187 133.205C116.212 133.235 116.224 133.274 116.221 133.313C116.213 133.388 116.15 133.446 116.074 133.446H116.061C116.044 133.444 114.271 133.289 112.962 133.289C112.79 133.289 112.627 133.292 112.471 133.298C112.392 133.298 112.328 133.237 112.326 133.158C112.322 133.078 112.384 133.01 112.466 133.006L112.466 133.005Z" fill="black"/>
<path id="Vector_21" d="M113.406 147.074C116.809 146.732 118.623 144.394 119.546 142.493C120.548 140.428 120.749 138.401 120.751 138.38C120.759 138.307 120.821 138.249 120.908 138.249H120.909C120.948 138.253 120.984 138.271 121.009 138.301C121.034 138.331 121.046 138.369 121.042 138.408C121.04 138.429 120.834 140.507 119.81 142.618C118.856 144.587 116.974 147.01 113.456 147.36L113.42 147.366C113.345 147.366 113.282 147.309 113.275 147.234C113.267 147.154 113.326 147.083 113.406 147.074Z" fill="black"/>
</g>
</g>
<g id="Group_7">
<path id="Vector_22" d="M73.5963 152.614L74.7198 134.165C76.1303 134.217 76.956 134.267 76.9578 134.267C76.9578 134.267 77.058 134.519 80.6486 133.195C84.1121 131.927 87.8706 130.156 90.7638 130.206C91.2375 130.21 91.6923 130.272 92.121 130.388C92.5911 130.519 93.1082 130.643 93.6334 130.767C96.4363 131.448 99.5189 132.329 97.8621 135.859C97.8621 135.859 100.542 137.336 97.6771 140.007C97.6771 140.007 99.2184 140.766 98.8665 142.341C98.5209 143.926 96.6213 144.024 96.6213 144.024C96.6213 144.024 98.3494 146.363 94.6107 147.62C93.896 147.864 92.9846 148.062 91.8178 148.202C91.2511 148.272 82.5554 151.638 78.1887 152.22H78.1815C77.945 152.254 75.8848 152.404 73.5972 152.614L73.5963 152.614Z" fill="#CCCCCC"/>
<g id="Group_8">
<path id="Vector_23" d="M96.7348 135.769C96.7015 135.773 96.6681 135.769 96.6329 135.758L93.2028 134.684C93.0674 134.642 92.9898 134.5 93.0304 134.365C93.0692 134.232 93.2118 134.158 93.3472 134.199L96.7763 135.274C96.9117 135.316 96.9893 135.459 96.9496 135.592C96.9189 135.693 96.8323 135.759 96.7339 135.768L96.7348 135.769Z" fill="black"/>
<path id="Vector_24" d="M96.3594 139.973C96.3242 139.976 96.2881 139.973 96.2529 139.96L93.4762 139.03C93.3418 138.985 93.2678 138.841 93.3102 138.708C93.3526 138.575 93.497 138.504 93.6305 138.549L96.4063 139.479C96.5408 139.524 96.6157 139.669 96.5733 139.802C96.5417 139.899 96.456 139.964 96.3603 139.973H96.3594Z" fill="black"/>
<path id="Vector_25" d="M95.7539 143.91C95.7268 143.913 95.7006 143.912 95.6736 143.904L93.3057 143.389C93.1676 143.359 93.0773 143.224 93.1044 143.087C93.1324 142.95 93.2668 142.863 93.4031 142.893L95.7728 143.408C95.9109 143.438 96.0002 143.574 95.9732 143.711C95.9497 143.821 95.8595 143.899 95.7539 143.91Z" fill="black"/>
</g>
<path id="Vector_26" d="M67.0467 134.356C69.503 133.873 74.2172 133.926 75.2983 133.944V133.937C76.2883 133.977 76.8884 134.011 76.9723 134.016L77.132 134.025L77.1338 134.029C77.3928 134.001 78.1987 133.831 80.563 132.958C81.2786 132.697 82.0077 132.412 82.7378 132.128C85.4847 131.059 88.3255 129.952 90.6447 129.952H90.7656C91.2601 129.959 91.7384 130.023 92.1878 130.145C92.6399 130.271 93.1362 130.39 93.6921 130.522C95.7586 131.024 97.67 131.591 98.3395 132.988C98.7077 133.755 98.6554 134.665 98.1789 135.765C98.5047 135.998 99.1292 136.55 99.2356 137.409C99.3367 138.221 98.9496 139.078 98.0851 139.957C98.668 140.365 99.3755 141.209 99.1111 142.393C98.8539 143.572 97.7873 144.071 97.0247 144.222C97.198 144.587 97.3893 145.198 97.179 145.865C96.9101 146.722 96.0727 147.391 94.692 147.856C93.9232 148.119 92.9928 148.313 91.8485 148.45C91.8214 148.454 91.7583 148.472 91.6771 148.496H90.827C90.8044 148.421 90.7782 148.347 90.7476 148.275C91.3522 148.067 91.6698 147.966 91.788 147.952C92.8827 147.821 93.8049 147.629 94.5314 147.382C95.7496 146.972 96.4797 146.412 96.6999 145.719C96.9553 144.918 96.4255 144.178 96.4201 144.171L96.1431 143.795L96.6087 143.771C96.6259 143.771 98.3206 143.667 98.622 142.285C98.9252 140.925 97.6221 140.257 97.5662 140.229L97.2422 140.068L97.5066 139.821C98.4108 138.978 98.8259 138.189 98.7393 137.475C98.631 136.582 97.7503 136.082 97.7412 136.077L97.5364 135.963L97.6357 135.751C98.1257 134.706 98.2087 133.873 97.8883 133.205C97.3135 132.005 95.5204 131.482 93.5757 131.009C93.0162 130.876 92.5154 130.756 92.0552 130.628C91.6482 130.518 91.2132 130.46 90.7593 130.455H90.6456C88.4202 130.455 85.6246 131.542 82.9201 132.595C82.1855 132.881 81.4536 133.165 80.7353 133.428C78.7726 134.153 77.4993 134.536 77.0517 134.536C76.9885 134.536 76.9371 134.528 76.8947 134.513C76.7476 134.504 76.2621 134.478 75.5122 134.446C75.5095 134.446 75.5068 134.448 75.5032 134.448C75.4463 134.446 69.8153 134.32 67.1414 134.846C67.1252 134.85 67.1089 134.851 67.0927 134.851C66.9754 134.851 66.8707 134.768 66.8472 134.649C66.8211 134.513 66.9095 134.381 67.0449 134.354L67.0467 134.356Z" fill="black"/>
<path id="Vector_27" d="M78.8042 152.073C78.8123 152.073 78.8196 152.073 78.8277 152.072C78.9658 152.06 79.0668 151.937 79.0542 151.8L77.4425 134.431C77.4299 134.293 77.3044 134.193 77.17 134.205C77.0319 134.217 76.9308 134.34 76.9434 134.477L78.5552 151.846C78.5669 151.976 78.6761 152.073 78.8042 152.073Z" fill="black"/>
</g>
</g>
<path id="Vector_28" d="M87.7127 130.856C87.8391 130.856 87.9474 130.76 87.9609 130.632L90.5869 106.041C90.6023 105.903 90.5021 105.781 90.3649 105.765C90.2296 105.75 90.1041 105.85 90.0897 105.988L87.4637 130.579C87.4492 130.717 87.5485 130.84 87.6857 130.855C87.6947 130.856 87.7037 130.856 87.7127 130.856Z" fill="black"/>
<g id="Group_9">
<path id="Vector_29" d="M114.811 65.8471C114.811 65.8471 121.858 67.2838 121.476 75.1591C121.096 83.0344 117.911 90.4252 110.211 89.0111C101.943 87.4941 101.495 80.7504 103.409 71.9646C105.322 63.1805 113.19 65.395 114.81 65.8471H114.811Z" fill="#CCCCCC"/>
<path id="Vector_30" d="M121.048 76.2907C121.048 76.2907 124.039 74.5139 124.704 77.3167C125.371 80.1205 120.929 83.4928 120.192 80.6755L121.048 76.2907Z" fill="#CCCCCC"/>
<path id="Vector_31" d="M103.487 73.3036C103.487 73.3036 101.252 70.6379 99.6958 73.0645C98.141 75.4883 101.22 80.1403 102.848 77.7254L103.487 73.3036Z" fill="#CCCCCC"/>
<path id="Vector_32" d="M115.532 76.5405C115.419 77.2065 115.593 77.794 115.918 77.849C116.245 77.9032 116.603 77.4086 116.716 76.7409C116.829 76.0731 116.656 75.4874 116.331 75.4306C116.004 75.3764 115.648 75.8718 115.533 76.5396L115.532 76.5405Z" fill="black"/>
<path id="Vector_33" d="M107.207 75.1248C107.094 75.7908 107.265 76.3783 107.593 76.4324C107.918 76.4893 108.274 75.9929 108.389 75.3252C108.502 74.6583 108.328 74.0717 108.002 74.0158C107.677 73.9616 107.318 74.457 107.207 75.1248H107.207Z" fill="black"/>
<path id="Vector_34" d="M121.444 79.2062C121.569 79.2369 121.697 79.1683 121.74 79.0465C121.992 78.3129 122.321 77.8653 122.696 77.7525C123.056 77.6442 123.366 77.8716 123.368 77.8734C123.478 77.9573 123.634 77.9366 123.716 77.8283C123.8 77.7191 123.78 77.5629 123.673 77.4799C123.651 77.4646 123.159 77.0928 122.553 77.2769C122.011 77.4402 121.58 77.9808 121.27 78.8832C121.227 79.014 121.295 79.1548 121.425 79.199C121.431 79.2026 121.438 79.2035 121.444 79.2053V79.2062Z" fill="black"/>
<path id="Vector_35" d="M101.863 75.8756C101.884 75.881 101.903 75.8828 101.923 75.8819C102.06 75.8837 102.171 75.7737 102.172 75.6374C102.179 74.6808 101.952 74.0284 101.493 73.6954C100.981 73.3245 100.397 73.5104 100.371 73.5167C100.242 73.5618 100.171 73.6999 100.214 73.8308C100.257 73.9598 100.394 74.0311 100.523 73.9887C100.542 73.9842 100.903 73.8777 101.206 74.0988C101.519 74.3307 101.681 74.8604 101.677 75.6329C101.677 75.7493 101.755 75.8486 101.863 75.8747L101.863 75.8756Z" fill="black"/>
<path id="Vector_36" d="M111.203 79.3976C111.323 79.4283 111.446 79.3652 111.494 79.2469C111.544 79.1197 111.481 78.9762 111.354 78.9266C111.095 78.8246 110.381 78.4438 110.489 78.0485C110.501 78.0016 110.525 77.9736 110.571 77.9511C110.831 77.8247 111.511 78.0025 111.91 78.1722C112.036 78.2236 112.181 78.164 112.234 78.0386C112.287 77.9132 112.229 77.767 112.102 77.7137C111.982 77.6641 110.918 77.23 110.354 77.5053C110.179 77.5901 110.06 77.7336 110.01 77.9186C109.816 78.6414 110.649 79.1811 111.174 79.3877C111.184 79.3913 111.193 79.394 111.204 79.3967L111.203 79.3976Z" fill="black"/>
<path id="Vector_37" d="M109.866 83.3682C110.13 83.4332 110.407 83.491 110.694 83.5388C116.325 84.4971 117.089 80.5762 117.095 80.5365C117.12 80.4029 117.027 80.2748 116.895 80.2495C116.761 80.226 116.632 80.3145 116.607 80.4489C116.581 80.5924 115.909 83.9232 110.779 83.0506C108.88 82.7284 107.557 82.0354 106.847 80.994C106.092 79.8867 106.318 78.7533 106.32 78.7407C106.348 78.608 106.246 78.4844 106.129 78.4465C105.996 78.4185 105.863 78.5033 105.834 78.6369C105.821 78.691 105.559 79.9761 106.429 81.2629C107.106 82.2619 108.261 82.9658 109.867 83.3664L109.866 83.3682Z" fill="black"/>
<path id="Vector_38" d="M121.412 76.112C121.412 76.112 126.182 67.8766 121.371 65.6224C121.371 65.6224 122.203 60.0716 116.205 61.5381C116.205 61.5381 110.328 56.4476 107.337 61.687C107.337 61.687 100.966 62.0696 103.197 73.005C103.197 73.005 103.776 74.937 104.758 72.1919C105.74 69.4477 105.955 67.974 109.721 68.5768C113.487 69.1806 113.694 69.9151 116.501 69.435C119.31 68.9541 119.874 71.7046 119.906 72.5935C119.94 73.4851 120.461 77.5694 121.412 76.1102L121.412 76.112Z" fill="#CCCCCC"/>
<path id="Vector_39" d="M105.139 70.9799C105.103 70.9384 104.261 69.9837 104.654 69.0686C105.014 68.2276 106.282 67.7674 108.419 67.7033C109.641 67.6672 110.543 67.4957 111.061 67.2133C109.834 66.5338 109.27 65.9201 109.387 65.3859C109.463 65.034 109.834 64.8047 110.353 64.7903C110.962 64.7732 112.039 65.6133 112.066 66.5049C112.072 66.6971 112.033 66.9001 111.915 67.0969C112.871 67.5571 113.84 67.6753 114.614 67.6049C114.594 67.586 114.569 67.5661 114.548 67.5445C112.771 65.8651 112.72 65.3624 112.931 65.071C113.221 64.6649 114.19 64.8977 115.808 65.7631C116.879 66.3343 116.711 66.948 116.589 67.1862C116.45 67.4587 116.158 67.6834 115.765 67.8441C116.27 68.1256 116.76 68.2222 117.231 68.1301C118.556 67.872 119.34 66.1972 119.347 66.18C119.405 66.0564 119.553 65.9977 119.676 66.0582C119.8 66.115 119.855 66.2612 119.799 66.3858C119.764 66.4652 118.904 68.3079 117.326 68.6165C116.61 68.7573 115.874 68.5588 115.131 68.0272C114.146 68.2186 112.84 68.1003 111.673 67.53C111.637 67.5129 111.602 67.4948 111.567 67.4768C111.069 67.8531 110.129 68.1491 108.437 68.1996C106.035 68.2727 105.303 68.8169 105.112 69.2608C104.843 69.8862 105.505 70.6433 105.509 70.6497C105.602 70.7516 105.593 70.9086 105.49 70.998C105.428 71.0557 105.343 71.0738 105.265 71.0548C105.22 71.044 105.175 71.0178 105.141 70.9808L105.139 70.9799ZM110.366 65.2857C110.102 65.2947 109.893 65.3805 109.87 65.4924C109.864 65.5131 109.788 65.977 111.468 66.8704C111.538 66.7612 111.574 66.6457 111.569 66.5211C111.553 65.9734 110.865 65.3976 110.475 65.3002C110.436 65.2911 110.399 65.2848 110.365 65.2857H110.366ZM113.349 65.3696C113.376 65.4933 113.569 65.94 114.887 67.1844C115.008 67.2981 115.129 67.4028 115.248 67.4975C115.71 67.3748 116.038 67.1772 116.147 66.9615C116.306 66.652 115.855 66.3524 115.572 66.2017C114.698 65.736 114.093 65.5095 113.727 65.4193C113.54 65.3715 113.414 65.3606 113.348 65.3715L113.349 65.3696Z" fill="black"/>
<path id="Vector_40" d="M115.866 74.0706C115.975 74.0977 116.093 74.048 116.145 73.9434C116.3 73.6447 116.461 73.4696 116.577 73.475C116.758 73.4885 117 73.8703 117.106 74.1455C117.155 74.2718 117.298 74.3359 117.426 74.2872C117.553 74.2384 117.618 74.0941 117.567 73.9659C117.507 73.8089 117.176 73.0139 116.604 72.9814C116.269 72.9633 115.965 73.2097 115.705 73.7151C115.641 73.836 115.69 73.9858 115.811 74.049C115.83 74.0589 115.847 74.0661 115.865 74.0706H115.866Z" fill="black"/>
<path id="Vector_41" d="M107.376 72.6124C107.466 72.6349 107.561 72.6069 107.625 72.532C107.814 72.3109 108.164 72.0321 108.341 72.0763H108.345C108.456 72.1088 108.551 72.3263 108.599 72.6593C108.618 72.7964 108.743 72.8894 108.879 72.8695C109.013 72.8506 109.108 72.7252 109.089 72.5907C109.009 72.0258 108.806 71.6937 108.483 71.6008C107.946 71.4329 107.357 72.0826 107.248 72.2108C107.159 72.3164 107.173 72.4725 107.276 72.5609C107.308 72.5853 107.342 72.6024 107.377 72.6124H107.376Z" fill="black"/>
<path id="Vector_42" d="M119.082 70.3482C119.095 70.3509 119.109 70.3527 119.123 70.3545C119.26 70.3645 119.379 70.2643 119.391 70.1271C119.498 68.7573 118.429 68.1229 117.843 67.9767H117.838C117.704 67.9442 117.57 68.0245 117.538 68.1581C117.504 68.2898 117.586 68.4243 117.719 68.4568C117.771 68.4703 118.998 68.7961 118.896 70.0883C118.885 70.2111 118.967 70.3193 119.082 70.3482Z" fill="black"/>
</g>
<path id="Vector_43" d="M153.257 122.088C146.385 123.76 140.931 124.491 136.605 124.613C135.001 124.66 133.551 124.62 132.243 124.516C126.23 124.04 123.172 122.171 121.632 120.552C120.494 119.359 119.806 117.895 119.598 116.337C122.195 114.586 124.211 112.674 125.275 111.112C126.124 109.877 126.346 108.909 125.934 108.243C125.572 107.659 124.821 107.441 123.696 107.595C121.741 107.864 119.893 109.705 118.99 112.283C118.575 113.465 118.406 114.665 118.471 115.829C113.845 118.829 107.474 121.229 101.479 120.123C99.4197 119.743 99.2365 118.855 99.176 118.564C98.1554 113.64 116.38 99.6126 127.4 91.8374L125.928 91.5793C122.705 93.8679 118.411 97.0119 114.189 100.364C102.7 109.486 97.447 115.509 98.1238 118.779C98.3819 120.032 99.4449 120.838 101.282 121.178C107.366 122.303 113.813 119.982 118.615 116.978C118.919 118.571 119.679 120.058 120.856 121.293C122.819 123.352 126.293 125.215 132.424 125.648C133.294 125.708 134.217 125.741 135.198 125.741C135.697 125.741 136.205 125.734 136.732 125.717C141.172 125.57 146.683 124.803 153.524 123.135C153.434 122.787 153.345 122.436 153.258 122.089L153.257 122.088ZM120.002 112.637C120.761 110.47 122.305 108.87 123.841 108.662C124.038 108.633 124.206 108.622 124.35 108.622C124.75 108.622 124.958 108.712 125.016 108.805C125.112 108.959 125.083 109.489 124.388 110.506C123.446 111.877 121.739 113.539 119.536 115.101C119.561 114.288 119.715 113.457 120.002 112.637Z" fill="white"/>
<path id="Vector_44" d="M139.305 148.356C139.318 148.356 139.331 148.355 139.345 148.353C139.482 148.332 139.575 148.203 139.553 148.067L132.68 104.856C132.658 104.72 132.53 104.628 132.393 104.648C132.256 104.67 132.163 104.799 132.184 104.935L139.058 148.145C139.078 148.268 139.184 148.356 139.305 148.356Z" fill="black"/>
</g>
</g>
<g id="Group_10">
<g id="Group_11">
<path id="Vector_45" d="M191.533 24.059V15.9419C191.533 14.757 192.497 13.7932 193.682 13.7932H218.988C220.173 13.7932 221.137 14.757 221.137 15.9419V24.059C221.137 25.2439 220.173 26.2077 218.988 26.2077H193.682C192.497 26.2077 191.533 25.2439 191.533 24.059ZM193.682 14.5097C192.892 14.5097 192.25 15.1522 192.25 15.9419V24.059C192.25 24.8486 192.892 25.4912 193.682 25.4912H218.988C219.778 25.4912 220.42 24.8486 220.42 24.059V15.9419C220.42 15.1522 219.778 14.5097 218.988 14.5097H193.682Z" fill="#E6E6E6"/>
<path id="Vector_46" d="M179.118 37.9064V29.7893C179.118 28.6044 180.082 27.6406 181.266 27.6406H206.574C207.758 27.6406 208.722 28.6044 208.722 29.7893V37.9064C208.722 39.0913 207.758 40.0551 206.574 40.0551H181.266C180.082 40.0551 179.118 39.0913 179.118 37.9064ZM181.266 28.3562C180.477 28.3562 179.834 28.9988 179.834 29.7884V37.9055C179.834 38.6951 180.477 39.3377 181.266 39.3377H206.574C207.363 39.3377 208.006 38.6951 208.006 37.9055V29.7884C208.006 28.9988 207.363 28.3562 206.574 28.3562H181.266Z" fill="#E6E6E6"/>
<path id="Vector_47" d="M0 86.55V78.4328C0 77.248 0.963774 76.2842 2.14864 76.2842H27.4558C28.6407 76.2842 29.6045 77.248 29.6045 78.4328V86.55C29.6045 87.7349 28.6407 88.6986 27.4558 88.6986H2.14864C0.963774 88.6986 0 87.7349 0 86.55ZM2.14864 77.0007C1.35903 77.0007 0.716514 77.6432 0.716514 78.4328V86.55C0.716514 87.3396 1.35903 87.9821 2.14864 87.9821H27.4558C28.2454 87.9821 28.8879 87.3396 28.8879 86.55V78.4328C28.8879 77.6432 28.2454 77.0007 27.4558 77.0007H2.14864Z" fill="#E6E6E6"/>
<path id="Vector_48" d="M12.4153 100.397V92.2802C12.4153 91.0954 13.3791 90.1316 14.564 90.1316H39.8703C41.0551 90.1316 42.0189 91.0954 42.0189 92.2802V100.397C42.0189 101.582 41.0551 102.546 39.8703 102.546H14.564C13.3791 102.546 12.4153 101.582 12.4153 100.397ZM14.564 90.8472C13.7744 90.8472 13.1319 91.4897 13.1319 92.2793V100.397C13.1319 101.186 13.7744 101.829 14.564 101.829H39.8703C40.6599 101.829 41.3024 101.186 41.3024 100.397V92.2793C41.3024 91.4897 40.6599 90.8472 39.8703 90.8472H14.564Z" fill="#E6E6E6"/>
<path id="Vector_49" d="M185.744 136.567V128.45C185.744 127.265 186.708 126.301 187.893 126.301H213.199C214.384 126.301 215.348 127.265 215.348 128.45V136.567C215.348 137.752 214.384 138.716 213.199 138.716H187.893C186.708 138.716 185.744 137.752 185.744 136.567ZM187.893 127.018C187.103 127.018 186.461 127.66 186.461 128.45V136.567C186.461 137.357 187.103 137.999 187.893 137.999H213.199C213.989 137.999 214.631 137.357 214.631 136.567V128.45C214.631 127.66 213.989 127.018 213.199 127.018H187.893Z" fill="#E6E6E6"/>
</g>
<path id="Vector_50" d="M7.81964 14.1516V6.03438C7.81964 4.84952 8.78341 3.88574 9.96828 3.88574H35.2746C36.4594 3.88574 37.4232 4.84952 37.4232 6.03438V14.1516C37.4232 15.3364 36.4594 16.3002 35.2746 16.3002H9.96828C8.78341 16.3002 7.81964 15.3364 7.81964 14.1516ZM9.96828 4.60135C9.17867 4.60135 8.53615 5.24387 8.53615 6.03348V14.1507C8.53615 14.9403 9.17867 15.5828 9.96828 15.5828H35.2746C36.0642 15.5828 36.7067 14.9403 36.7067 14.1507V6.03348C36.7067 5.24387 36.0642 4.60135 35.2746 4.60135H9.96828Z" fill="#E6E6E6"/>
</g>
</g>
<defs>
<clipPath id="clip0_1995_8558">
<rect width="221.136" height="160" fill="white"/>
</clipPath>
</defs>
</svg>
