<svg width="52" height="56" viewBox="0 0 52 56" fill="none" xmlns="http://www.w3.org/2000/svg">
<g id="Gender=Male, Variant=1">
<g id=".Background">
<path id="Background" d="M25.7695 55.5316C41.6409 50.249 55.4166 19.1239 50.2165 6.70534C44.6465 -6.60044 10.1843 2.5633 2.21131 11.2478C-5.94732 20.1355 9.94838 60.796 25.7695 55.5316Z" fill="#D2F9E6"/>
</g>
<g id=".Illustration">
<mask id="mask0_12_379" style="mask-type:alpha" maskUnits="userSpaceOnUse" x="0" y="0" width="52" height="56">
<path id="Shape" d="M25.7695 55.5316C41.6409 50.249 55.4166 19.1239 50.2165 6.70534C44.6465 -6.60044 10.1843 2.5633 2.21131 11.2478C-5.94732 20.1355 9.94838 60.796 25.7695 55.5316Z" fill="#DA002F"/>
</mask>
<g mask="url(#mask0_12_379)">
<g id="Group">
<path id="Vector" d="M0.322136 56.8933C0.906173 57.5626 1.51923 58.2137 2.15496 58.8358C2.25018 58.9265 2.34541 59.0208 2.43972 59.1115C2.83422 59.4915 3.24232 59.8615 3.6604 60.2225C4.03132 60.5408 4.40586 60.8537 4.79038 61.1529C5.22297 60.8636 5.66372 60.5834 6.11535 60.3077C10.5464 61.6944 14.6546 62.7717 18.3965 63.5372C28.0893 65.5124 35.0941 65.2802 37.6198 62.8915C38.5312 62.0372 38.7879 60.9017 38.3272 59.7808C37.871 58.6744 36.7265 57.5771 34.9744 56.6557C32.1014 55.1357 27.5996 54.0819 21.8626 54.2198C18.742 54.2914 15.8028 54.8092 13.0676 55.6536H13.0621C10.4984 56.4326 8.11414 57.5054 5.94395 58.7687C4.16281 58.2083 2.28737 57.5816 0.321228 56.8924L0.322136 56.8933Z" stroke="#1D1D1B" stroke-width="0.227731" stroke-miterlimit="10"/>
<g id="Group_2">
<path id="Vector_2" d="M15.0301 43.9079C15.0301 43.9079 15.0437 43.9079 15.0609 43.9061L15.8753 30.7707L37.0811 32.2326L36.3511 43.8417L49.1926 48.4115C49.1926 48.4115 40.9989 58.7346 23.6111 57.6554C6.22328 56.5744 1.95091 47.3903 1.95091 47.3903L15.0292 43.9088L15.0301 43.9079Z" fill="#8AE0FF"/>
<path id="Vector_3" d="M15.8753 30.7707L15.3829 38.7304C30.031 49.4635 36.4554 34.6803 37.014 33.3081L37.082 32.2326L15.8762 30.7707H15.8753Z" fill="#020000"/>
<g id="Group_3">
<path id="Vector_4" d="M22.3587 13.5323C22.3587 13.5323 13.6607 15.659 14.5141 25.438C15.3702 35.217 19.6888 44.2596 29.1984 42.1284C39.4146 39.8412 39.6431 31.4298 36.839 20.5907C34.0331 9.75333 24.3511 12.8894 22.3587 13.5323Z" fill="#8AE0FF"/>
<path id="Vector_5" d="M15.1607 25.9874C15.1607 25.9874 11.5159 23.6476 10.5655 27.1074C9.61691 30.5654 14.9984 34.9538 16.0368 31.4832L15.1607 25.9874Z" fill="#8AE0FF"/>
<path id="Vector_6" d="M23.5105 26.6621C23.6828 27.4855 23.4969 28.2246 23.0933 28.309C22.6888 28.3942 22.2245 27.7957 22.0485 26.9695C21.8753 26.1451 22.0631 25.4069 22.4639 25.3217C22.8693 25.2382 23.3372 25.8386 23.5105 26.6621Z" fill="#020000"/>
<path id="Vector_7" d="M33.8009 24.4994C33.9741 25.3228 33.7882 26.062 33.3846 26.1463C32.9829 26.2306 32.5149 25.6312 32.3408 24.8068C32.1667 23.9816 32.3517 23.2433 32.7571 23.159C33.1597 23.0747 33.6277 23.6741 33.8009 24.4985V24.4994Z" fill="#020000"/>
<path id="Vector_8" d="M14.2629 29.6323C14.4225 29.5806 14.5132 29.4092 14.4615 29.2486C14.1178 28.1105 13.6027 27.4176 12.9352 27.1918C12.1906 26.9388 11.5613 27.3805 11.5359 27.3977C11.398 27.4974 11.3663 27.6897 11.4642 27.8303C11.5622 27.9672 11.7535 27.9999 11.8941 27.9019C11.9104 27.8892 12.3013 27.6262 12.7438 27.7804C13.2027 27.94 13.5936 28.5104 13.872 29.4282C13.9219 29.5933 14.0942 29.6849 14.2574 29.6359L14.2629 29.6341V29.6323Z" fill="#020000"/>
<path id="Vector_9" d="M29.4406 29.8806C29.4497 29.877 29.4605 29.8734 29.4705 29.8698C30.1135 29.5877 31.1247 28.874 30.8454 27.9843C30.7746 27.7567 30.6195 27.5844 30.3992 27.4874C29.6818 27.1708 28.3795 27.7649 28.2326 27.8302C28.0775 27.9036 28.0104 28.0877 28.0839 28.2419C28.1555 28.397 28.3396 28.4623 28.4938 28.3915C28.9835 28.1621 29.8206 27.9063 30.1516 28.0533C30.2078 28.0786 30.2377 28.1104 30.2559 28.1702C30.4101 28.6545 29.5394 29.1633 29.2229 29.3039C29.0679 29.3728 28.9962 29.5551 29.0651 29.7111C29.1286 29.858 29.2937 29.9269 29.4415 29.8806H29.4406Z" fill="#020000"/>
<path id="Vector_10" d="M31.0186 34.7616C32.8324 34.1812 34.1283 33.2816 34.8774 32.0754C35.8985 30.4321 35.5077 28.8451 35.4904 28.7798C35.4487 28.6147 35.281 28.5159 35.115 28.5585C34.9518 28.5993 34.8529 28.7671 34.8946 28.933C34.8973 28.9457 35.2329 30.346 34.3487 31.7589C33.5143 33.0893 31.9028 34.0143 29.553 34.5086C23.1885 35.8472 22.1855 31.5984 22.1755 31.554C22.1392 31.388 21.976 31.2828 21.81 31.3182C21.6459 31.3517 21.5361 31.5195 21.5742 31.6882C21.5833 31.7362 22.7214 36.5772 29.68 35.1144C30.1543 35.0137 30.6005 34.8967 31.0195 34.7625L31.0186 34.7616Z" fill="#020000"/>
<path id="Vector_11" d="M22.9854 23.6033C23.0044 23.5978 23.0253 23.5878 23.0443 23.577C23.1921 23.4935 23.2447 23.3049 23.1595 23.158C22.8103 22.5404 22.4222 22.2484 22.0032 22.2874C21.294 22.3526 20.9213 23.3611 20.8524 23.5606C20.7988 23.7221 20.885 23.8971 21.0455 23.9524C21.2079 24.0086 21.382 23.9207 21.4391 23.7592C21.557 23.4137 21.8372 22.924 22.064 22.9031C22.2091 22.8895 22.4158 23.099 22.6244 23.4627C22.697 23.5906 22.8493 23.6477 22.9854 23.6042V23.6033Z" fill="#020000"/>
<path id="Vector_12" d="M33.4781 21.3805C33.5189 21.3678 33.5579 21.3451 33.5933 21.3143C33.7175 21.1982 33.7257 21.0041 33.6105 20.8781C33.469 20.7221 32.7254 19.9576 32.0525 20.1716L32.0443 20.177C31.6471 20.3085 31.4095 20.732 31.3387 21.4385C31.3206 21.6054 31.4448 21.7577 31.6126 21.775C31.784 21.7904 31.9346 21.668 31.9527 21.4993C31.9944 21.0812 32.1023 20.8073 32.2384 20.762L32.2411 20.7602C32.4551 20.6921 32.9185 21.0313 33.158 21.2934C33.2423 21.385 33.3684 21.4149 33.4799 21.3796L33.4781 21.3805Z" fill="#020000"/>
<path id="Vector_13" d="M14.4188 25.6956C14.4188 25.6956 7.43578 14.8773 11.4288 12.7815C11.4288 12.7815 13.7505 5.74583 17.6093 8.98797C17.6093 8.98797 21.6032 3.42419 26.0515 7.61221C26.0515 7.61221 30.04 3.48405 33.089 8.43929C33.089 8.43929 38.9702 8.65332 36.6585 20.2062C36.6585 20.2062 36.1153 21.6472 34.9427 19.098C33.7664 16.5487 29.6691 18.2691 25.8611 16.186C22.0521 14.1037 23.1059 18.6409 19.1827 20.0693C15.2604 21.4985 17.5041 29.9589 14.4197 25.6965L14.4188 25.6956Z" fill="#8AE0FF"/>
<path id="Vector_14" d="M15.6323 25.505C15.6169 25.5068 15.6015 25.5077 15.5842 25.5068C15.4019 25.5022 15.2559 25.3508 15.2596 25.1676C15.2777 24.3487 15.4926 17.1362 17.583 15.9826C17.9031 15.8067 18.4228 15.6815 19.0866 16.0787C20.437 16.8913 21.3493 16.0443 22.3124 15.1501C23.2393 14.2931 24.3938 13.2266 25.7831 14.6114C26.5912 15.4176 27.4382 15.1619 28.5119 14.8363C30.2006 14.3275 32.3 13.6945 34.8157 17.1969C34.9228 17.3466 34.8883 17.5542 34.7387 17.6613C34.5908 17.7692 34.3813 17.7338 34.2761 17.5851C32.0388 14.4681 30.3448 14.9778 28.7042 15.4738C27.5724 15.8148 26.4025 16.1694 25.3161 15.0839C24.4173 14.1897 23.8233 14.6595 22.7668 15.6389C21.7656 16.5657 20.5195 17.7175 18.7438 16.6501C18.3203 16.3943 18.0618 16.4787 17.9068 16.5657C16.4149 17.3874 15.9697 23.0645 15.9234 25.1821C15.9207 25.3499 15.7946 25.4868 15.6323 25.5059V25.505Z" fill="#020000"/>
</g>
</g>
<path id="Vector_15" d="M14.6927 43.972C9.93881 44.8934 -0.00524139 46.817 -5.33322 47.8426C-3.93752 51.1673 -2.014 54.2154 0.322145 56.8943C0.906182 57.5636 1.51924 58.2147 2.15497 58.8369C2.25019 58.9276 2.34542 59.0219 2.43973 59.1126C2.83423 59.4926 3.24233 59.8626 3.66041 60.2235C4.03133 60.5418 4.40587 60.8547 4.79039 61.154C10.5319 65.7084 17.7979 68.43 25.6906 68.43C28.0938 68.43 30.4345 68.1779 32.6909 67.699C33.3039 67.5711 33.907 67.4233 34.5056 67.2619C36.4672 66.735 38.3517 66.0322 40.1519 65.1724C40.5509 64.9829 40.9445 64.7879 41.3344 64.5793C41.358 64.5657 41.3816 64.5557 41.4061 64.5421C42.147 64.1522 42.8734 63.735 43.5763 63.2924C46.7585 61.2936 49.5835 58.7761 51.9296 55.8605C52.8365 54.735 53.6727 53.5479 54.4327 52.3082C55.0267 51.3351 55.5726 50.3321 56.0669 49.2973L53.1313 48.4856L51.5732 48.0585L36.6812 43.9367L36.4146 43.8605L36.391 43.856L36.3529 43.8469C36.3529 43.8469 36.215 43.9086 35.9348 44.0038C34.7958 44.4073 31.3233 45.404 25.3877 45.2807C19.979 45.1719 16.9391 44.4826 15.7003 44.1271C15.2486 43.9938 15.0355 43.9086 15.0355 43.9086C15.031 43.9086 15.021 43.9131 15.0165 43.9131H15.0065C14.9068 43.9321 14.8025 43.9512 14.6936 43.9748L14.6927 43.972Z" fill="#8AE0FF"/>
<path id="Vector_16" d="M27.6223 51.9817C28.2018 51.9817 28.7677 51.9182 29.3191 51.7939C34.5854 50.6041 36.5968 44.2123 36.6803 43.9412C36.7365 43.7598 36.634 43.5675 36.4517 43.5131C36.2713 43.456 36.079 43.5594 36.0246 43.7408C36.0037 43.8042 34.0412 50.0246 29.1658 51.1247C25.2861 52.0016 20.6156 49.4941 15.2849 43.6755C15.1571 43.5349 14.9403 43.5249 14.8006 43.6528C14.6601 43.7816 14.651 43.9983 14.7789 44.1389C19.5546 49.3517 23.865 51.9808 27.6232 51.9808L27.6223 51.9817Z" fill="#020000"/>
<path id="Vector_17" d="M0.322136 56.8936C0.906173 57.5629 1.51923 58.2141 2.15496 58.8362C2.25018 58.9269 2.34541 59.0212 2.43972 59.1119C3.08997 59.3304 3.7266 59.5445 4.36324 59.7485C4.12563 59.9054 3.89256 60.0623 3.6604 60.2237C4.03132 60.542 4.40586 60.8549 4.79038 61.1542C5.22297 60.8649 5.66372 60.5847 6.11535 60.309C10.5464 61.6956 14.6546 62.773 18.3965 63.5384C28.0893 65.5136 35.0941 65.2815 37.6198 62.8927C38.5312 62.0384 38.7879 60.903 38.3272 59.7821C37.871 58.6757 36.7265 57.5783 34.9744 56.6569C32.1014 55.137 27.5996 54.0832 21.8626 54.221C18.742 54.2927 15.8028 54.8105 13.0676 55.6548H13.0621C10.4984 56.4338 8.11414 57.5067 5.94395 58.77C4.16281 58.2095 2.28737 57.5829 0.321228 56.8936H0.322136ZM7.81124 59.3495C10.19 58.0962 12.8118 57.0795 15.6368 56.4338C17.6265 55.9731 19.7169 55.6974 21.8961 55.6457C22.2099 55.6367 22.5228 55.6367 22.8311 55.6367C26.9484 55.6367 30.2305 56.2778 32.6047 57.1702H32.6092C35.0977 58.0962 36.5887 59.3023 37.0067 60.319C37.2489 60.9084 37.1355 61.3972 36.6413 61.8579C34.803 63.601 26.5784 65.0402 7.81033 59.3504L7.81124 59.3495Z" fill="white"/>
</g>
</g>
</g>
</g>
</svg>
