<svg width="52" height="56" viewBox="0 0 52 56" fill="none" xmlns="http://www.w3.org/2000/svg">
<g id="Gender=Male, Variant=2">
<g id=".Background">
<path id="Background" d="M25.7695 55.5316C41.6409 50.249 55.4166 19.1239 50.2165 6.70534C44.6465 -6.60044 10.1843 2.5633 2.21131 11.2478C-5.94732 20.1355 9.94838 60.796 25.7695 55.5316Z" fill="#EDE9FE"/>
</g>
<g id=".Illustration">
<mask id="mask0_12_382" style="mask-type:alpha" maskUnits="userSpaceOnUse" x="0" y="0" width="52" height="56">
<path id="Shape" d="M25.7695 55.5316C41.6409 50.249 55.4166 19.1239 50.2165 6.70534C44.6465 -6.60044 10.1843 2.5633 2.21131 11.2478C-5.94732 20.1355 9.94838 60.796 25.7695 55.5316Z" fill="#DA002F"/>
</mask>
<g mask="url(#mask0_12_382)">
<g id="Group">
<path id="Vector" d="M15.472 44.1229C15.472 44.1229 15.4851 44.1229 15.5017 44.1229L16.3109 31.1065L37.3186 32.5552L36.6161 43.989L50.2291 48.6439C50.2291 48.6439 41.1993 58.8118 23.9725 57.7419C6.74833 56.6711 2.51425 47.5714 2.51425 47.5714L15.472 44.1229Z" fill="#F8BD51"/>
<path id="Vector_2" d="M16.3109 31.1057L15.8219 38.993C30.3341 49.6264 36.7001 34.9794 37.2521 33.6217L37.3195 32.5553L16.3118 31.1066L16.3109 31.1057Z" fill="#020000"/>
<path id="Vector_3" d="M54.7335 49.1216C53.8954 50.5922 52.9331 51.9893 51.8755 53.3041C51.7609 53.4511 51.6419 53.5972 51.5177 53.7398C50.9587 54.4177 50.3682 55.0686 49.754 55.6958C49.594 55.8559 49.4339 56.016 49.2729 56.177C48.2887 57.1384 47.239 58.0412 46.1393 58.8705C45.7684 59.1548 45.3922 59.4252 45.0082 59.6902C43.3863 60.8126 41.655 61.788 39.8363 62.6033C39.1172 62.9235 38.3841 63.2218 37.6423 63.4878C34.1841 64.7475 30.4548 65.4299 26.5698 65.4299C24.2515 65.4299 21.9936 65.1867 19.8171 64.7248C19.2257 64.6005 18.6449 64.4588 18.0666 64.3031C16.1744 63.7948 14.3565 63.116 12.62 62.2875C12.2124 62.0951 11.8091 61.8939 11.4111 61.6787C7.48053 59.6036 4.02677 56.7404 1.25974 53.305C0.384932 52.2193 -0.421642 51.0742 -1.15473 49.8783C-1.69974 48.9852 -2.20364 48.0596 -2.66641 47.1113C1.89136 46.3598 13.1152 44.5096 15.1535 44.1702C15.318 44.1474 15.4238 44.1291 15.4606 44.1238H15.4693L15.4737 44.1195L15.4789 44.1238C16.5051 45.2007 17.4989 45.9793 18.4612 46.5383C18.4699 46.5383 18.4752 46.5471 18.4795 46.5523C21.5851 48.3387 24.3618 47.8252 26.771 47.6143C26.904 47.6056 27.0369 47.596 27.1603 47.5872C27.2836 47.5776 27.4079 47.5688 27.5268 47.5505C31.0908 47.2294 33.7931 45.8778 35.2917 44.9392H35.296C36.1201 44.4169 36.5785 44.0232 36.6152 43.9909L36.6196 43.9865L36.9267 44.0512L50.3305 46.9232L51.7416 47.2259L54.6959 47.8584L54.7326 49.1225L54.7335 49.1216Z" fill="#F8BD51"/>
<g id="Group_2">
<path id="Vector_4" d="M22.8422 11.3175C22.8422 11.3175 13.8456 13.0873 14.2638 23.1275C14.6846 33.1686 18.679 42.6183 28.5057 40.8809C39.0595 39.0184 39.6841 30.4278 37.3212 19.2136C34.9566 7.99762 24.9085 10.755 22.8422 11.3175Z" fill="#F8BD51"/>
<path id="Vector_5" d="M14.8027 24.5751C14.8027 24.5751 11.0025 22.2849 10.1303 25.8524C9.25899 29.419 14.8928 33.7563 15.8551 30.1722L14.8027 24.5751Z" fill="#F8BD51"/>
<path id="Vector_6" d="M23.3837 24.5979C23.5237 25.4482 23.298 26.1945 22.8807 26.2609C22.4643 26.3301 22.0137 25.6941 21.8755 24.8438C21.7364 23.9917 21.9612 23.2455 22.3776 23.1764C22.7949 23.1108 23.2446 23.7441 23.3837 24.5971V24.5979Z" fill="#020000"/>
<path id="Vector_7" d="M34.0109 22.8624C34.1491 23.7153 33.9243 24.4606 33.507 24.5271C33.0906 24.5954 32.641 23.9603 32.5019 23.1091C32.3619 22.2587 32.5876 21.5108 33.0014 21.4443C33.4204 21.3761 33.871 22.0112 34.0109 22.8624Z" fill="#020000"/>
<path id="Vector_8" d="M14.2585 28.2898C14.1046 28.3204 13.9471 28.2338 13.8955 28.0789C13.5832 27.1473 13.1668 26.5743 12.6926 26.4255C12.2342 26.2786 11.8441 26.5629 11.8266 26.5743C11.6883 26.6775 11.4889 26.6504 11.3856 26.5104C11.2824 26.3713 11.3087 26.1745 11.4478 26.0686C11.474 26.0502 12.1047 25.5822 12.8737 25.8202C13.5631 26.031 14.1089 26.7265 14.4956 27.8804C14.5507 28.0466 14.4615 28.2259 14.2961 28.281C14.2839 28.2845 14.2717 28.2871 14.2585 28.2906V28.2898Z" fill="#020000"/>
<path id="Vector_9" d="M29.2939 28.2389C29.1443 28.2704 28.9912 28.189 28.9352 28.042C28.8723 27.8802 28.9536 27.6974 29.1163 27.6344C29.447 27.5075 30.3603 27.0264 30.2265 26.5216C30.2116 26.4604 30.181 26.4263 30.1241 26.3983C29.7934 26.2338 28.9265 26.4569 28.4165 26.6677C28.2538 26.7351 28.0683 26.6572 28.0045 26.4963C27.9362 26.3353 28.0132 26.1516 28.1733 26.0842C28.3255 26.0212 29.6867 25.4771 30.4067 25.8323C30.6271 25.9416 30.7758 26.1227 30.8388 26.3607C31.0829 27.2845 30.0139 27.9668 29.3447 28.224C29.3289 28.2301 29.3114 28.2336 29.2948 28.238L29.2939 28.2389Z" fill="#020000"/>
<path id="Vector_10" d="M22.5824 21.174C22.4582 21.237 22.3033 21.2116 22.2045 21.104C21.9184 20.7847 21.6621 20.6203 21.5221 20.6658C21.3008 20.7375 21.1293 21.2904 21.0865 21.6595C21.0655 21.8327 20.908 21.9561 20.7348 21.9404C20.5633 21.9202 20.4374 21.7636 20.4584 21.5904C20.4811 21.3761 20.6316 20.2905 21.3297 20.0648C21.7365 19.9327 22.1887 20.14 22.6751 20.6806C22.7915 20.8092 22.7827 21.0087 22.6506 21.125C22.627 21.1434 22.6069 21.1609 22.5815 21.174H22.5824Z" fill="#020000"/>
<path id="Vector_11" d="M33.7249 19.8013C33.6138 19.8065 33.5018 19.7506 33.4397 19.65C33.249 19.3333 32.8719 18.9151 32.6419 18.9282C32.6366 18.9274 32.6331 18.9282 32.6279 18.9282C32.4809 18.9457 32.3164 19.2003 32.1896 19.6088C32.138 19.7742 31.9586 19.8678 31.7942 19.8144C31.628 19.7637 31.5344 19.587 31.586 19.4208C31.802 18.7279 32.1275 18.3509 32.5535 18.2984C33.2761 18.2118 33.8727 19.1364 33.983 19.3219C34.0713 19.4706 34.0232 19.6648 33.8745 19.7549C33.829 19.7847 33.7782 19.7969 33.7258 19.8004L33.7249 19.8013Z" fill="#020000"/>
<path id="Vector_12" d="M37.5618 20.5467C37.5618 20.5467 37.5513 20.9412 36.4639 18.3736C35.3774 15.8061 33.9698 10.5388 28.5328 13.2875C24.8166 15.1666 22.7818 14.8543 20.9342 14.6102C18.4638 14.2795 15.9924 16.7334 15.7335 19.3919C15.4737 22.0513 15.5506 24.835 14.332 24.3416C14.332 24.3416 2.9971 8.97816 23.4502 6.2575C43.9033 3.53946 37.5618 20.5467 37.5618 20.5467Z" fill="#F8BD51"/>
<path id="Vector_13" d="M15.6302 21.768C15.7973 21.768 15.9391 21.6377 15.9496 21.4688C16.1333 18.7202 16.8252 16.8271 18.0062 15.8412C18.8854 15.1081 20.0542 14.836 21.5772 15.0092C24.388 15.3311 26.6406 14.4537 29.2458 13.4389C29.7471 13.2438 30.2632 13.0444 30.8012 12.8441C31.3174 12.6525 31.8256 12.6805 32.3558 12.9315C34.5778 13.9787 36.1455 18.4341 36.1621 18.4796C36.2198 18.6467 36.4035 18.7359 36.5697 18.6782C36.7368 18.6204 36.826 18.4367 36.7674 18.2696C36.7001 18.0754 35.0913 13.5133 32.6287 12.3507C31.9464 12.0287 31.2561 11.992 30.579 12.2448C30.0375 12.4443 29.5187 12.6464 29.014 12.8423C26.4884 13.8265 24.3058 14.6768 21.6507 14.3732C19.9448 14.179 18.6177 14.4992 17.5968 15.3504C16.2566 16.4675 15.5095 18.456 15.3109 21.4277C15.2996 21.6035 15.4334 21.7566 15.6101 21.7698H15.632L15.6302 21.768Z" fill="#020000"/>
<path id="Vector_14" d="M29.2152 34.1631C29.5362 34.1019 29.8678 34.0275 30.2055 33.9365C36.8357 32.1738 35.7115 27.5084 35.7002 27.4612C35.6591 27.3028 35.4937 27.2092 35.338 27.2486C35.1788 27.2897 35.0834 27.4507 35.1228 27.609C35.1648 27.7787 36.0938 31.753 30.0524 33.3609C27.8181 33.9558 26.0265 33.8613 24.7309 33.0775C23.3531 32.2455 23.0338 30.8939 23.0303 30.8799C22.9944 30.7207 22.8221 30.6367 22.6751 30.6542C22.515 30.6892 22.4135 30.8476 22.4494 31.0085C22.4634 31.0733 22.8168 32.6103 24.4098 33.5805C25.6486 34.3337 27.26 34.527 29.2152 34.1631Z" fill="#020000"/>
</g>
<path id="Vector_15" d="M25.8306 49.993C25.9329 49.993 26.0344 49.993 26.1376 49.9895C32.3593 49.8137 36.687 44.4161 36.869 44.1869C36.9783 44.0478 36.9547 43.8457 36.8156 43.7381C36.6765 43.627 36.4753 43.6506 36.3659 43.7897C36.3231 43.8431 32.0356 49.183 26.1158 49.3483C22.5072 49.4489 18.9974 47.6179 15.7134 43.9096C15.5953 43.7766 15.3932 43.7644 15.2602 43.8807C15.1281 43.9988 15.115 44.2009 15.2322 44.333C18.5574 48.0903 22.1205 49.9922 25.8306 49.9922V49.993Z" fill="#020000"/>
<path id="Vector_16" d="M51.7425 47.2251L50.3314 46.9224C50.4871 49.6116 50.4408 52.8457 49.754 55.695C50.3682 55.0678 50.9595 54.4169 51.5177 53.7389C51.8203 51.5169 51.8431 49.2354 51.7425 47.2251ZM41.5081 54.6234C41.1695 54.3854 40.8257 54.1606 40.4732 53.9497C34.2891 50.1986 28.4069 49.8959 25.7868 51.5405C24.7283 52.2045 24.206 53.1808 24.3163 54.2892C24.4256 55.4343 25.1771 56.6249 26.5243 57.8208C28.4349 59.5118 31.5317 61.2151 35.6678 62.8142C36.3458 63.0749 37.0054 63.2997 37.6423 63.4878C38.3841 63.2219 39.1172 62.9244 39.8363 62.6034C38.6999 62.3969 37.4726 62.04 36.1621 61.5309C32.7809 60.2256 30.349 58.9336 28.6859 57.7561C26.6608 56.331 25.7676 55.0756 25.681 54.1597C25.6259 53.5736 25.9058 53.0837 26.519 52.7031C28.7227 51.3192 34.1142 51.6954 39.7584 55.1264C39.8363 55.1719 39.9141 55.2226 39.992 55.2777C41.8475 56.4316 43.542 57.9529 45.0082 59.6894C45.3931 59.4234 45.7684 59.1531 46.1393 58.8697C44.7746 57.2522 43.2122 55.8 41.5081 54.6225V54.6234Z" fill="white"/>
</g>
</g>
</g>
</g>
</svg>
