<svg width="52" height="56" viewBox="0 0 52 56" fill="none" xmlns="http://www.w3.org/2000/svg">
<g id="Gender=Male, Variant=3">
<g id=".Background">
<path id="Background" d="M25.7695 55.5316C41.6409 50.249 55.4166 19.1239 50.2165 6.70534C44.6465 -6.60044 10.1843 2.5633 2.21131 11.2478C-5.94732 20.1355 9.94838 60.796 25.7695 55.5316Z" fill="#FDECC8"/>
</g>
<g id=".Illustration">
<mask id="mask0_12_385" style="mask-type:alpha" maskUnits="userSpaceOnUse" x="0" y="0" width="52" height="56">
<path id="Shape" d="M25.7695 55.5316C41.6409 50.249 55.4166 19.1239 50.2165 6.70534C44.6465 -6.60044 10.1843 2.5633 2.21131 11.2478C-5.94732 20.1355 9.94838 60.796 25.7695 55.5316Z" fill="#DA002F"/>
</mask>
<g mask="url(#mask0_12_385)">
<g id="Group">
<path id="Vector" d="M15.6011 29.6347L10.4018 42.8579L29.1602 50.2347L34.3107 37.1368L15.6011 29.6347Z" fill="#FFA19A"/>
<path id="Vector_2" d="M15.6011 29.6345L12.8343 36.6727C22.9228 50.6318 33.0335 39.1648 33.9374 38.0885L34.3107 37.1358L15.6011 29.6336V29.6345Z" fill="#020000"/>
<path id="Vector_3" d="M29.1603 50.2346L40.0709 57.2345C40.0709 57.2345 30.1175 62.1984 14.7417 56.152C-0.635014 50.1057 -0.99762 44.4211 -0.99762 44.4211L11.0062 41.2437C11.0062 41.2437 22.4811 46.1471 29.1603 50.2346Z" fill="#FFA19A"/>
<g id="Group_2">
<path id="Vector_4" d="M29.5735 12.6867C29.5735 12.6867 38.2506 13.9958 38.2773 23.6159C38.3039 33.2369 34.8866 42.4428 25.4131 41.2012C15.242 39.8689 14.2786 31.6789 16.0606 20.8518C17.8434 10.0283 27.5693 12.2361 29.5726 12.6867H29.5735Z" fill="#FFA19A"/>
<path id="Vector_5" d="M16.2391 22.4781C16.2391 22.4781 13.348 19.37 11.606 22.4239C9.8604 25.4759 13.9017 30.9508 15.7334 27.9076L16.2391 22.4781Z" fill="#FFA19A"/>
<path id="Vector_6" d="M31.5838 25.7079C31.4879 26.5292 31.7341 27.2313 32.1349 27.2784C32.5366 27.3264 32.941 26.6998 33.037 25.8804C33.1339 25.06 32.8877 24.3561 32.486 24.3081C32.0834 24.2619 31.6807 24.8894 31.5838 25.7088V25.7079Z" fill="#020000"/>
<path id="Vector_7" d="M21.3505 24.5018C21.2536 25.3231 21.5007 26.0261 21.9016 26.0741C22.3024 26.1203 22.7068 25.4928 22.8028 24.6743C22.8997 23.8539 22.6526 23.1491 22.2517 23.1011C21.8509 23.0549 21.4465 23.6806 21.3505 24.5018Z" fill="#020000"/>
<path id="Vector_8" d="M14.4563 25.7186C14.4679 25.7195 14.4821 25.7186 14.4945 25.7186C14.6616 25.7115 14.7905 25.5693 14.7834 25.4022C14.7318 24.2388 14.4128 23.4576 13.8351 23.0807C13.188 22.6585 12.485 22.9225 12.4539 22.9341C12.2984 22.9945 12.221 23.1705 12.2815 23.326C12.3419 23.4824 12.5152 23.5589 12.6708 23.4993C12.6921 23.4913 13.1267 23.3376 13.5062 23.5918C13.9044 23.8539 14.1364 24.4903 14.1763 25.4297C14.1843 25.5835 14.3043 25.707 14.4545 25.7195L14.4563 25.7186Z" fill="#020000"/>
<path id="Vector_9" d="M26.5107 29.272C26.3738 29.2604 26.2592 29.1591 26.237 29.0178C26.2103 28.8534 26.3223 28.6987 26.4876 28.672C26.8227 28.6169 27.7728 28.3494 27.7488 27.8499C27.7461 27.7913 27.7257 27.7522 27.6768 27.7139C27.4004 27.4935 26.5436 27.53 26.0237 27.6242C25.8584 27.6562 25.701 27.5469 25.6708 27.3824C25.6415 27.2189 25.749 27.0598 25.9143 27.0305C26.0699 27.002 27.4501 26.763 28.0545 27.2402C28.2385 27.3869 28.3425 27.5877 28.354 27.8206C28.3985 28.7334 27.2626 29.1591 26.5845 29.2675C26.5596 29.2729 26.5356 29.2737 26.5125 29.272H26.5107Z" fill="#020000"/>
<path id="Vector_10" d="M26.1561 34.5521C32.6157 35.0863 33.2681 30.4922 33.2743 30.446C33.2947 30.2789 33.1765 30.1296 33.0121 30.1082C32.837 30.094 32.6957 30.2033 32.6726 30.3686C32.6495 30.5428 32.0407 34.6428 25.7322 33.9006C23.3974 33.6278 21.7407 32.8661 20.811 31.6405C19.8218 30.3384 20.0271 28.9422 20.028 28.9288C20.0529 28.7626 19.9418 28.608 19.7765 28.5813C19.6112 28.5635 19.4565 28.6675 19.4307 28.8337C19.4201 28.8995 19.1792 30.4833 20.3204 31.9951C21.3523 33.3629 23.1494 34.2064 25.662 34.5023C25.829 34.5219 25.9935 34.5379 26.1552 34.5521H26.1561Z" fill="#020000"/>
<path id="Vector_11" d="M33.6022 22.8703C33.6511 22.8756 33.7018 22.8667 33.7498 22.8454C33.9035 22.7779 33.972 22.5983 33.9044 22.4455C33.8209 22.2561 33.3632 21.3096 32.669 21.3034C32.2593 21.3025 31.9047 21.6216 31.6185 22.2553C31.5483 22.4063 31.6167 22.585 31.7687 22.6552C31.9207 22.7236 32.0993 22.6579 32.1678 22.5041C32.3384 22.1317 32.5233 21.9086 32.6646 21.9095C32.8797 21.8953 33.2085 22.3726 33.3507 22.6916C33.3978 22.7965 33.4956 22.8623 33.6022 22.8703Z" fill="#020000"/>
<path id="Vector_12" d="M23.1627 21.6578C23.1894 21.6605 23.217 21.6578 23.2463 21.6525C23.4107 21.6205 23.5174 21.4614 23.4854 21.2979C23.3538 20.6153 23.0836 20.2242 22.6828 20.1291C22.0011 19.9745 21.3408 20.7868 21.2163 20.953C21.115 21.0837 21.1408 21.2748 21.2732 21.3752C21.4065 21.4765 21.5958 21.4516 21.6971 21.3192C21.9149 21.0357 22.3317 20.6651 22.5468 20.7193C22.6846 20.7513 22.8135 21.0108 22.8917 21.4125C22.9183 21.5485 23.0321 21.6463 23.1636 21.6578H23.1627Z" fill="#020000"/>
<path id="Vector_13" d="M38.2693 24.7641C38.2693 24.7641 45.1449 18.0459 38.8035 14.7192C38.8035 14.7192 40.1251 2.53055 29.8713 6.97531C19.6193 11.4201 10.0471 8.33158 15.8535 22.1209C15.8535 22.1209 17.3333 24.6948 17.9252 21.0677C18.5163 17.4397 19.0735 15.6471 22.6366 15.9697C26.2006 16.2941 27.58 17.6033 30.9965 16.8949C34.4111 16.1848 35.7754 16.9696 36.5175 21.409C37.2596 25.8493 37.7325 25.245 38.2693 24.765V24.7641Z" fill="#FFA19A"/>
<path id="Vector_14" d="M18.127 16.5314C18.6949 15.6471 19.5561 15.0881 20.6911 14.8748C22.0411 14.6144 23.3858 14.0793 24.5217 13.4883C24.5679 13.0457 24.759 12.6084 25.0381 12.2129C25.6104 11.4077 26.5508 10.7837 27.3649 10.6913C28.035 10.6166 28.1888 10.9188 28.2163 11.1055C28.2625 11.4085 27.9604 11.836 27.4253 12.3107C26.8663 12.8039 26.0566 13.3487 25.1261 13.8518C25.2469 14.8285 26.5499 15.448 28.8216 15.5973C30.5574 15.7084 31.9438 15.2667 32.9402 14.2846C33.0148 14.21 33.0895 14.1353 33.1544 14.0562C34.8768 12.1151 34.7364 8.99286 34.7364 8.95553C34.7275 8.78755 34.8573 8.64801 35.0208 8.63912C35.1888 8.63468 35.3327 8.76 35.3425 8.92264C35.347 9.06751 35.4918 12.2547 33.6761 14.3824C33.5827 14.4988 33.4761 14.6108 33.3685 14.7175C32.2425 15.8249 30.6969 16.3235 28.7798 16.1982C25.6611 16.016 24.7723 14.9503 24.5635 14.1406C23.3716 14.7361 22.0367 15.2347 20.8031 15.4676C19.8396 15.6533 19.1091 16.1191 18.6389 16.8594C17.9128 17.9899 17.9083 19.5355 18.0105 20.5407V20.546C18.071 21.1513 18.1643 21.5646 18.1687 21.5744C18.2105 21.737 18.1127 21.9005 17.9501 21.9423C17.9181 21.9512 17.8852 21.9512 17.8532 21.9512C17.8114 21.9467 17.7697 21.9325 17.7368 21.9139C17.6621 21.8721 17.6061 21.8072 17.583 21.7183C17.5501 21.593 16.824 18.5676 18.1278 16.5341L18.127 16.5314ZM26.5463 12.2262H26.5552C27.0903 11.8396 27.4538 11.4956 27.5746 11.2859C27.5373 11.2859 27.4902 11.2859 27.4306 11.2912C26.9045 11.3561 26.2903 11.7143 25.8291 12.2031C25.5687 12.4733 25.3545 12.7799 25.2336 13.0963C25.7411 12.803 26.1837 12.5142 26.5463 12.2262Z" fill="#020000"/>
</g>
<path id="Vector_15" d="M-7.33281 37.5936C-7.22527 38.2682 -7.09995 38.9383 -6.95597 39.5996C-6.80754 40.2555 -6.644 40.9025 -6.4627 41.5406C-5.4255 45.1704 -3.77238 48.5451 -1.64109 51.5465C-0.524796 53.1107 0.713272 54.5719 2.07221 55.9121L2.18862 56.0286C5.78638 59.5472 10.1894 62.2464 15.0945 63.8338C15.5505 63.9831 16.0162 64.1226 16.4819 64.2479C19.2833 65.0203 22.2207 65.43 25.255 65.43C25.8691 65.43 26.4886 65.4113 27.0885 65.3794C27.5631 65.3554 28.0289 65.318 28.4946 65.2718C29.2811 65.1972 30.0535 65.0905 30.8214 64.9599C31.2587 64.8852 31.687 64.8061 32.119 64.7128C32.1892 64.6986 32.2639 64.6808 32.343 64.6621C32.8647 64.5501 33.3811 64.4248 33.893 64.2853C35.243 63.9218 36.5406 63.4756 37.8116 62.9539C38.24 62.777 38.6586 62.5957 39.0728 62.4002C39.199 62.3486 39.3154 62.2926 39.4309 62.2375C39.8398 62.0411 40.2548 61.8322 40.6548 61.6189C42.1488 60.8279 43.5735 59.9249 44.9227 58.9286L29.4251 50.3786L29.2154 50.2666L29.1923 50.2577V50.2533L29.1638 50.2346H29.1549C28.7683 50.9145 28.387 51.5189 28.0004 52.0495C21.3497 61.1906 14.6661 49.3085 12.1065 43.7884C12.0976 43.7795 12.0976 43.7697 12.0887 43.7652C12.0416 43.663 11.9954 43.5653 11.9536 43.4675C11.4186 42.2988 11.0924 41.4713 11.023 41.2847C11.0142 41.2571 11.0053 41.2429 11.0053 41.2429L10.712 41.1825L-7.33192 37.5945L-7.33281 37.5936Z" fill="#FFA19A"/>
<path id="Vector_16" d="M23.8285 53.8767C25.8905 53.8767 27.7658 52.7115 29.4073 50.4096C29.5033 50.2736 29.4731 50.0843 29.3371 49.9874C29.2003 49.8897 29.0119 49.9217 28.915 50.0585C27.2965 52.3293 25.4585 53.4136 23.4623 53.259C17.32 52.8066 11.3359 41.2232 11.2772 41.1059C11.2008 40.9584 11.0186 40.8997 10.8693 40.9744C10.7209 41.0508 10.6622 41.2321 10.7378 41.3814C10.9875 41.8711 16.9361 53.3843 23.4179 53.8625C23.5548 53.8723 23.6925 53.8776 23.8294 53.8776L23.8285 53.8767Z" fill="#020000"/>
<path id="Vector_17" d="M15.8464 58.8788C16.2286 58.2647 16.9076 57.575 18.0612 57.3146C18.4612 57.2213 18.9171 57.1795 19.4442 57.2124C21.7896 57.3563 23.8987 57.9803 25.7642 58.9339C25.7642 58.9339 25.7687 58.9339 25.7687 58.9393C26.5455 59.3303 27.2814 59.7863 27.9746 60.284C28.0999 59.8787 28.235 59.493 28.379 59.125C29.0723 57.4168 30.0313 56.1414 31.2924 55.6766C32.9909 55.0526 34.8431 55.9423 36.8028 58.3251C36.8677 58.3998 36.929 58.4789 36.9939 58.558C37.8036 59.5721 38.4968 60.8715 39.0745 62.4019C38.6603 62.5975 38.2373 62.7796 37.8089 62.9556C37.2872 61.5594 36.6553 60.3631 35.9052 59.4236C35.7007 59.1677 35.4768 58.9073 35.2492 58.6557C34.3791 57.711 33.3366 56.8871 32.3501 56.8871C32.1545 56.8871 31.9634 56.92 31.7732 56.9893C31.0658 57.2506 30.4232 58.022 29.9024 59.1534C29.6233 59.7489 29.3762 60.4422 29.1674 61.2154C30.3779 62.2535 31.4382 63.4258 32.3412 64.6638C32.2665 64.6825 32.1918 64.7012 32.1181 64.7154C31.6897 64.8078 31.2569 64.8869 30.8187 64.9616C30.2188 64.1937 29.5531 63.4542 28.8172 62.7743C28.6732 63.5609 28.5656 64.399 28.4954 65.2735C28.0297 65.3207 27.5605 65.358 27.0903 65.3811C27.1783 64.1341 27.3463 62.9005 27.5978 61.746C25.3501 60.0147 22.5993 58.8051 19.3606 58.6042C18.2434 58.5393 17.504 58.8602 17.0285 59.6147C16.4143 60.6057 16.2606 62.1922 16.4837 64.2506C16.0179 64.1244 15.5531 63.9848 15.0972 63.8364C14.9203 61.6162 15.1718 59.9649 15.8464 58.8797V58.8788Z" fill="white"/>
</g>
</g>
</g>
</g>
</svg>
