<svg width="52" height="56" viewBox="0 0 52 56" fill="none" xmlns="http://www.w3.org/2000/svg">
<g id="Gender=Female, Variant=1">
<g id=".Background">
<path id="Background" d="M25.7695 55.5316C41.6409 50.249 55.4166 19.1239 50.2165 6.70534C44.6465 -6.60044 10.1843 2.5633 2.21131 11.2478C-5.94732 20.1355 9.94838 60.796 25.7695 55.5316Z" fill="#D8F3FF"/>
</g>
<g id=".Illustration">
<mask id="mask0_12_367" style="mask-type:alpha" maskUnits="userSpaceOnUse" x="0" y="0" width="52" height="56">
<path id="Shape" d="M25.7695 55.5316C41.6409 50.249 55.4166 19.1239 50.2165 6.70534C44.6465 -6.60044 10.1843 2.5633 2.21131 11.2478C-5.94732 20.1355 9.94838 60.796 25.7695 55.5316Z" fill="#DA002F"/>
</mask>
<g mask="url(#mask0_12_367)">
<g id="Group">
<path id="Vector" d="M54.8899 45.7352C53.6771 47.9267 52.2082 49.9635 50.534 51.8072C50.2317 52.141 49.9206 52.4661 49.6043 52.7859C49.8472 49.171 50.1906 46.7506 50.6747 46.7462C50.6747 46.7462 52.3952 46.3521 54.889 45.7344L54.8899 45.7352Z" fill="#72E3BA"/>
<path id="Vector_2" d="M17.8948 32.8416L16.6593 46.7567L36.3991 48.5086L37.6233 34.7254L17.8948 32.8416Z" fill="#72E3BA"/>
<path id="Vector_3" d="M17.8948 32.8416L17.2377 40.2487C30.6268 50.6145 36.9793 36.9938 37.5333 35.7303L37.6233 34.7263L17.8939 32.8424L17.8948 32.8416Z" fill="#262626"/>
<path id="Vector_4" d="M47.7249 54.5394C47.1578 55.0384 46.5767 55.505 45.972 55.9532L45.9677 55.9585C42.5538 57.2298 35.4525 59.07 24.4436 58.0905C20.3481 57.7296 17.0767 56.9747 14.4736 56.0502C14.0201 55.8903 13.5859 55.7208 13.1743 55.5513C11.1794 54.7325 9.63285 53.8168 8.44799 52.9386C8.04954 52.6415 7.68866 52.3532 7.36798 52.0692C5.48758 50.4169 4.89777 49.0905 4.89777 49.0905L16.3733 46.8169L16.6607 46.7574C16.6607 46.7574 16.7804 46.7574 17.0041 46.7531C19.013 46.7304 29.3997 46.7068 36.107 48.4325C36.2083 48.4596 36.3035 48.4823 36.3997 48.5103H36.404L36.6653 48.6518L47.7249 54.5403V54.5394Z" fill="#72E3BA"/>
<g id="Group_2">
<path id="Vector_5" d="M24.9505 15.5677C24.9505 15.5677 16.4266 16.9046 16.4572 26.3634C16.4878 35.8213 19.9017 44.8528 29.2067 43.5762C39.2002 42.2061 40.0993 34.148 38.2827 23.5166C36.4679 12.8843 26.9182 15.1116 24.9513 15.5677H24.9505Z" fill="#72E3BA"/>
<path id="Vector_6" d="M16.9069 27.7434C16.9069 27.7434 13.4178 25.4515 12.4689 28.7754C11.5191 32.0984 16.6605 36.3817 17.6959 33.0456L16.9069 27.7434Z" fill="#72E3BA"/>
<path id="Vector_7" d="M38.1151 25.1162C38.1151 25.1162 40.9392 22.0431 42.6719 25.0358C44.4029 28.025 40.463 33.4321 38.6429 30.4498L38.1151 25.1153V25.1162Z" fill="#72E3BA"/>
<path id="Vector_8" d="M24.3808 28.0942C24.4813 28.899 24.2428 29.5927 23.8487 29.6399C23.4546 29.6897 23.0535 29.0763 22.9539 28.2707C22.8534 27.4651 23.092 26.7713 23.4852 26.7223C23.8793 26.6752 24.2812 27.2877 24.38 28.0942H24.3808Z" fill="#262626"/>
<path id="Vector_9" d="M34.4328 26.848C34.5333 27.6545 34.2939 28.3466 33.8998 28.3955C33.5057 28.4444 33.1055 27.831 33.005 27.0254C32.9054 26.2198 33.1448 25.5251 33.5389 25.4779C33.9321 25.429 34.334 26.0415 34.4328 26.848Z" fill="#262626"/>
<path id="Vector_10" d="M16.2633 31.2151C16.1173 31.2396 15.9732 31.1514 15.9303 31.0046C15.6691 30.1194 15.2995 29.5637 14.8591 29.4064C14.4344 29.2517 14.0543 29.5025 14.0377 29.5147C13.9023 29.6047 13.7188 29.5724 13.627 29.437C13.5344 29.3024 13.5659 29.1198 13.6996 29.0254C13.7258 29.0088 14.3348 28.5912 15.0505 28.8419C15.6918 29.0656 16.1794 29.7384 16.5009 30.8377C16.5481 30.9958 16.4564 31.161 16.2991 31.2064C16.2869 31.2099 16.2755 31.2125 16.2633 31.2134V31.2151Z" fill="#262626"/>
<path id="Vector_11" d="M39.9106 28.2888C39.8896 28.2906 39.8713 28.2923 39.8494 28.2914C39.6851 28.2853 39.5576 28.1464 39.5628 27.983C39.6083 26.8383 39.9158 26.0685 40.4829 25.6928C41.1155 25.2751 41.8085 25.5303 41.8364 25.5416C41.9902 25.601 42.0671 25.7732 42.0086 25.9278C41.95 26.0799 41.7796 26.1559 41.6258 26.0991C41.6031 26.0904 41.1785 25.9427 40.8036 26.1926C40.4156 26.4539 40.1928 27.0804 40.157 28.0057C40.1509 28.149 40.046 28.2661 39.9088 28.2888H39.9106Z" fill="#262626"/>
<path id="Vector_12" d="M29.8039 31.7411C29.6615 31.7647 29.5217 31.6843 29.4736 31.5428C29.4203 31.389 29.5051 31.2203 29.6589 31.1662C29.9752 31.0569 30.8499 30.6393 30.7441 30.1595C30.731 30.1028 30.7057 30.0678 30.6524 30.0398C30.3474 29.8738 29.5226 30.0512 29.035 30.2312C28.8812 30.288 28.71 30.2094 28.654 30.0556C28.5964 29.9009 28.6759 29.7296 28.8288 29.6728C28.9738 29.6187 30.2732 29.1556 30.9364 29.5182C31.1408 29.6292 31.2754 29.8048 31.3261 30.0311C31.5209 30.9075 30.4907 31.5113 29.852 31.7289C29.8363 31.735 29.8197 31.7367 29.8048 31.7411H29.8039Z" fill="#262626"/>
<path id="Vector_13" d="M30.565 36.6039C30.3762 36.6353 30.1831 36.6624 29.9865 36.6869C23.1876 37.5292 22.4859 32.7907 22.4798 32.7417C22.4588 32.5801 22.5733 32.4411 22.7367 32.4097C22.8992 32.387 23.0477 32.5014 23.0696 32.6648C23.094 32.8361 23.7188 36.8651 29.9131 36.098C32.2156 35.814 33.8408 35.052 34.7461 33.8383C35.709 32.5451 35.4958 31.189 35.494 31.175C35.4669 31.0134 35.5753 30.8596 35.7378 30.8334C35.8995 30.8054 36.0532 30.9129 36.0795 31.078C36.0908 31.1409 36.3372 32.6989 35.224 34.1913C34.2969 35.4339 32.7328 36.2439 30.565 36.6048V36.6039Z" fill="#262626"/>
<path id="Vector_14" d="M24.1056 25.1178C23.978 25.1396 23.8452 25.0732 23.7875 24.9483C23.6189 24.5822 23.4345 24.3646 23.2938 24.3655C23.0754 24.3681 22.7661 24.8146 22.6236 25.1379C22.559 25.2882 22.3825 25.3546 22.233 25.2908C22.0828 25.2253 22.0128 25.0505 22.0793 24.9011C22.1614 24.7132 22.5983 23.7792 23.2877 23.7722C23.6905 23.7669 24.0409 24.0789 24.3266 24.6993C24.3957 24.8487 24.3301 25.0261 24.1807 25.0951C24.1554 25.1056 24.1309 25.1134 24.1047 25.1187L24.1056 25.1178Z" fill="#262626"/>
<path id="Vector_15" d="M34.3558 23.831C34.2535 23.8476 34.1434 23.8083 34.0727 23.7201C33.8612 23.4466 33.4619 23.0962 33.2469 23.1329C33.2417 23.1346 33.2391 23.1346 33.2391 23.1346C33.1001 23.1678 32.9734 23.4256 32.9 23.8206C32.8686 23.9813 32.7113 24.0879 32.5514 24.0574C32.3906 24.0276 32.284 23.8721 32.3155 23.7113C32.4413 23.0403 32.7043 22.6506 33.0966 22.5571C33.7616 22.3972 34.4195 23.1958 34.5436 23.3566C34.6424 23.4868 34.6196 23.6738 34.4895 23.7751C34.4484 23.8057 34.4038 23.8249 34.3558 23.8328V23.831Z" fill="#262626"/>
<path id="Vector_16" d="M16.4522 27.6171C16.4522 27.6171 7.39714 14.0655 25.6926 11.9378C43.9871 9.81014 38.4184 24.8358 38.4184 24.8358C38.4184 24.8358 38.2201 26.1273 36.4323 23.665C34.6437 21.2026 28.3838 19.9557 27.0347 18.5026C27.0347 18.5026 23.1638 22.9589 20.5905 23.7419C18.0163 24.5248 17.4929 29.3577 16.4522 27.6171Z" fill="#72E3BA"/>
<path id="Vector_17" d="M15.8946 16.9302C15.8946 16.9302 3.08836 18.2706 8.52771 9.1456C13.9671 0.0206099 18.6698 14.5587 18.6698 14.5587L15.8946 16.9293V16.9302Z" fill="#72E3BA"/>
<path id="Vector_18" d="M37.0648 14.5323C37.0648 14.5323 48.9195 9.49925 39.7403 4.15252C30.5612 -1.19508 33.491 13.8018 33.491 13.8018L37.0648 14.5323Z" fill="#72E3BA"/>
<path id="Vector_19" d="M35.0204 21.9966C34.9968 22.1067 34.9102 22.1889 34.8098 22.2168C34.787 22.2256 34.7643 22.2256 34.7364 22.2256H34.732C34.7093 22.2256 34.6866 22.2256 34.6586 22.2168C30.3255 21.1596 28.0283 19.8829 26.8303 18.7304C26.6424 18.5522 26.4869 18.373 26.3497 18.2044C24.1076 21.0783 19.5141 23.7914 19.2668 23.9373C19.1252 24.0195 18.9417 23.974 18.8596 23.8325C18.7774 23.69 18.8229 23.5074 18.9653 23.4253C19.0291 23.3886 23.8839 20.5199 26.0019 17.6871C25.5214 16.85 25.5677 16.1588 25.6498 15.8023C25.6821 15.6512 25.732 15.5096 25.7966 15.3812C26.0579 14.8272 26.542 14.4803 26.9902 14.5668C27.109 14.5939 27.4157 14.6996 27.5215 15.1295C27.5713 15.3218 27.5809 15.583 27.5171 15.9299C27.407 16.5066 27.123 17.1017 26.7211 17.6958C27.2654 18.4595 28.3551 19.3753 30.4827 20.2674C30.4871 20.2718 30.4959 20.2762 30.5055 20.2762C30.7073 20.3635 30.9223 20.45 31.146 20.533C31.1643 20.5418 31.1827 20.5462 31.2062 20.5558C32.1989 20.9306 33.3837 21.2924 34.8028 21.6401C34.9627 21.6768 35.064 21.8367 35.023 21.9966H35.0204ZM26.3908 17.1235C26.6608 16.6796 26.8487 16.2401 26.9308 15.8189C26.9946 15.4712 26.9631 15.2789 26.9168 15.1968C26.8993 15.1688 26.8801 15.1505 26.867 15.1505C26.8487 15.1461 26.8303 15.1461 26.8023 15.1557C26.7569 15.1645 26.7019 15.1916 26.6468 15.2335C26.4913 15.348 26.3121 15.5769 26.23 15.9334C26.1846 16.1169 26.1391 16.5468 26.3908 17.1235Z" fill="#262626"/>
</g>
<path id="Vector_20" d="M50.6763 46.7479L50.5348 51.808C50.2325 52.1418 49.9214 52.4668 49.6051 52.7866L49.2075 53.1851C48.7269 53.6517 48.2324 54.1095 47.7247 54.5395C47.1576 55.0384 46.5765 55.505 45.9719 55.9532L45.9675 55.9585C40.55 60.0216 33.8192 62.428 26.53 62.428C24.2153 62.428 21.9592 62.1851 19.7852 61.7238C19.1954 61.6006 18.6143 61.4581 18.0376 61.3026C16.2123 60.8133 14.4595 60.1632 12.7801 59.3768C12.7206 59.3488 12.656 59.3173 12.5974 59.2894C12.2453 59.1199 11.8923 58.946 11.5445 58.7634C11.4947 58.7354 11.4388 58.7083 11.389 58.6803C9.61779 57.7428 7.94361 56.6488 6.38827 55.4089C6.02652 55.1293 5.67002 54.8322 5.32225 54.5307C3.83942 53.2541 2.4763 51.8403 1.2495 50.3164C0.815228 49.7764 0.398445 49.2277 -3.8147e-06 48.6597L16.367 46.7881L16.6597 46.7557C16.8703 47.3141 17.0852 47.8401 17.3098 48.3303C17.3098 48.3303 17.3098 48.3347 17.315 48.339C18.8389 51.6428 20.7149 53.3904 22.6915 54.1227C22.7011 54.1279 22.7054 54.1279 22.7054 54.1323C23.3048 54.3612 23.913 54.4896 24.5264 54.5438H24.5317C29.1575 54.9423 33.8926 50.9342 35.6734 49.2364C36.1443 48.7925 36.4056 48.5094 36.4056 48.5094L36.6939 48.4727L50.6763 46.7479Z" fill="#72E3BA"/>
<path id="Vector_21" d="M27.8941 56.0445C21.6963 56.0445 16.6187 47.2795 16.4037 46.9038C16.3216 46.7614 16.3714 46.5796 16.5147 46.4983C16.6572 46.418 16.8389 46.4669 16.9193 46.6093C16.9708 46.6984 22.1271 55.577 28.0243 55.4486C31.0231 55.3831 33.7528 53.002 36.1374 48.3718C36.2126 48.2258 36.3926 48.1682 36.5385 48.2433C36.6835 48.3193 36.7412 48.4976 36.6661 48.6444C34.1758 53.4834 31.2713 55.9729 28.0365 56.0428C27.9885 56.0428 27.9413 56.0445 27.8932 56.0445H27.8941Z" fill="#262626"/>
</g>
</g>
</g>
</g>
</svg>
