<svg width="52" height="56" viewBox="0 0 52 56" fill="none" xmlns="http://www.w3.org/2000/svg">
<g id="Gender=Female, Variant=3">
<g id=".Background">
<path id="Background" d="M25.7695 55.5316C41.6409 50.249 55.4166 19.1239 50.2165 6.70534C44.6465 -6.60044 10.1843 2.5633 2.21131 11.2478C-5.94732 20.1355 9.94838 60.796 25.7695 55.5316Z" fill="#FDECC8"/>
</g>
<g id=".Illustration">
<mask id="mask0_12_373" style="mask-type:alpha" maskUnits="userSpaceOnUse" x="0" y="0" width="52" height="56">
<path id="Shape" d="M25.7695 55.5316C41.6409 50.249 55.4166 19.1239 50.2165 6.70534C44.6465 -6.60044 10.1843 2.5633 2.21131 11.2478C-5.94732 20.1355 9.94838 60.796 25.7695 55.5316Z" fill="#DA002F"/>
</mask>
<g mask="url(#mask0_12_373)">
<g id="Group">
<path id="Vector" d="M16.7883 33.8941L15.9745 48.3139L36.428 49.4683L37.2347 35.1876L16.7883 33.8941Z" fill="#C4B5FD"/>
<path id="Vector_2" d="M16.7883 33.894L16.3548 41.5691C30.5324 51.8356 36.6458 37.5523 37.1751 36.2254L37.2338 35.1866L16.7874 33.8931L16.7883 33.894Z" fill="#020000"/>
<path id="Vector_3" d="M36.4307 49.1638L47.4551 54.3847C47.4551 54.3847 41.1557 60.7139 24.391 59.7655C7.62636 58.8198 4.13074 46.0683 4.13074 46.0683L16.1839 44.6105C16.1839 44.6105 28.6852 47.3429 36.4316 49.1648L36.4307 49.1638Z" fill="#C4B5FD"/>
<path id="Vector_4" d="M-1.1822 50.9096C-2.08547 49.7887 -2.91829 48.6063 -3.67523 47.3715L-2.64371 43.7819C-2.54886 43.7819 -2.45942 43.7864 -2.36999 43.7955L15.8787 44.5949L16.1813 44.6093H16.1858L16.1903 44.6138C16.8479 46.1033 17.5488 47.3715 18.276 48.4401V48.4446C19.0374 49.58 19.8323 50.4878 20.6407 51.2122L20.6452 51.2167C26.9546 56.8784 34.1834 51.1833 35.999 49.5655C36.046 49.5231 36.0884 49.4852 36.1264 49.4472H36.1309C36.3251 49.2675 36.4289 49.1636 36.4289 49.1636L36.4425 49.1681L36.6321 49.244C36.6367 49.2395 36.6367 49.244 36.6367 49.244L48.3909 53.875C42.3462 59.7824 34.0687 63.4298 24.9493 63.4298C22.5565 63.4298 20.2243 63.1787 17.977 62.7018C17.3673 62.5735 16.7666 62.4272 16.1705 62.2664C14.2167 61.7416 12.3388 61.0407 10.5467 60.1853C10.1258 59.9865 9.70937 59.7788 9.29839 59.5566C5.24001 57.414 1.6739 54.4576 -1.18313 50.9105L-1.1822 50.9096Z" fill="#C4B5FD"/>
<path id="Vector_5" d="M27.9328 56.2807C27.782 56.2807 27.632 56.2735 27.4812 56.2636C20.8367 55.7921 16.1009 45.1841 15.9022 44.7334C15.8344 44.5771 15.9049 44.3964 16.0602 44.3278C16.2174 44.2591 16.3971 44.3296 16.4649 44.4859C16.5128 44.5924 21.2513 55.2049 27.5263 55.6502C30.5125 55.8589 33.4202 53.7281 36.1679 49.3066C36.2573 49.1621 36.447 49.1169 36.5906 49.2081C36.7351 49.2967 36.7794 49.4863 36.6891 49.63C33.9459 54.0451 31.0021 56.2807 27.9328 56.2807Z" fill="#020000"/>
<g id="Group_2">
<g id="Group_3">
<path id="Vector_6" d="M39.3564 30.1292C39.3953 32.0387 40.9164 33.5598 42.7563 33.5309C44.5945 33.5011 46.0542 31.9312 46.0153 30.0217L45.8888 23.7512C45.8509 21.8435 44.3289 20.3206 42.4898 20.3495C40.6508 20.3793 39.1911 21.9501 39.23 23.8587L39.3564 30.1283V30.1292Z" fill="#FF7C38"/>
<path id="Vector_7" d="M38.0773 31.942C38.09 32.5436 38.5687 33.0232 39.1477 33.0124C39.7267 33.0043 40.1856 32.5093 40.1738 31.9086L39.9751 22.054C39.9625 21.4533 39.4837 20.9746 38.9047 20.9836C38.3257 20.9926 37.866 21.4876 37.8786 22.0883L38.0773 31.942Z" fill="#020000"/>
</g>
<g id="Group_4">
<path id="Vector_8" d="M24.5355 14.1875C24.5355 14.1875 15.6997 15.4042 15.5453 25.1803C15.3908 34.9564 18.7428 44.3585 28.3843 43.2195C38.7385 42.001 39.8269 33.69 38.1586 22.6647C36.4884 11.6403 26.576 13.7567 24.5346 14.1875H24.5355Z" fill="#C4B5FD"/>
<path id="Vector_9" d="M16.1287 25.7901C16.1287 25.7901 12.7569 23.0992 11.4616 26.4305C10.1672 29.7599 15.0502 34.6602 16.434 31.3253L16.1278 25.791L16.1287 25.7901Z" fill="#C4B5FD"/>
<path id="Vector_10" d="M24.3322 27.3145C24.4198 28.1482 24.1597 28.8609 23.7505 28.9024C23.3423 28.9458 22.9403 28.3045 22.8536 27.4698C22.7651 26.6343 23.0261 25.9226 23.4335 25.8792C23.8427 25.8376 24.2437 26.4808 24.3313 27.3145H24.3322Z" fill="#020000"/>
<path id="Vector_11" d="M34.7496 26.2254C34.8372 27.0609 34.5762 27.7718 34.1697 27.816C33.7606 27.8576 33.3586 27.2154 33.271 26.3807C33.1833 25.5461 33.4444 24.8343 33.8527 24.7919C34.26 24.7503 34.6629 25.3908 34.7496 26.2254Z" fill="#020000"/>
<path id="Vector_12" d="M14.8651 29.3098C15.0295 29.2746 15.1361 29.1147 15.1045 28.9494C14.8777 27.7878 14.4396 27.048 13.8019 26.7572C13.0892 26.4293 12.4217 26.8005 12.3937 26.8159C12.2456 26.8999 12.195 27.0887 12.2781 27.2359C12.3612 27.3823 12.5482 27.4328 12.6963 27.3515C12.7144 27.3407 13.129 27.1194 13.5508 27.3172C13.988 27.5214 14.3168 28.1256 14.5001 29.0659C14.5318 29.233 14.6935 29.3414 14.8597 29.3089H14.8642L14.8651 29.3098Z" fill="#020000"/>
<path id="Vector_13" d="M29.8783 31.1102C29.8882 31.1084 29.9 31.1048 29.9091 31.103C30.572 30.8889 31.6487 30.2864 31.4636 29.3759C31.4166 29.1429 31.282 28.9568 31.0716 28.8376C30.3941 28.4501 29.0428 28.9044 28.8911 28.9577C28.7294 29.0119 28.6454 29.1889 28.7014 29.3488C28.7565 29.5087 28.9308 29.5954 29.0925 29.5376C29.6001 29.3624 30.4555 29.1944 30.768 29.3723C30.8231 29.4039 30.8494 29.44 30.8611 29.4987C30.9623 29.9946 30.0481 30.4101 29.7194 30.5167C29.5586 30.5691 29.4701 30.7416 29.5215 30.9033C29.5712 31.056 29.7248 31.1418 29.8774 31.1102H29.8783Z" fill="#020000"/>
<path id="Vector_14" d="M30.9414 36.109C32.7985 35.7179 34.1733 34.9591 35.0396 33.8418C36.2192 32.318 35.9961 30.7065 35.9853 30.6388C35.96 30.4699 35.8037 30.3543 35.6357 30.3813C35.4677 30.4048 35.3512 30.5602 35.3756 30.7291C35.3783 30.7436 35.5662 32.1653 34.5437 33.4732C33.5826 34.7062 31.8899 35.4577 29.5134 35.707C23.0695 36.3827 22.5122 32.0678 22.5058 32.0253C22.4878 31.8564 22.336 31.7354 22.1671 31.7534C22.0018 31.7706 21.8762 31.9241 21.8952 32.094C21.9015 32.1427 22.5329 37.0556 29.5766 36.3185C30.0571 36.2679 30.5106 36.1975 30.9396 36.109H30.9414Z" fill="#020000"/>
<path id="Vector_15" d="M24.1263 24.2289C24.1462 24.2252 24.167 24.2189 24.1859 24.2099C24.3413 24.1421 24.4127 23.9606 24.344 23.8052C24.0613 23.1594 23.7063 22.8297 23.289 22.827C22.5763 22.8189 22.1048 23.7763 22.0172 23.9696C21.9467 24.1241 22.0136 24.3056 22.168 24.3761C22.3225 24.4493 22.505 24.3806 22.5754 24.2252C22.7281 23.8946 23.0559 23.4385 23.2836 23.4403C23.4272 23.4412 23.6132 23.6715 23.7804 24.0518C23.8391 24.1864 23.9863 24.2596 24.1254 24.2289H24.1263Z" fill="#020000"/>
<path id="Vector_16" d="M34.7487 23.1026C34.7903 23.0954 34.8318 23.0764 34.8679 23.0484C35.0043 22.9482 35.0332 22.7558 34.9321 22.6185C34.8065 22.4496 34.148 21.6149 33.4598 21.7613C33.4598 21.7613 33.4534 21.7613 33.4525 21.7631C33.0451 21.8534 32.766 22.2472 32.6224 22.9409C32.5881 23.1053 32.6956 23.2688 32.8618 23.3041C33.028 23.3366 33.1906 23.2291 33.2249 23.0656C33.3098 22.6564 33.4444 22.3954 33.5853 22.3647H33.5862C33.8048 22.3177 34.2284 22.7025 34.4389 22.9852C34.5129 23.0855 34.6358 23.1279 34.7496 23.1035L34.7487 23.1026Z" fill="#020000"/>
<path id="Vector_17" d="M15.575 25.462C15.575 25.462 16.7737 27.7175 17.928 25.2994C19.0824 22.8823 18.4664 18.5024 22.6151 18.9901C26.7647 19.4797 28.3879 19.7227 31.2747 18.5123C34.1643 17.3037 36.9789 19.0687 37.8803 21.204C37.8803 21.204 43.0127 7.08055 26.0087 8.95393C9.00284 10.8282 12.7171 21.046 15.575 25.4611V25.462Z" fill="#C4B5FD"/>
<path id="Vector_18" d="M24.0035 10.242C24.0035 10.242 25.5851 -4.10459 13.4524 2.95173C1.31975 10.0063 14.9952 14.145 14.9952 14.145L24.0035 10.242Z" fill="#C4B5FD"/>
<path id="Vector_19" d="M14.3837 14.305C14.4577 14.2906 14.5273 14.2472 14.5724 14.1804C17.247 10.3315 23.9908 9.50414 24.0585 9.49601C24.2211 9.47975 24.3485 9.32439 24.3286 9.15548C24.3087 8.98657 24.1561 8.86643 23.9881 8.8863C23.6999 8.91973 16.8983 9.75615 14.0684 13.8299C13.9708 13.969 14.0061 14.1605 14.1452 14.258C14.2174 14.3068 14.3033 14.3222 14.3837 14.305Z" fill="#020000"/>
<path id="Vector_20" d="M18.8566 21.0612C19.4528 20.9357 20.2124 20.1995 21.3207 19.1273C22.598 17.8917 24.1859 16.3525 25.9942 15.3607C26.7069 14.9678 27.0032 14.8973 27.1134 14.8865C27.1062 15.0924 26.902 15.5955 26.7629 15.9406C26.3926 16.8619 25.9698 17.9043 26.4928 18.4851C26.8686 18.9015 27.5939 18.9358 28.7781 18.5944C34.2799 17.0065 34.5229 13.4394 34.531 13.2886C34.5392 13.1197 34.4091 12.9734 34.2402 12.9661C34.0694 12.9562 33.9258 13.0872 33.9177 13.2561C33.9096 13.3934 33.6621 16.5449 28.6092 18.0028C27.3771 18.3623 27.0384 18.1708 26.9499 18.0732C26.6843 17.7797 27.0764 16.8113 27.3329 16.1709C27.6698 15.339 27.9119 14.7365 27.5442 14.4105C27.2407 14.1422 26.7241 14.2578 25.698 14.8205C23.8192 15.8539 22.1978 17.4229 20.8935 18.6847C20.0236 19.5266 18.9406 20.578 18.6516 20.4578C18.6516 20.4578 18.4808 20.3802 18.461 19.5952C18.4565 19.4272 18.3156 19.2917 18.1458 19.2962C17.9787 19.3044 17.8414 19.4417 17.8468 19.6097C17.8612 20.1688 17.9389 20.8318 18.4194 21.0278C18.5567 21.0838 18.7013 21.0937 18.8575 21.0612H18.8566Z" fill="#020000"/>
</g>
<path id="Vector_21" d="M43.9558 20.68C43.5114 20.4578 43.0146 20.3395 42.4898 20.3485C42.1538 20.3539 41.8277 20.4108 41.5242 20.5138C40.8576 18.3956 39.594 15.7184 37.2292 13.7176C34.2024 11.1632 30.0256 10.2554 24.8083 10.9979C19.2885 11.7928 15.4198 13.8603 13.2999 17.1464C10.5042 21.4884 11.73 26.5973 11.7444 26.6497L9.54044 27.2359C9.4736 26.9857 8.03107 21.0874 11.3849 15.8511C13.8725 11.968 18.2804 9.55085 24.4823 8.65752C30.3616 7.81025 35.139 8.90772 38.6817 11.9066C41.8277 14.5703 43.2883 18.1409 43.9558 20.6809V20.68Z" fill="#FFC826"/>
<g id="Group_5">
<path id="Vector_22" d="M15.3384 31.8671C15.6699 33.7468 14.4712 35.5461 12.662 35.8893C10.8536 36.2326 9.11934 34.9897 8.78874 33.1109L7.70125 26.9416C7.37065 25.0637 8.56837 23.2626 10.3776 22.9202C12.1869 22.577 13.9211 23.8199 14.2517 25.6978L15.3384 31.8671Z" fill="#FF7C38"/>
<path id="Vector_23" d="M16.9434 33.3846C17.0482 33.9763 16.6706 34.5435 16.1007 34.651C15.5307 34.7594 14.986 34.3674 14.8813 33.7758L13.1732 24.0801C13.0684 23.4875 13.446 22.9212 14.0159 22.8137C14.5859 22.7053 15.1305 23.0964 15.2353 23.689L16.9434 33.3846Z" fill="#020000"/>
</g>
</g>
<g id="Group_6">
</g>
</g>
</g>
</g>
</g>
</svg>
