<svg width="52" height="56" viewBox="0 0 52 56" fill="none" xmlns="http://www.w3.org/2000/svg">
<g id="Gender=Female, Variant=2">
<g id=".Background">
<path id="Background" d="M25.7695 55.5316C41.6409 50.249 55.4166 19.1239 50.2165 6.70534C44.6465 -6.60044 10.1843 2.5633 2.21131 11.2478C-5.94732 20.1355 9.94838 60.796 25.7695 55.5316Z" fill="#FFE1DF"/>
</g>
<g id=".Illustration">
<mask id="mask0_12_370" style="mask-type:alpha" maskUnits="userSpaceOnUse" x="0" y="0" width="52" height="56">
<path id="Shape" d="M25.7695 55.5316C41.6409 50.249 55.4166 19.1239 50.2165 6.70534C44.6465 -6.60044 10.1843 2.5633 2.21131 11.2478C-5.94732 20.1355 9.94838 60.796 25.7695 55.5316Z" fill="#DA002F"/>
</mask>
<g mask="url(#mask0_12_370)">
<g id="Group">
<path id="Vector" d="M47.962 49.4421C47.962 49.4421 47.2513 50.2373 45.8624 51.3541C45.5313 51.6177 45.1653 51.8992 44.7592 52.1987C41.8823 54.2805 37.1019 56.9654 30.5248 58.0242C29.7475 58.1539 28.9481 58.2571 28.1214 58.3331C26.2845 58.5028 24.3239 58.5429 22.2421 58.4133C20.2849 58.2921 18.5018 58.0643 16.8807 57.7563C13.7752 55.8529 11.0279 53.4273 8.75422 50.6033C7.90104 49.5445 7.1144 48.4277 6.39943 47.2614C6.38237 47.2298 6.36359 47.2033 6.34653 47.1718L13.6421 45.2282L13.9544 45.1429H13.9859L14.0038 44.8213V44.817L14.2939 40.1441L14.5848 35.4619V35.4576L14.7725 32.4596L31.3165 33.5986H31.3208L31.9862 33.648H31.9905L35.2428 33.8716L35.1669 34.9304L35.015 37.0838L34.4741 44.7462L34.452 45.0721L34.7642 45.1711L47.962 49.4421Z" fill="#F8BD51"/>
<path id="Vector_2" d="M53.7261 55.0806C53.2074 55.514 52.6759 55.9295 52.1307 56.3228C50.8714 57.2519 49.5353 58.0829 48.1412 58.8158C47.6677 59.0615 47.1899 59.2978 46.7028 59.5214C42.6681 61.389 38.1744 62.4298 33.4384 62.4298C31.1775 62.4298 28.9754 62.1927 26.8527 61.7422C26.7051 61.7106 26.5584 61.679 26.4108 61.6432C25.9859 61.5494 25.5661 61.4427 25.1464 61.3309C25.0517 61.3036 24.9587 61.2815 24.8691 61.255C23.1226 60.7678 21.4427 60.1331 19.8345 59.3652C19.4369 59.1775 19.0436 58.9813 18.6554 58.7714C18.0522 58.454 17.4575 58.1145 16.8816 57.7578C13.776 55.8544 11.0288 53.4288 8.75508 50.6048C7.9019 49.546 7.11531 48.4292 6.40034 47.2629C6.38328 47.2313 6.3645 47.2049 6.34743 47.1733C6.29368 47.0837 6.23566 46.9899 6.18617 46.896L13.6336 45.2076L13.9552 45.1359C13.9581 45.1388 13.9612 45.1416 13.9646 45.1444C14.7017 45.9217 15.4346 46.5206 16.1581 46.9805C19.1826 48.9198 22.0152 48.4505 24.3657 48.5887C29.0829 48.8745 32.3003 46.8593 33.685 45.7562L33.6892 45.7519C34.1943 45.3501 34.4537 45.0728 34.4537 45.0728L34.7702 45.1581L53.6059 50.2379L53.727 55.0806H53.7261Z" fill="#F8BD51"/>
<path id="Vector_3" d="M14.7709 32.4611L14.2948 40.1457C28.4354 50.5076 34.6389 36.2356 35.1772 34.9132L35.2421 33.8714L14.7717 32.4611H14.7709Z" fill="#020000"/>
<path id="Vector_4" d="M25.0807 52.1244C25.4603 52.1244 25.8375 52.0988 26.2137 52.0493C31.721 51.3105 34.6269 45.4637 34.748 45.2154C34.8274 45.0541 34.76 44.857 34.5962 44.7786C34.4358 44.6992 34.2395 44.7658 34.1593 44.9287C34.1312 44.9859 31.2807 50.7116 26.1233 51.4001C22.4094 51.8932 18.3994 49.7176 14.2009 44.9262C14.0823 44.7905 13.8759 44.7768 13.7394 44.8963C13.6029 45.0149 13.5892 45.2222 13.7078 45.3579C17.6478 49.8533 21.4666 52.1236 25.0815 52.1236L25.0807 52.1244Z" fill="#020000"/>
<g id="Group_2">
<path id="Vector_5" d="M22.1124 11.636C22.1124 11.636 27.6922 0.891091 36.0883 6.74646C44.4853 12.6027 52.1699 17.4095 58.2062 15.8388C64.2424 14.2655 55.2601 39.6126 36.1302 20.5867L22.1124 11.636Z" fill="#F8BD51"/>
<path id="Vector_6" d="M21.1841 14.3227C21.1841 14.3227 12.4672 15.9659 12.794 25.6845C13.1199 35.4048 16.9123 44.5773 26.4346 42.9742C36.6625 41.2542 37.3331 32.945 35.1353 22.073C32.935 11.2061 23.1925 13.7937 21.185 14.3219L21.1841 14.3227Z" fill="#F8BD51"/>
<path id="Vector_7" d="M13.3016 27.0869C13.3016 27.0869 9.64572 24.8431 8.77463 28.2874C7.90183 31.7316 13.3178 35.9719 14.2793 32.5132L13.3025 27.0869H13.3016Z" fill="#F8BD51"/>
<path id="Vector_8" d="M35.0142 23.7255C35.0142 23.7255 37.8203 20.4783 39.693 23.4985C41.5666 26.5171 37.6855 32.1967 35.7223 29.1901L35.0133 23.7255H35.0142Z" fill="#F8BD51"/>
<path id="Vector_9" d="M20.3711 27.8908C20.4991 28.7149 20.2772 29.4341 19.872 29.4973C19.4684 29.5596 19.0384 28.9427 18.9095 28.1186C18.7824 27.2918 19.0068 26.5717 19.4087 26.5078C19.8122 26.4472 20.2448 27.0666 20.3711 27.8908Z" fill="#020000"/>
<path id="Vector_10" d="M30.6664 26.2952C30.7943 27.1211 30.5708 27.8412 30.1664 27.9026C29.7628 27.9658 29.3328 27.3472 29.2049 26.523C29.0769 25.6989 29.3013 24.9779 29.7031 24.9131C30.1075 24.8516 30.5384 25.4711 30.6664 26.2952Z" fill="#020000"/>
<path id="Vector_11" d="M12.759 30.6746C12.6063 30.7113 12.4485 30.6243 12.399 30.4733C12.1029 29.5638 11.7028 29.0058 11.2421 28.8599C10.8019 28.7191 10.4145 28.9964 10.4145 28.9964C10.2737 29.0997 10.0826 29.0706 9.98367 28.935C9.88128 28.7993 9.90942 28.6091 10.0451 28.5084C10.0715 28.4879 10.685 28.0409 11.4281 28.2772C12.0935 28.4896 12.6166 29.1628 12.9826 30.283C13.0346 30.4443 12.9459 30.6158 12.7863 30.6695C12.7786 30.6721 12.7702 30.6746 12.7599 30.6755L12.759 30.6746Z" fill="#020000"/>
<path id="Vector_12" d="M36.9688 26.9275C36.9449 26.9317 36.921 26.9334 36.8963 26.9326C36.7274 26.9317 36.5908 26.7935 36.5934 26.6263C36.6028 25.448 36.8954 24.6461 37.4654 24.2434C38.1044 23.7954 38.8236 24.036 38.8535 24.0454C39.013 24.1017 39.0975 24.2749 39.0412 24.4353C38.9865 24.594 38.8134 24.6776 38.6555 24.6239C38.6325 24.617 38.1906 24.4788 37.8118 24.7459C37.4218 25.0291 37.2103 25.6784 37.2043 26.6305C37.2026 26.7747 37.1019 26.895 36.9688 26.9275Z" fill="#020000"/>
<path id="Vector_13" d="M25.6599 31.4955C25.5131 31.5296 25.3604 31.4494 25.305 31.3035C25.2452 31.1465 25.3246 30.9682 25.4833 30.9111C25.8024 30.7882 26.6914 30.3318 26.5668 29.8429C26.5514 29.784 26.5233 29.7499 26.4662 29.7217C26.1479 29.5605 25.3058 29.7678 24.8101 29.97C24.6531 30.0314 24.4774 29.9555 24.4134 29.7994C24.3503 29.6432 24.4245 29.4641 24.5806 29.4018C24.7299 29.3404 26.0498 28.8259 26.7426 29.1766C26.9559 29.2841 27.0984 29.4649 27.1572 29.6927C27.3867 30.5869 26.3476 31.2378 25.6966 31.4827C25.6855 31.4895 25.6719 31.4921 25.6591 31.4955H25.6599Z" fill="#020000"/>
<path id="Vector_14" d="M27.3646 36.763C27.0378 36.8398 26.6957 36.9064 26.3391 36.9618C19.378 38.0403 18.5086 33.1899 18.5009 33.1422C18.4745 32.9766 18.5905 32.8188 18.7535 32.7915C18.919 32.7633 19.0777 32.8777 19.105 33.0415C19.134 33.2181 19.9027 37.3389 26.2461 36.3561C28.5932 35.9943 30.2381 35.1633 31.1331 33.8912C32.0844 32.5398 31.8268 31.1372 31.825 31.1227C31.7935 30.958 31.9206 30.8079 32.0656 30.7652C32.2303 30.7311 32.3933 30.8394 32.424 31.0032C32.4376 31.0723 32.7396 32.6618 31.6433 34.2317C30.7901 35.4526 29.3534 36.2998 27.3646 36.763Z" fill="#020000"/>
<path id="Vector_15" d="M20.0059 24.8389C19.8719 24.8697 19.7277 24.8065 19.6646 24.6777C19.4786 24.3049 19.2832 24.0881 19.1399 24.0916C18.9164 24.1069 18.6109 24.5727 18.4753 24.9098C18.4113 25.0642 18.2338 25.141 18.0769 25.077C17.9199 25.0138 17.8448 24.8355 17.9079 24.6794C17.9864 24.4857 18.407 23.5122 19.1143 23.4832C19.5298 23.4662 19.8984 23.7767 20.2123 24.4038C20.2866 24.5557 20.2235 24.74 20.0742 24.8159C20.0511 24.8253 20.0298 24.833 20.0068 24.8398L20.0059 24.8389Z" fill="#020000"/>
<path id="Vector_16" d="M30.5043 23.1947C30.3933 23.2212 30.2747 23.1845 30.1988 23.0906C29.9702 22.8134 29.5427 22.4644 29.3251 22.5165H29.3183C29.1809 22.5548 29.0598 22.8202 28.9958 23.2314C28.9702 23.3986 28.8124 23.5113 28.6469 23.4874C28.4797 23.4601 28.3653 23.3031 28.3909 23.1376C28.501 22.4422 28.7595 22.0344 29.1588 21.9269C29.8243 21.729 30.5384 22.5412 30.6706 22.7033C30.7772 22.833 30.7576 23.0249 30.6279 23.1324C30.5912 23.1632 30.5477 23.1836 30.5034 23.1947H30.5043Z" fill="#020000"/>
<path id="Vector_17" d="M12.9091 26.9737C12.9091 26.9737 14.2964 29.4377 14.8953 26.1435C15.4934 22.8511 17.1571 17.4241 17.454 19.5877C17.7509 21.7497 19.79 22.5354 24.2828 21.3359C28.774 20.1338 31.5664 19.5468 32.4085 21.0475C33.2506 22.5465 34.3615 26.2161 35.4373 23.4484L37.9294 22.329C37.9294 22.329 36.584 -0.287079 17.2569 12.8271C17.2569 12.8271 4.95241 9.45708 12.9091 26.9737Z" fill="#F8BD51"/>
<path id="Vector_18" d="M33.8043 23.3245C33.7975 23.327 33.7915 23.3279 33.783 23.3287C33.603 23.3569 33.4349 23.2332 33.4068 23.0532C33.2225 21.8698 32.7985 21.0431 32.1466 20.5977C31.3967 20.0884 30.5759 20.2633 30.5631 20.2667C20.5502 22.1522 17.7919 20.5115 17.0454 19.3111C16.5437 19.9467 15.6521 23.3321 15.0651 26.3328C15.0293 26.5102 14.8587 26.628 14.6778 26.5904C14.4995 26.5563 14.3843 26.3848 14.4184 26.2048C15.0771 22.8356 16.0531 18.7924 16.9746 18.5893C16.9814 18.5876 16.9865 18.5859 16.9933 18.5859C17.1017 18.568 17.3755 18.5629 17.5777 18.9186C17.954 19.5807 19.9931 21.5865 30.4283 19.6208C30.4548 19.6012 31.5102 19.3751 32.5075 20.0457C33.3215 20.5977 33.8444 21.5729 34.0586 22.9533C34.0859 23.1257 33.9733 23.2886 33.8043 23.3245Z" fill="#020000"/>
<path id="Vector_19" d="M37.9354 21.6703C37.9277 21.6728 37.9192 21.6737 37.9098 21.6745C37.7298 21.701 37.5634 21.5764 37.5387 21.3964C36.7171 15.6596 34.7718 11.8459 31.7593 10.0585C28.4216 8.07915 24.8886 9.36233 24.8536 9.37769C24.683 9.43741 24.4936 9.3555 24.4296 9.18487C24.3665 9.01423 24.4509 8.82397 24.6216 8.76169C24.7768 8.70111 28.4728 7.34883 32.0869 9.48774C35.2837 11.3784 37.3382 15.3542 38.1913 21.3026C38.2144 21.474 38.1026 21.6336 37.9363 21.6703H37.9354Z" fill="#020000"/>
</g>
<path id="Vector_20" d="M46.7787 52.3641C46.5015 51.9751 46.1977 51.6355 45.8624 51.3548C45.0092 50.6356 43.959 50.2602 42.7261 50.238C42.686 50.2338 42.6459 50.2338 42.6058 50.2338C38.8663 50.2338 33.6611 53.5663 28.1214 58.3338C27.049 59.2544 25.9637 60.233 24.8683 61.256C24.9578 61.2824 25.0517 61.3046 25.1455 61.3319C25.5653 61.4437 25.9851 61.5503 26.4099 61.6442C27.8032 60.349 29.1794 59.1333 30.524 58.0258C35.2148 54.1609 39.4994 51.575 42.5913 51.575C42.6272 51.575 42.663 51.575 42.6988 51.5792C43.5034 51.592 44.1868 51.7985 44.7584 52.2003C45.1031 52.4418 45.406 52.7498 45.679 53.1337C46.8052 54.7334 47.0825 56.9449 46.7028 59.5223C47.19 59.2988 47.6677 59.0625 48.1412 58.8167C48.3784 56.3186 47.9979 54.0987 46.7787 52.365V52.3641Z" fill="white"/>
</g>
</g>
</g>
</g>
</svg>
