<svg width="24" height="32" viewBox="0 0 24 32" fill="none" xmlns="http://www.w3.org/2000/svg">
<g id="Logomark">
<g id="Clip path group">
<mask id="mask0_1_1435" style="mask-type:luminance" maskUnits="userSpaceOnUse" x="0" y="0" width="19" height="22">
<g id="clippath">
<path id="Vector" d="M14.9411 1.13803C10.5974 -3.42496 0.487959 6.84243 0.0113957 12.3575C-0.467772 17.8751 14.3083 24.8551 17.1234 20.1054C19.7224 15.7212 18.2797 4.64641 14.9411 1.14066V1.13803ZM14.2328 17.3912C12.3369 20.6103 2.38901 15.8869 2.71192 12.1497C3.03484 8.41515 9.84475 1.46152 12.7692 4.5491C15.0166 6.92133 15.9828 14.4194 14.2328 17.3912Z" fill="white"/>
</g>
</mask>
<g mask="url(#mask0_1_1435)">
<g id="Group">
<path id="Vector_2" fill-rule="evenodd" clip-rule="evenodd" d="M14.9411 1.13803C10.5974 -3.42496 0.487959 6.84243 0.0113957 12.3575C-0.467772 17.8751 14.3083 24.8551 17.1234 20.1054C19.7224 15.7212 18.2797 4.64641 14.9411 1.14066V1.13803ZM14.2328 17.3912C12.3369 20.6103 2.38901 15.8869 2.71192 12.1497C3.03484 8.41515 9.84475 1.46152 12.7692 4.5491C15.0166 6.92133 15.9828 14.4194 14.2328 17.3912Z" fill="#DA002F"/>
<path id="Vector_3" fill-rule="evenodd" clip-rule="evenodd" d="M16.6495 -0.411018C12.3031 -4.97664 2.19109 5.29338 1.71192 10.8111C1.23276 16.3287 16.014 23.3139 18.8318 18.5616C21.4333 14.1748 19.988 3.09473 16.6495 -0.413648V-0.411018Z" fill="url(#paint0_linear_1_1435)"/>
<path id="Vector_4" fill-rule="evenodd" clip-rule="evenodd" d="M15.751 3.71277C11.4047 -0.852854 1.29005 9.41717 0.813485 14.9375C0.334318 20.4551 15.1156 27.4403 17.9333 22.688C20.5349 18.3012 19.0896 7.22378 15.751 3.7154V3.71277Z" fill="url(#paint1_linear_1_1435)"/>
<path id="Vector_5" fill-rule="evenodd" clip-rule="evenodd" d="M11.5974 0.422684C7.251 -4.14294 -2.861 6.12708 -3.34017 11.6448C-3.81934 17.1624 10.9619 24.1476 13.7797 19.3953C16.3812 15.0085 14.9359 3.93106 11.5974 0.422684Z" fill="url(#paint2_linear_1_1435)"/>
<path id="Vector_6" d="M7.38618 15.8376L6.85303 21.9918L13.6163 22.5894L14.1494 16.4351L7.38618 15.8376Z" fill="url(#paint3_linear_1_1435)"/>
</g>
</g>
</g>
<g id="Clip path group_2">
<mask id="mask1_1_1435" style="mask-type:luminance" maskUnits="userSpaceOnUse" x="7" y="13" width="17" height="19">
<g id="clippath-1">
<path id="Vector_7" d="M23.1651 20.5735C23.1651 19.1796 21.0193 17.1256 18.3578 15.6002C18.2953 16.2551 18.2015 16.8837 18.0765 17.4702C20.0765 18.3302 21.8604 19.7766 21.8682 20.9075C21.8838 23.1667 18.2849 28.9394 15.7927 27.7928C13.4646 26.7224 11.3526 20.5525 12.8734 17.7437C13.1989 17.1414 13.8005 16.839 14.5453 16.7574C14.8422 16.021 15.0192 15.1137 15.0974 14.1196C12.5036 13.2596 10.0166 13.2385 8.91507 14.9901C5.96975 19.6635 10.1963 29.852 14.251 31.0855C18.1495 32.2742 23.1703 23.6927 23.1677 20.5709L23.1651 20.5735Z" fill="white"/>
</g>
</mask>
<g mask="url(#mask1_1_1435)">
<g id="Group_2">
<path id="Vector_8" fill-rule="evenodd" clip-rule="evenodd" d="M8.91247 14.9901C5.96975 19.6635 10.1937 29.852 14.2484 31.0855C18.1469 32.2742 23.1677 23.6927 23.1651 20.5709C23.1651 17.3465 11.6807 10.5928 8.91247 14.9901ZM15.7927 27.7901C13.4646 26.7197 11.3526 20.5498 12.8734 17.741C14.389 14.9427 21.8526 18.5931 21.8682 20.9049C21.8838 23.164 18.2849 28.9368 15.7927 27.7901Z" fill="#DA002F"/>
<path id="Vector_9" fill-rule="evenodd" clip-rule="evenodd" d="M6.9333 16.4445C3.6286 21.5413 8.47236 31.9955 12.9854 32.9791C17.2667 33.9127 22.6547 24.7315 22.6417 21.5229C22.626 18.2065 10.0166 11.6921 6.9333 16.4445Z" fill="url(#paint4_linear_1_1435)"/>
<path id="Vector_10" fill-rule="evenodd" clip-rule="evenodd" d="M7.19112 12.0235C3.92549 16.7653 8.68852 27.9401 13.1391 29.497C17.363 30.975 22.6886 22.3593 22.6781 19.1139C22.6677 15.758 10.2354 7.60251 7.19112 12.0235Z" fill="url(#paint5_linear_1_1435)"/>
<path id="Vector_11" fill-rule="evenodd" clip-rule="evenodd" d="M12.5062 15.8369C10.2146 19.9528 13.3448 28.9158 16.5427 30.1256C19.7146 31.3248 24.0089 23.5164 24.0271 20.6261C24.0479 17.649 14.6989 11.8999 12.5036 15.8396L12.5062 15.8369Z" fill="url(#paint6_linear_1_1435)"/>
</g>
</g>
</g>
</g>
<defs>
<linearGradient id="paint0_linear_1_1435" x1="13.083" y1="9.60119" x2="1.75625" y2="11.7049" gradientUnits="userSpaceOnUse">
<stop offset="0.25" stop-color="#AB1830" stop-opacity="0"/>
<stop offset="1" stop-color="#AB1830"/>
</linearGradient>
<linearGradient id="paint1_linear_1_1435" x1="11.9864" y1="10.9141" x2="14.6556" y2="3.01979" gradientUnits="userSpaceOnUse">
<stop stop-color="#AB1830" stop-opacity="0"/>
<stop offset="1" stop-color="#AB1830"/>
</linearGradient>
<linearGradient id="paint2_linear_1_1435" x1="6.91544" y1="11.06" x2="12.7544" y2="20.2288" gradientUnits="userSpaceOnUse">
<stop stop-color="#AB1830" stop-opacity="0"/>
<stop offset="1" stop-color="#AB1830"/>
</linearGradient>
<linearGradient id="paint3_linear_1_1435" x1="7.11949" y1="18.916" x2="13.8837" y2="19.502" gradientUnits="userSpaceOnUse">
<stop stop-color="#AB1830" stop-opacity="0"/>
<stop offset="0.24" stop-color="#AB1830"/>
<stop offset="0.78" stop-color="#AB1830"/>
<stop offset="1" stop-color="#AB1830" stop-opacity="0"/>
</linearGradient>
<linearGradient id="paint4_linear_1_1435" x1="5.84171" y1="25.2952" x2="22.5534" y2="21.5688" gradientUnits="userSpaceOnUse">
<stop offset="0.65" stop-color="#AB1830" stop-opacity="0"/>
<stop offset="1" stop-color="#AB1830"/>
</linearGradient>
<linearGradient id="paint5_linear_1_1435" x1="9.62945" y1="22.6265" x2="9.11359" y2="29.8688" gradientUnits="userSpaceOnUse">
<stop stop-color="#AB1830" stop-opacity="0"/>
<stop offset="1" stop-color="#AB1830"/>
</linearGradient>
<linearGradient id="paint6_linear_1_1435" x1="12.4268" y1="20.8768" x2="7.4089" y2="16.6735" gradientUnits="userSpaceOnUse">
<stop stop-color="#AB1830" stop-opacity="0"/>
<stop offset="1" stop-color="#AB1830"/>
</linearGradient>
</defs>
</svg>
