<svg width="6" height="131" viewBox="0 0 6 131" fill="none" xmlns="http://www.w3.org/2000/svg">
<path id="timeline" d="M2.88672 -0.00016284C1.41396 -0.00016284 0.220052 1.19374 0.220052 2.6665C0.220052 4.13926 1.41396 5.33317 2.88672 5.33317C4.35948 5.33317 5.55339 4.13926 5.55339 2.6665C5.55339 1.19374 4.35948 -0.00016284 2.88672 -0.00016284ZM2.88672 130.667L5.77347 125.667L-3.26432e-05 125.667L2.88672 130.667ZM2.38672 3.6665L2.38672 4.1665L3.38672 4.1665L3.38672 3.6665L2.88672 3.6665L2.38672 3.6665ZM3.38672 5.6665L3.38672 5.1665L2.38672 5.1665L2.38672 5.6665L2.88672 5.6665L3.38672 5.6665ZM2.38672 7.6665L2.38672 8.1665L3.38672 8.1665L3.38672 7.6665L2.88672 7.6665L2.38672 7.6665ZM3.38672 9.6665L3.38672 9.1665L2.38672 9.1665L2.38672 9.6665L2.88672 9.6665L3.38672 9.6665ZM2.38672 11.6665L2.38672 12.1665L3.38672 12.1665L3.38672 11.6665L2.88672 11.6665L2.38672 11.6665ZM3.38672 13.6665L3.38672 13.1665L2.38672 13.1665L2.38672 13.6665L2.88672 13.6665L3.38672 13.6665ZM2.38672 15.6665L2.38672 16.1665L3.38672 16.1665L3.38672 15.6665L2.88672 15.6665L2.38672 15.6665ZM3.38672 17.6665L3.38672 17.1665L2.38672 17.1665L2.38672 17.6665L2.88672 17.6665L3.38672 17.6665ZM2.38672 19.6665L2.38672 20.1665L3.38672 20.1665L3.38672 19.6665L2.88672 19.6665L2.38672 19.6665ZM3.38672 21.6665L3.38672 21.1665L2.38672 21.1665L2.38672 21.6665L2.88672 21.6665L3.38672 21.6665ZM2.38672 23.6665L2.38672 24.1665L3.38672 24.1665L3.38672 23.6665L2.88672 23.6665L2.38672 23.6665ZM3.38672 25.6665L3.38672 25.1665L2.38672 25.1665L2.38672 25.6665L2.88672 25.6665L3.38672 25.6665ZM2.38672 27.6665L2.38672 28.1665L3.38672 28.1665L3.38672 27.6665L2.88672 27.6665L2.38672 27.6665ZM3.38672 29.6665L3.38672 29.1665L2.38672 29.1665L2.38672 29.6665L2.88672 29.6665L3.38672 29.6665ZM2.38672 31.6665L2.38672 32.1665L3.38672 32.1665L3.38672 31.6665L2.88672 31.6665L2.38672 31.6665ZM3.38672 33.6665L3.38672 33.1665L2.38672 33.1665L2.38672 33.6665L2.88672 33.6665L3.38672 33.6665ZM2.38672 35.6665L2.38672 36.1665L3.38672 36.1665L3.38672 35.6665L2.88672 35.6665L2.38672 35.6665ZM3.38672 37.6665L3.38672 37.1665L2.38672 37.1665L2.38672 37.6665L2.88672 37.6665L3.38672 37.6665ZM2.38672 39.6665L2.38672 40.1665L3.38672 40.1665L3.38672 39.6665L2.88672 39.6665L2.38672 39.6665ZM3.38672 41.6665L3.38672 41.1665L2.38672 41.1665L2.38672 41.6665L2.88672 41.6665L3.38672 41.6665ZM2.38672 43.6665L2.38672 44.1665L3.38672 44.1665L3.38672 43.6665L2.88672 43.6665L2.38672 43.6665ZM3.38672 45.6665L3.38672 45.1665L2.38672 45.1665L2.38672 45.6665L2.88672 45.6665L3.38672 45.6665ZM2.38672 47.6665L2.38672 48.1665L3.38672 48.1665L3.38672 47.6665L2.88672 47.6665L2.38672 47.6665ZM3.38672 49.6665L3.38672 49.1665L2.38672 49.1665L2.38672 49.6665L2.88672 49.6665L3.38672 49.6665ZM2.38672 51.6665L2.38672 52.1665L3.38672 52.1665L3.38672 51.6665L2.88672 51.6665L2.38672 51.6665ZM3.38672 53.6665L3.38672 53.1665L2.38672 53.1665L2.38672 53.6665L2.88672 53.6665L3.38672 53.6665ZM2.38672 55.6665L2.38672 56.1665L3.38672 56.1665L3.38672 55.6665L2.88672 55.6665L2.38672 55.6665ZM3.38672 57.6665L3.38672 57.1665L2.38672 57.1665L2.38672 57.6665L2.88672 57.6665L3.38672 57.6665ZM2.38672 59.6665L2.38672 60.1665L3.38672 60.1665L3.38672 59.6665L2.88672 59.6665L2.38672 59.6665ZM3.38672 61.6665L3.38672 61.1665L2.38672 61.1665L2.38672 61.6665L2.88672 61.6665L3.38672 61.6665ZM2.38672 63.6665L2.38672 64.1665L3.38672 64.1665L3.38672 63.6665L2.88672 63.6665L2.38672 63.6665ZM3.38672 65.6665L3.38672 65.1665L2.38672 65.1665L2.38672 65.6665L2.88672 65.6665L3.38672 65.6665ZM2.38672 67.6665L2.38672 68.1665L3.38672 68.1665L3.38672 67.6665L2.88672 67.6665L2.38672 67.6665ZM3.38672 69.6665L3.38672 69.1665L2.38672 69.1665L2.38672 69.6665L2.88672 69.6665L3.38672 69.6665ZM2.38672 71.6665L2.38672 72.1665L3.38672 72.1665L3.38672 71.6665L2.88672 71.6665L2.38672 71.6665ZM3.38672 73.6665L3.38672 73.1665L2.38672 73.1665L2.38672 73.6665L2.88672 73.6665L3.38672 73.6665ZM2.38672 75.6665L2.38672 76.1665L3.38672 76.1665L3.38672 75.6665L2.88672 75.6665L2.38672 75.6665ZM3.38672 77.6665L3.38672 77.1665L2.38672 77.1665L2.38672 77.6665L2.88672 77.6665L3.38672 77.6665ZM2.38672 79.6665L2.38672 80.1665L3.38672 80.1665L3.38672 79.6665L2.88672 79.6665L2.38672 79.6665ZM3.38672 81.6665L3.38672 81.1665L2.38672 81.1665L2.38672 81.6665L2.88672 81.6665L3.38672 81.6665ZM2.38672 83.6665L2.38672 84.1665L3.38672 84.1665L3.38672 83.6665L2.88672 83.6665L2.38672 83.6665ZM3.38672 85.6665L3.38672 85.1665L2.38672 85.1665L2.38672 85.6665L2.88672 85.6665L3.38672 85.6665ZM2.38672 87.6665L2.38672 88.1665L3.38672 88.1665L3.38672 87.6665L2.88672 87.6665L2.38672 87.6665ZM3.38672 89.6665L3.38672 89.1665L2.38672 89.1665L2.38672 89.6665L2.88672 89.6665L3.38672 89.6665ZM2.38672 91.6665L2.38672 92.1665L3.38672 92.1665L3.38672 91.6665L2.88672 91.6665L2.38672 91.6665ZM3.38672 93.6665L3.38672 93.1665L2.38672 93.1665L2.38672 93.6665L2.88672 93.6665L3.38672 93.6665ZM2.38672 95.6665L2.38672 96.1665L3.38672 96.1665L3.38672 95.6665L2.88672 95.6665L2.38672 95.6665ZM3.38672 97.6665L3.38672 97.1665L2.38672 97.1665L2.38672 97.6665L2.88672 97.6665L3.38672 97.6665ZM2.38672 99.6665L2.38672 100.167L3.38672 100.167L3.38672 99.6665L2.88672 99.6665L2.38672 99.6665ZM3.38672 101.667L3.38672 101.167L2.38672 101.167L2.38672 101.667L2.88672 101.667L3.38672 101.667ZM2.38672 103.667L2.38672 104.167L3.38672 104.167L3.38672 103.667L2.88672 103.667L2.38672 103.667ZM3.38672 105.667L3.38672 105.167L2.38672 105.167L2.38672 105.667L2.88672 105.667L3.38672 105.667ZM2.38672 107.667L2.38672 108.167L3.38672 108.167L3.38672 107.667L2.88672 107.667L2.38672 107.667ZM3.38672 109.667L3.38672 109.167L2.38672 109.167L2.38672 109.667L2.88672 109.667L3.38672 109.667ZM2.38672 111.667L2.38672 112.167L3.38672 112.167L3.38672 111.667L2.88672 111.667L2.38672 111.667ZM3.38672 113.667L3.38672 113.167L2.38672 113.167L2.38672 113.667L2.88672 113.667L3.38672 113.667ZM2.38672 115.667L2.38672 116.167L3.38672 116.167L3.38672 115.667L2.88672 115.667L2.38672 115.667ZM3.38672 117.667L3.38672 117.167L2.38672 117.167L2.38672 117.667L2.88672 117.667L3.38672 117.667ZM2.38672 119.667L2.38672 120.167L3.38672 120.167L3.38672 119.667L2.88672 119.667L2.38672 119.667ZM3.38672 121.667L3.38672 121.167L2.38672 121.167L2.38672 121.667L2.88672 121.667L3.38672 121.667ZM2.38672 123.667L2.38672 124.167L3.38672 124.167L3.38672 123.667L2.88672 123.667L2.38672 123.667ZM3.38672 125.667L3.38672 125.167L2.38672 125.167L2.38672 125.667L2.88672 125.667L3.38672 125.667ZM2.38672 127.667L2.38672 128.167L3.38672 128.167L3.38672 127.667L2.88672 127.667L2.38672 127.667ZM3.38672 129.667L3.38672 129.167L2.38672 129.167L2.38672 129.667L2.88672 129.667L3.38672 129.667ZM2.88672 2.6665L2.38672 2.6665L2.38672 3.6665L2.88672 3.6665L3.38672 3.6665L3.38672 2.6665L2.88672 2.6665ZM2.88672 5.6665L2.38672 5.6665L2.38672 7.6665L2.88672 7.6665L3.38672 7.6665L3.38672 5.6665L2.88672 5.6665ZM2.88672 9.6665L2.38672 9.6665L2.38672 11.6665L2.88672 11.6665L3.38672 11.6665L3.38672 9.6665L2.88672 9.6665ZM2.88672 13.6665L2.38672 13.6665L2.38672 15.6665L2.88672 15.6665L3.38672 15.6665L3.38672 13.6665L2.88672 13.6665ZM2.88672 17.6665L2.38672 17.6665L2.38672 19.6665L2.88672 19.6665L3.38672 19.6665L3.38672 17.6665L2.88672 17.6665ZM2.88672 21.6665L2.38672 21.6665L2.38672 23.6665L2.88672 23.6665L3.38672 23.6665L3.38672 21.6665L2.88672 21.6665ZM2.88672 25.6665L2.38672 25.6665L2.38672 27.6665L2.88672 27.6665L3.38672 27.6665L3.38672 25.6665L2.88672 25.6665ZM2.88672 29.6665L2.38672 29.6665L2.38672 31.6665L2.88672 31.6665L3.38672 31.6665L3.38672 29.6665L2.88672 29.6665ZM2.88672 33.6665L2.38672 33.6665L2.38672 35.6665L2.88672 35.6665L3.38672 35.6665L3.38672 33.6665L2.88672 33.6665ZM2.88672 37.6665L2.38672 37.6665L2.38672 39.6665L2.88672 39.6665L3.38672 39.6665L3.38672 37.6665L2.88672 37.6665ZM2.88672 41.6665L2.38672 41.6665L2.38672 43.6665L2.88672 43.6665L3.38672 43.6665L3.38672 41.6665L2.88672 41.6665ZM2.88672 45.6665L2.38672 45.6665L2.38672 47.6665L2.88672 47.6665L3.38672 47.6665L3.38672 45.6665L2.88672 45.6665ZM2.88672 49.6665L2.38672 49.6665L2.38672 51.6665L2.88672 51.6665L3.38672 51.6665L3.38672 49.6665L2.88672 49.6665ZM2.88672 53.6665L2.38672 53.6665L2.38672 55.6665L2.88672 55.6665L3.38672 55.6665L3.38672 53.6665L2.88672 53.6665ZM2.88672 57.6665L2.38672 57.6665L2.38672 59.6665L2.88672 59.6665L3.38672 59.6665L3.38672 57.6665L2.88672 57.6665ZM2.88672 61.6665L2.38672 61.6665L2.38672 63.6665L2.88672 63.6665L3.38672 63.6665L3.38672 61.6665L2.88672 61.6665ZM2.88672 65.6665L2.38672 65.6665L2.38672 67.6665L2.88672 67.6665L3.38672 67.6665L3.38672 65.6665L2.88672 65.6665ZM2.88672 69.6665L2.38672 69.6665L2.38672 71.6665L2.88672 71.6665L3.38672 71.6665L3.38672 69.6665L2.88672 69.6665ZM2.88672 73.6665L2.38672 73.6665L2.38672 75.6665L2.88672 75.6665L3.38672 75.6665L3.38672 73.6665L2.88672 73.6665ZM2.88672 77.6665L2.38672 77.6665L2.38672 79.6665L2.88672 79.6665L3.38672 79.6665L3.38672 77.6665L2.88672 77.6665ZM2.88672 81.6665L2.38672 81.6665L2.38672 83.6665L2.88672 83.6665L3.38672 83.6665L3.38672 81.6665L2.88672 81.6665ZM2.88672 85.6665L2.38672 85.6665L2.38672 87.6665L2.88672 87.6665L3.38672 87.6665L3.38672 85.6665L2.88672 85.6665ZM2.88672 89.6665L2.38672 89.6665L2.38672 91.6665L2.88672 91.6665L3.38672 91.6665L3.38672 89.6665L2.88672 89.6665ZM2.88672 93.6665L2.38672 93.6665L2.38672 95.6665L2.88672 95.6665L3.38672 95.6665L3.38672 93.6665L2.88672 93.6665ZM2.88672 97.6665L2.38672 97.6665L2.38672 99.6665L2.88672 99.6665L3.38672 99.6665L3.38672 97.6665L2.88672 97.6665ZM2.88672 101.667L2.38672 101.667L2.38672 103.667L2.88672 103.667L3.38672 103.667L3.38672 101.667L2.88672 101.667ZM2.88672 105.667L2.38672 105.667L2.38672 107.667L2.88672 107.667L3.38672 107.667L3.38672 105.667L2.88672 105.667ZM2.88672 109.667L2.38672 109.667L2.38672 111.667L2.88672 111.667L3.38672 111.667L3.38672 109.667L2.88672 109.667ZM2.88672 113.667L2.38672 113.667L2.38672 115.667L2.88672 115.667L3.38672 115.667L3.38672 113.667L2.88672 113.667ZM2.88672 117.667L2.38672 117.667L2.38672 119.667L2.88672 119.667L3.38672 119.667L3.38672 117.667L2.88672 117.667ZM2.88672 121.667L2.38672 121.667L2.38672 123.667L2.88672 123.667L3.38672 123.667L3.38672 121.667L2.88672 121.667ZM2.88672 125.667L2.38672 125.667L2.38672 127.667L2.88672 127.667L3.38672 127.667L3.38672 125.667L2.88672 125.667Z" fill="url(#paint0_linear_435_7384)"/>
<defs>
<linearGradient id="paint0_linear_435_7384" x1="2.38672" y1="2.6665" x2="2.38672" y2="130.667" gradientUnits="userSpaceOnUse">
<stop stop-color="#487395"/>
<stop offset="1" stop-color="#D1D1D1"/>
</linearGradient>
</defs>
</svg>
